<svg width="48" height="48" viewBox="0 0 48 48" fill="none" xmlns="http://www.w3.org/2000/svg">
<path d="M32.4751 17.501C35.9582 17.5011 38.8003 20.3944 38.8003 24C38.8003 27.6027 35.9581 30.4989 32.4751 30.499C28.9976 30.499 26.1499 27.6054 26.1499 24C26.1499 20.3973 28.9949 17.501 32.4751 17.501Z" fill="#FB6B37" stroke="#000519"/>
<path d="M18.8252 31.499H25.1504V38.001C25.1504 41.6007 22.3052 44.4999 18.8252 44.5C15.3451 44.5 12.5 41.6008 12.5 38.001C12.5 34.5106 15.1702 31.6811 18.501 31.5078L18.8252 31.499Z" fill="#FB6B37" stroke="#000519"/>
<path d="M32.4751 3.5C35.9579 3.50011 38.8003 6.39915 38.8003 9.99902C38.8003 13.602 35.9578 16.5009 32.4751 16.501H26.1499V3.5H32.4751Z" fill="#FB6B37" stroke="#000519"/>
<path d="M18.8252 3.5H25.1504V16.501H18.8252C15.3453 16.501 12.5 13.602 12.5 9.99902C12.5 6.51162 15.1701 3.6821 18.501 3.50879L18.8252 3.5Z" fill="#FB6B37" stroke="#000519"/>
<path d="M18.8252 17.501H25.1504V30.499H18.8252C15.345 30.499 12.5 27.6026 12.5 24C12.5 20.507 15.1698 17.6827 18.501 17.5098L18.8252 17.501Z" fill="#FB6B37" stroke="#000519"/>
</svg>
