<svg width="48" height="48" viewBox="0 0 48 48" fill="none" xmlns="http://www.w3.org/2000/svg">
<path d="M43.4626 2.23117C43.2826 2.03242 43.0239 1.91992 42.7539 1.91992H5.24637C4.97637 1.91992 4.71762 2.03242 4.53762 2.23117C4.35387 2.42992 4.26387 2.69617 4.29012 2.96617L7.66887 40.8149C7.70262 41.2124 7.98012 41.5424 8.36262 41.6549L23.7339 46.0424C23.8164 46.0687 23.9064 46.0799 23.9964 46.0799C24.0864 46.0799 24.1726 46.0687 24.2589 46.0424L39.6414 41.6549C40.0239 41.5424 40.2976 41.2124 40.3351 40.8149L43.7101 2.96617C43.7364 2.69617 43.6464 2.42992 43.4626 2.23117ZM35.3739 15.2812H17.3139L17.7451 20.1674H34.9389L33.6489 34.6087L23.9926 37.5262L23.8989 37.4962L14.3551 34.6049L13.8339 28.7212H18.5101L18.7126 31.0049L24.0489 32.1224L29.2876 31.0049L29.8464 24.8249H13.4851L12.2139 10.6124H35.7901L35.3739 15.2812Z" fill="#FB6B37"/>
</svg>
