<svg width="48" height="48" viewBox="0 0 48 48" fill="none" xmlns="http://www.w3.org/2000/svg">
<path d="M24.2567 28.0498C23.5352 28.3813 22.7447 28.8133 21.1622 29.6818C20.5622 30.0193 19.9352 30.3568 19.3517 30.6748C19.3112 30.6343 19.2692 30.5833 19.2287 30.5413C16.0982 27.1963 10.3082 24.8338 10.5542 20.3413C10.6457 18.7048 11.2082 14.4088 21.6737 9.19177C30.2867 4.94677 37.1402 6.12277 38.3237 8.73127C40.0247 12.4498 34.6502 19.3693 25.7552 20.3728C24.7707 20.5725 23.754 20.5483 22.7801 20.3022C21.8062 20.0561 20.9001 19.5942 20.1287 18.9508C19.6577 18.4393 19.5872 18.4093 19.4132 18.5113C19.1267 18.6613 19.3112 19.1248 19.4132 19.3903C19.7525 20.0046 20.2115 20.5446 20.7631 20.9785C21.3147 21.4124 21.9477 21.7312 22.6247 21.9163C26.1251 22.6729 29.7747 22.3114 33.0587 20.8828C38.4497 18.7963 42.6587 12.9958 41.4257 8.13277C40.1882 3.20227 32.0042 1.57627 24.2612 4.32727C19.4121 5.96136 14.932 8.53373 11.0762 11.8978C6.81019 15.8878 6.13519 19.3558 6.41119 20.8078C7.40419 25.9633 14.5112 29.3188 17.3612 31.8043C17.2112 31.8868 17.0852 31.9543 16.9727 32.0188C15.5507 32.7253 10.1297 35.5588 8.77819 38.5558C7.24369 41.9518 9.02419 44.3863 10.2002 44.7133C11.9724 45.1378 13.833 44.9982 15.5221 44.3141C17.2111 43.63 18.6444 42.4354 19.6217 40.8973C20.4516 39.6218 20.9612 38.1647 21.1072 36.65C21.2532 35.1353 21.0312 33.6078 20.4602 32.1973C20.7971 31.9285 21.1564 31.6892 21.5342 31.4818C22.2602 31.0528 22.9517 30.6298 23.5652 30.3028C25.6658 29.3189 27.9581 28.8122 30.2777 28.8193C35.1467 29.3923 36.1082 32.4298 35.9237 33.7093C35.8374 34.1632 35.6548 34.5934 35.3883 34.9709C35.1218 35.3484 34.7776 35.6645 34.3787 35.8978C34.0412 36.1123 33.9287 36.1843 33.9587 36.3373C33.9992 36.5623 34.1627 36.5518 34.4492 36.5113C35.1807 36.2801 35.8252 35.833 36.298 35.2288C36.7708 34.6245 37.0497 33.8914 37.0982 33.1258C37.2482 30.1258 34.3877 26.8348 29.3237 26.8648C27.8074 26.8674 26.3062 27.1665 24.9047 27.7453C24.6797 27.8383 24.4612 27.9383 24.2492 28.0453L24.2567 28.0498ZM17.0192 39.8083C15.4022 41.5678 13.1522 42.2323 12.1802 41.6698C11.1302 41.0698 11.5457 38.4673 13.5302 36.6058C14.7055 35.5468 15.9759 34.5983 17.3252 33.7723C17.5607 33.6223 17.9087 33.4243 18.3272 33.1723C18.3992 33.1318 18.4397 33.1108 18.4397 33.1108L18.6857 32.9608C19.0396 34.1474 19.0718 35.4068 18.779 36.61C18.4862 37.8132 17.8788 38.917 17.0192 39.8083Z" fill="#FB6B37"/>
</svg>
