<svg width="48" height="48" viewBox="0 0 48 48" fill="none" xmlns="http://www.w3.org/2000/svg">
<g clip-path="url(#clip0_121_7413)">
<path d="M35.1602 0.139935C34.3975 0.129391 33.6595 0.409728 33.0962 0.923935C33.0955 0.923935 33.0968 0.923935 33.0962 0.923935C33.0617 0.95265 33.0263 0.982672 32.9942 1.01394L17.0602 18.6339L7.76016 11.0079L6.94616 10.3079C6.66561 10.0749 6.3267 9.92308 5.96608 9.8688C5.60547 9.81451 5.23687 9.85986 4.90016 9.99993C4.89214 10.0032 4.88414 10.0065 4.87616 10.0099L1.24416 11.5099C1.19186 11.5311 1.14048 11.5544 1.09016 11.5799C1.05832 11.5977 1.02698 11.6164 0.99616 11.6359C0.970508 11.65 0.945169 11.6647 0.92016 11.6799C0.8875 11.7017 0.855487 11.7243 0.82416 11.7479C0.803182 11.7635 0.782511 11.7795 0.76216 11.7959C0.732826 11.8191 0.704148 11.8431 0.67616 11.8679C0.651627 11.8893 0.627619 11.9113 0.60416 11.9339C0.582277 11.9568 0.560937 11.9801 0.54016 12.0039C0.517526 12.0287 0.495519 12.054 0.47416 12.0799C0.450007 12.1086 0.426664 12.1379 0.40416 12.1679C0.38769 12.1903 0.371687 12.2129 0.35616 12.2359C0.333808 12.2693 0.312465 12.3033 0.29216 12.3379C0.278381 12.3603 0.265045 12.383 0.25216 12.4059C0.235239 12.4388 0.219233 12.4722 0.20416 12.5059C0.19009 12.5356 0.176753 12.5656 0.16416 12.5959C0.152808 12.625 0.142139 12.6544 0.13216 12.6839C0.120717 12.715 0.110047 12.7463 0.10016 12.7779C0.0891168 12.8143 0.0791128 12.851 0.0701602 12.8879C0.0629444 12.9145 0.0562763 12.9411 0.0501602 12.9679C0.043845 13.0038 0.0385097 13.0398 0.0341602 13.0759C0.0293213 13.1092 0.0253201 13.1425 0.0221602 13.1759C0.0171946 13.2311 0.0145257 13.2865 0.0141602 13.3419V34.6599C0.0164865 35.0526 0.134365 35.4359 0.353096 35.7621C0.571827 36.0882 0.881731 36.3427 1.24416 36.4939L4.87616 38.0199C5.21733 38.1619 5.59118 38.2067 5.95622 38.1491C6.32127 38.0916 6.66323 37.934 6.94416 37.6939L7.76016 36.9939L17.0602 29.3679L32.9962 46.9879C33.0427 47.0328 33.0908 47.0761 33.1402 47.1179C33.1773 47.1522 33.2153 47.1855 33.2542 47.2179C33.2922 47.2468 33.3308 47.2748 33.3702 47.3019C33.4114 47.3323 33.4534 47.3617 33.4962 47.3899C33.5389 47.4163 33.5822 47.4417 33.6262 47.4659C33.6689 47.491 33.7122 47.515 33.7562 47.5379C33.801 47.5597 33.8463 47.5804 33.8922 47.5999C33.9383 47.6211 33.985 47.6411 34.0322 47.6599C34.0804 47.6778 34.1291 47.6945 34.1782 47.7099C34.2219 47.7243 34.2659 47.7376 34.3102 47.7499C34.3631 47.7647 34.4165 47.7781 34.4702 47.7899C34.5153 47.8003 34.5606 47.8096 34.6062 47.8179C34.656 47.8258 34.706 47.8325 34.7562 47.8379C34.806 47.8438 34.8561 47.8485 34.9062 47.8519C34.9548 47.8551 35.0035 47.8571 35.0522 47.8579C35.1035 47.8592 35.1548 47.8592 35.2062 47.8579C35.2582 47.8559 35.3103 47.8526 35.3622 47.8479C35.4069 47.8443 35.4516 47.8396 35.4962 47.8339C35.5544 47.8263 35.6124 47.817 35.6702 47.8059C35.7103 47.7987 35.7503 47.7907 35.7902 47.7819C35.8439 47.7687 35.8972 47.7541 35.9502 47.7379C35.9958 47.7257 36.0412 47.7123 36.0862 47.6979C36.1333 47.6804 36.18 47.6618 36.2262 47.6419C36.2863 47.6192 36.3456 47.5945 36.4042 47.5679L46.2882 42.8159C46.6502 42.6407 46.9732 42.3945 47.2382 42.0919C47.3017 42.0202 47.3618 41.9454 47.4182 41.8679C47.4208 41.8633 47.4235 41.8586 47.4262 41.8539C47.4836 41.7733 47.537 41.6898 47.5862 41.6039C47.6311 41.5258 47.6725 41.4457 47.7102 41.3639C47.7162 41.3526 47.7222 41.3413 47.7282 41.3299C47.7582 41.2597 47.7856 41.1883 47.8102 41.1159C47.8198 41.0914 47.8292 41.0667 47.8382 41.0419C47.8608 40.9714 47.8808 40.9 47.8982 40.8279C47.9045 40.8033 47.9105 40.7787 47.9162 40.7539C47.9298 40.6877 47.9411 40.6209 47.9502 40.5539C47.9561 40.5207 47.9614 40.4873 47.9662 40.4539C47.972 40.3934 47.976 40.3327 47.9782 40.2719C47.9822 40.2193 47.9849 40.1666 47.9862 40.1139V7.89193C47.9862 7.8906 47.9862 7.88927 47.9862 7.88793C47.9864 7.8666 47.9864 7.84526 47.9862 7.82393C47.9845 7.72366 47.9778 7.62354 47.9662 7.52393C47.905 7.02426 47.719 6.54803 47.4254 6.1391C47.1318 5.73017 46.74 5.4017 46.2862 5.18393L36.4062 0.433935C36.0179 0.248675 35.5943 0.14909 35.1642 0.141935L35.1602 0.139935ZM35.9942 13.8439V34.1579L23.6042 24.0019L35.9942 13.8439ZM6.01016 17.1519L12.2042 24.0019L6.01016 30.8499V17.1519Z" fill="#FB6B37"/>
</g>
<defs>
<clipPath id="clip0_121_7413">
<rect width="48" height="48" fill="white"/>
</clipPath>
</defs>
</svg>
