<svg width="179" height="155" viewBox="0 0 179 155" fill="none" xmlns="http://www.w3.org/2000/svg">
<path d="M44.75 2.79842e-06L134.25 0L179 77.5L134.25 155H44.75L0 77.5L44.75 2.79842e-06Z" fill="#848175" fill-opacity="0.4"/>
<path d="M133.962 0.5L178.423 77.5L133.962 154.5H45.0381L0.576172 77.5L45.0381 0.5H133.962Z" stroke="#848175" stroke-opacity="0.9"/>
<path d="M77.1364 83.1591C76.3864 83.1591 75.7178 83.0303 75.1307 82.7727C74.5473 82.5152 74.0833 82.1572 73.7386 81.6989C73.3977 81.2367 73.2121 80.7008 73.1818 80.0909H74.6136C74.6439 80.4659 74.7727 80.7898 75 81.0625C75.2273 81.3314 75.5246 81.5398 75.892 81.6875C76.2595 81.8352 76.6667 81.9091 77.1136 81.9091C77.6136 81.9091 78.0568 81.822 78.4432 81.6477C78.8295 81.4735 79.1326 81.2311 79.3523 80.9205C79.572 80.6098 79.6818 80.25 79.6818 79.8409C79.6818 79.4129 79.5758 79.036 79.3636 78.7102C79.1515 78.3807 78.8409 78.1231 78.4318 77.9375C78.0227 77.7519 77.5227 77.6591 76.9318 77.6591H76V76.4091H76.9318C77.3939 76.4091 77.7992 76.3258 78.1477 76.1591C78.5 75.9924 78.7746 75.7576 78.9716 75.4545C79.1723 75.1515 79.2727 74.7955 79.2727 74.3864C79.2727 73.9924 79.1856 73.6496 79.0114 73.358C78.8371 73.0663 78.5909 72.839 78.2727 72.6761C77.9583 72.5133 77.5871 72.4318 77.1591 72.4318C76.7576 72.4318 76.3788 72.5057 76.0227 72.6534C75.6705 72.7973 75.3826 73.0076 75.1591 73.2841C74.9356 73.5568 74.8144 73.8864 74.7955 74.2727H73.4318C73.4545 73.6629 73.6383 73.1288 73.983 72.6705C74.3277 72.2083 74.7784 71.8485 75.3352 71.5909C75.8958 71.3333 76.5114 71.2045 77.1818 71.2045C77.9015 71.2045 78.5189 71.3504 79.0341 71.642C79.5492 71.9299 79.9451 72.3106 80.2216 72.7841C80.4981 73.2576 80.6364 73.7689 80.6364 74.3182C80.6364 74.9735 80.464 75.5322 80.1193 75.9943C79.7784 76.4564 79.3144 76.7765 78.7273 76.9545V77.0455C79.4621 77.1667 80.036 77.4792 80.4489 77.983C80.8617 78.483 81.0682 79.1023 81.0682 79.8409C81.0682 80.4735 80.8958 81.0417 80.5511 81.5455C80.2102 82.0455 79.7443 82.4394 79.1534 82.7273C78.5625 83.0152 77.8902 83.1591 77.1364 83.1591ZM83.5966 83V71.3636H85.0057V81.75H90.4148V83H83.5966ZM94.0057 71.3636V83H92.5966V71.3636H94.0057ZM100.422 83H96.831V71.3636H100.581C101.71 71.3636 102.676 71.5966 103.479 72.0625C104.282 72.5246 104.897 73.1894 105.325 74.0568C105.753 74.9205 105.967 75.9545 105.967 77.1591C105.967 78.3712 105.751 79.4148 105.32 80.2898C104.888 81.161 104.259 81.8314 103.433 82.3011C102.607 82.767 101.604 83 100.422 83ZM98.2401 81.75H100.331C101.293 81.75 102.09 81.5644 102.723 81.1932C103.356 80.822 103.827 80.2936 104.138 79.608C104.448 78.9223 104.604 78.1061 104.604 77.1591C104.604 76.2197 104.45 75.411 104.143 74.733C103.837 74.0511 103.378 73.5284 102.768 73.1648C102.159 72.7973 101.399 72.6136 100.49 72.6136H98.2401V81.75Z" fill="#140F00"/>
</svg>
