<svg width="179" height="155" viewBox="0 0 179 155" fill="none" xmlns="http://www.w3.org/2000/svg">
<path d="M133.962 0.5L178.423 77.5L133.962 154.5H45.0381L0.576172 77.5L45.0381 0.5H133.962Z" fill="#FFBA0A" fill-opacity="0.4" stroke="#FFBA0A"/>
<path d="M63.9318 80.6136V79.4545L69.0455 71.3636H69.8864V73.1591H69.3182L65.4545 79.2727V79.3636H72.3409V80.6136H63.9318ZM69.4091 83V80.2614V79.7216V71.3636H70.75V83H69.4091ZM74.0384 72.6136V71.3636H82.7656V72.6136H79.1065V83H77.6974V72.6136H74.0384ZM84.9403 83V71.3636H91.9631V72.6136H86.3494V76.5455H91.5994V77.7955H86.3494V81.75H92.054V83H84.9403ZM103.866 75H102.457C102.374 74.5947 102.228 74.2386 102.02 73.9318C101.815 73.625 101.565 73.3674 101.27 73.1591C100.978 72.947 100.654 72.7879 100.298 72.6818C99.9422 72.5758 99.571 72.5227 99.1847 72.5227C98.4801 72.5227 97.8419 72.7008 97.2699 73.0568C96.7017 73.4129 96.2491 73.9375 95.9119 74.6307C95.5786 75.3239 95.4119 76.1742 95.4119 77.1818C95.4119 78.1894 95.5786 79.0398 95.9119 79.733C96.2491 80.4261 96.7017 80.9508 97.2699 81.3068C97.8419 81.6629 98.4801 81.8409 99.1847 81.8409C99.571 81.8409 99.9422 81.7879 100.298 81.6818C100.654 81.5758 100.978 81.4186 101.27 81.2102C101.565 80.9981 101.815 80.7386 102.02 80.4318C102.228 80.1212 102.374 79.7652 102.457 79.3636H103.866C103.76 79.9583 103.567 80.4905 103.287 80.9602C103.007 81.4299 102.658 81.8295 102.241 82.1591C101.825 82.4848 101.357 82.733 100.838 82.9034C100.323 83.0739 99.7718 83.1591 99.1847 83.1591C98.1922 83.1591 97.3097 82.9167 96.5369 82.4318C95.7642 81.947 95.1563 81.2576 94.7131 80.3636C94.2699 79.4697 94.0483 78.4091 94.0483 77.1818C94.0483 75.9545 94.2699 74.8939 94.7131 74C95.1563 73.1061 95.7642 72.4167 96.5369 71.9318C97.3097 71.447 98.1922 71.2045 99.1847 71.2045C99.7718 71.2045 100.323 71.2898 100.838 71.4602C101.357 71.6307 101.825 71.8807 102.241 72.2102C102.658 72.536 103.007 72.9337 103.287 73.4034C103.567 73.8693 103.76 74.4015 103.866 75ZM106.143 83V71.3636H107.553V76.5455H113.757V71.3636H115.166V83H113.757V77.7955H107.553V83H106.143Z" fill="#140F00"/>
</svg>
