<svg width="179" height="155" viewBox="0 0 179 155" fill="none" xmlns="http://www.w3.org/2000/svg">
<path d="M44.75 2.79842e-06L134.25 0L179 77.5L134.25 155H44.75L0 77.5L44.75 2.79842e-06Z" fill="#848175" fill-opacity="0.4"/>
<path d="M133.962 0.5L178.423 77.5L133.962 154.5H45.0381L0.576172 77.5L45.0381 0.5H133.962Z" stroke="#848175" stroke-opacity="0.9"/>
<path d="M57.4091 83V71.3636H61.4773C62.2879 71.3636 62.9564 71.5038 63.483 71.7841C64.0095 72.0606 64.4015 72.4337 64.6591 72.9034C64.9167 73.3693 65.0455 73.8864 65.0455 74.4545C65.0455 74.9545 64.9564 75.3674 64.7784 75.6932C64.6042 76.0189 64.3731 76.2765 64.0852 76.4659C63.8011 76.6553 63.4924 76.7955 63.1591 76.8864V77C63.5152 77.0227 63.8731 77.1477 64.233 77.375C64.5928 77.6023 64.8939 77.928 65.1364 78.3523C65.3788 78.7765 65.5 79.2955 65.5 79.9091C65.5 80.4924 65.3674 81.017 65.1023 81.483C64.8371 81.9489 64.4186 82.3182 63.8466 82.5909C63.2746 82.8636 62.5303 83 61.6136 83H57.4091ZM58.8182 81.75H61.6136C62.5341 81.75 63.1875 81.572 63.5739 81.2159C63.964 80.8561 64.1591 80.4205 64.1591 79.9091C64.1591 79.5152 64.0587 79.1515 63.858 78.8182C63.6572 78.4811 63.3712 78.2121 63 78.0114C62.6288 77.8068 62.1894 77.7045 61.6818 77.7045H58.8182V81.75ZM58.8182 76.4773H61.4318C61.8561 76.4773 62.2386 76.3939 62.5795 76.2273C62.9242 76.0606 63.197 75.8258 63.3977 75.5227C63.6023 75.2197 63.7045 74.8636 63.7045 74.4545C63.7045 73.9432 63.5265 73.5095 63.1705 73.1534C62.8144 72.7936 62.25 72.6136 61.4773 72.6136H58.8182V76.4773ZM71.5426 83.1591C70.7926 83.1591 70.1241 83.0303 69.5369 82.7727C68.9536 82.5152 68.4896 82.1572 68.1449 81.6989C67.804 81.2367 67.6184 80.7008 67.5881 80.0909H69.0199C69.0502 80.4659 69.179 80.7898 69.4062 81.0625C69.6335 81.3314 69.9309 81.5398 70.2983 81.6875C70.6657 81.8352 71.0729 81.9091 71.5199 81.9091C72.0199 81.9091 72.4631 81.822 72.8494 81.6477C73.2358 81.4735 73.5388 81.2311 73.7585 80.9205C73.9782 80.6098 74.0881 80.25 74.0881 79.8409C74.0881 79.4129 73.982 79.036 73.7699 78.7102C73.5578 78.3807 73.2472 78.1231 72.8381 77.9375C72.429 77.7519 71.929 77.6591 71.3381 77.6591H70.4062V76.4091H71.3381C71.8002 76.4091 72.2055 76.3258 72.554 76.1591C72.9063 75.9924 73.1809 75.7576 73.3778 75.4545C73.5786 75.1515 73.679 74.7955 73.679 74.3864C73.679 73.9924 73.5919 73.6496 73.4176 73.358C73.2434 73.0663 72.9972 72.839 72.679 72.6761C72.3646 72.5133 71.9934 72.4318 71.5653 72.4318C71.1638 72.4318 70.785 72.5057 70.429 72.6534C70.0767 72.7973 69.7888 73.0076 69.5653 73.2841C69.3419 73.5568 69.2206 73.8864 69.2017 74.2727H67.8381C67.8608 73.6629 68.0445 73.1288 68.3892 72.6705C68.7339 72.2083 69.1847 71.8485 69.7415 71.5909C70.3021 71.3333 70.9176 71.2045 71.5881 71.2045C72.3078 71.2045 72.9252 71.3504 73.4403 71.642C73.9555 71.9299 74.3513 72.3106 74.6278 72.7841C74.9044 73.2576 75.0426 73.7689 75.0426 74.3182C75.0426 74.9735 74.8703 75.5322 74.5256 75.9943C74.1847 76.4564 73.7206 76.7765 73.1335 76.9545V77.0455C73.8684 77.1667 74.4422 77.4792 74.8551 77.983C75.268 78.483 75.4744 79.1023 75.4744 79.8409C75.4744 80.4735 75.3021 81.0417 74.9574 81.5455C74.6165 82.0455 74.1506 82.4394 73.5597 82.7273C72.9688 83.0152 72.2964 83.1591 71.5426 83.1591ZM78.0028 83V71.3636H81.9347C82.8475 71.3636 83.5938 71.5284 84.1733 71.858C84.7566 72.1837 85.1884 72.625 85.4688 73.1818C85.7491 73.7386 85.8892 74.3598 85.8892 75.0455C85.8892 75.7311 85.7491 76.3542 85.4688 76.9148C85.1922 77.4754 84.7642 77.9223 84.1847 78.2557C83.6051 78.5852 82.8627 78.75 81.9574 78.75H79.1392V77.5H81.9119C82.5369 77.5 83.0388 77.392 83.4176 77.1761C83.7964 76.9602 84.071 76.6686 84.2415 76.3011C84.4157 75.9299 84.5028 75.5114 84.5028 75.0455C84.5028 74.5795 84.4157 74.1629 84.2415 73.7955C84.071 73.428 83.7945 73.1402 83.4119 72.9318C83.0294 72.7197 82.5218 72.6136 81.8892 72.6136H79.4119V83H78.0028ZM88.1591 83V71.3636H89.5682V76.5455H95.7727V71.3636H97.1818V83H95.7727V77.7955H89.5682V83H88.1591ZM99.0028 71.3636H100.616L103.844 76.7955H103.98L107.207 71.3636H108.821L104.616 78.2045V83H103.207V78.2045L99.0028 71.3636ZM117.007 74.2727C116.939 73.697 116.662 73.25 116.178 72.9318C115.693 72.6136 115.098 72.4545 114.393 72.4545C113.878 72.4545 113.428 72.5379 113.041 72.7045C112.659 72.8712 112.359 73.1004 112.143 73.392C111.931 73.6837 111.825 74.0152 111.825 74.3864C111.825 74.697 111.899 74.964 112.047 75.1875C112.198 75.4072 112.392 75.5909 112.626 75.7386C112.861 75.8826 113.107 76.0019 113.365 76.0966C113.623 76.1875 113.859 76.2614 114.075 76.3182L115.257 76.6364C115.56 76.7159 115.897 76.8258 116.268 76.9659C116.643 77.1061 117.001 77.2973 117.342 77.5398C117.687 77.7784 117.971 78.0852 118.195 78.4602C118.418 78.8352 118.53 79.2955 118.53 79.8409C118.53 80.4697 118.365 81.0379 118.036 81.5455C117.71 82.053 117.232 82.4564 116.604 82.7557C115.979 83.0549 115.219 83.2045 114.325 83.2045C113.492 83.2045 112.77 83.0701 112.161 82.8011C111.554 82.5322 111.077 82.1572 110.729 81.6761C110.384 81.1951 110.189 80.6364 110.143 80H111.598C111.636 80.4394 111.784 80.803 112.041 81.0909C112.303 81.375 112.632 81.5871 113.03 81.7273C113.431 81.8636 113.863 81.9318 114.325 81.9318C114.863 81.9318 115.346 81.8447 115.774 81.6705C116.202 81.4924 116.541 81.2462 116.791 80.9318C117.041 80.6136 117.166 80.2424 117.166 79.8182C117.166 79.4318 117.058 79.1174 116.842 78.875C116.626 78.6326 116.342 78.4356 115.99 78.2841C115.638 78.1326 115.257 78 114.848 77.8864L113.416 77.4773C112.507 77.2159 111.787 76.8428 111.257 76.358C110.727 75.8731 110.462 75.2386 110.462 74.4545C110.462 73.803 110.638 73.2348 110.99 72.75C111.346 72.2614 111.823 71.8826 112.422 71.6136C113.024 71.3409 113.696 71.2045 114.439 71.2045C115.189 71.2045 115.856 71.339 116.439 71.608C117.022 71.8731 117.484 72.2367 117.825 72.6989C118.17 73.161 118.352 73.6856 118.371 74.2727H117.007ZM122.256 71.3636V83H120.847V71.3636H122.256Z" fill="#140F00"/>
</svg>
