<svg width="179" height="155" viewBox="0 0 179 155" fill="none" xmlns="http://www.w3.org/2000/svg">
<path d="M44.75 2.79842e-06L134.25 0L179 77.5L134.25 155H44.75L0 77.5L44.75 2.79842e-06Z" fill="#FFFAEB"/>
<path d="M133.962 0.5L178.423 77.5L133.962 154.5H45.0381L0.576172 77.5L45.0381 0.5H133.962Z" stroke="#140F00" stroke-opacity="0.3"/>
<path d="M44.4091 71.3636H46.0909L50.0455 81.0227H50.1818L54.1364 71.3636H55.8182V83H54.5V74.1591H54.3864L50.75 83H49.4773L45.8409 74.1591H45.7273V83H44.4091V71.3636ZM62.1207 83.1818C61.2798 83.1818 60.5545 82.9962 59.9446 82.625C59.3385 82.25 58.8707 81.7273 58.5412 81.0568C58.2154 80.3826 58.0526 79.5985 58.0526 78.7045C58.0526 77.8106 58.2154 77.0227 58.5412 76.3409C58.8707 75.6553 59.3291 75.1212 59.9162 74.7386C60.5071 74.3523 61.1965 74.1591 61.9844 74.1591C62.4389 74.1591 62.8878 74.2348 63.331 74.3864C63.7741 74.5379 64.1776 74.7841 64.5412 75.125C64.9048 75.4621 65.1946 75.9091 65.4105 76.4659C65.6264 77.0227 65.7344 77.7083 65.7344 78.5227V79.0909H59.0071V77.9318H64.3707C64.3707 77.4394 64.2723 77 64.0753 76.6136C63.8821 76.2273 63.6056 75.9223 63.2457 75.6989C62.8897 75.4754 62.4692 75.3636 61.9844 75.3636C61.4503 75.3636 60.9882 75.4962 60.598 75.7614C60.2116 76.0227 59.9143 76.3636 59.706 76.7841C59.4976 77.2045 59.3935 77.6553 59.3935 78.1364V78.9091C59.3935 79.5682 59.5071 80.1269 59.7344 80.5852C59.9654 81.0398 60.2855 81.3864 60.6946 81.625C61.1037 81.8598 61.5791 81.9773 62.1207 81.9773C62.473 81.9773 62.7912 81.928 63.0753 81.8295C63.3632 81.7273 63.6113 81.5758 63.8196 81.375C64.0279 81.1705 64.1889 80.9167 64.3026 80.6136L65.598 80.9773C65.4616 81.4167 65.2325 81.803 64.9105 82.1364C64.5885 82.4659 64.1908 82.7235 63.7173 82.9091C63.2438 83.0909 62.7116 83.1818 62.1207 83.1818ZM73.956 76.2273L72.7514 76.5682C72.6757 76.3674 72.5639 76.1723 72.4162 75.983C72.2723 75.7898 72.0753 75.6307 71.8253 75.5057C71.5753 75.3807 71.2552 75.3182 70.8651 75.3182C70.331 75.3182 69.8859 75.4413 69.5298 75.6875C69.1776 75.9299 69.0014 76.2386 69.0014 76.6136C69.0014 76.947 69.1226 77.2102 69.3651 77.4034C69.6075 77.5966 69.9863 77.7576 70.5014 77.8864L71.7969 78.2045C72.5772 78.3939 73.1586 78.6837 73.5412 79.0739C73.9238 79.4602 74.1151 79.9583 74.1151 80.5682C74.1151 81.0682 73.9711 81.5152 73.6832 81.9091C73.3991 82.303 73.0014 82.6136 72.4901 82.8409C71.9787 83.0682 71.384 83.1818 70.706 83.1818C69.8158 83.1818 69.0791 82.9886 68.4957 82.6023C67.9124 82.2159 67.5431 81.6515 67.3878 80.9091L68.6605 80.5909C68.7817 81.0606 69.0109 81.4129 69.348 81.6477C69.6889 81.8826 70.134 82 70.6832 82C71.3082 82 71.8045 81.8674 72.1719 81.6023C72.5431 81.3333 72.7287 81.0114 72.7287 80.6364C72.7287 80.3333 72.6226 80.0795 72.4105 79.875C72.1984 79.6667 71.8726 79.5114 71.4332 79.4091L69.9787 79.0682C69.1795 78.8788 68.5923 78.5852 68.2173 78.1875C67.8461 77.786 67.6605 77.2841 67.6605 76.6818C67.6605 76.1894 67.7988 75.7538 68.0753 75.375C68.3556 74.9962 68.7363 74.6989 69.2173 74.483C69.7022 74.267 70.2514 74.1591 70.8651 74.1591C71.7287 74.1591 72.4067 74.3485 72.8991 74.7273C73.3954 75.1061 73.7476 75.6061 73.956 76.2273ZM84.179 83.1818C83.3608 83.1818 82.6563 82.9886 82.0653 82.6023C81.4744 82.2159 81.0199 81.6837 80.7017 81.0057C80.3835 80.3277 80.2244 79.553 80.2244 78.6818C80.2244 77.7955 80.3873 77.0133 80.7131 76.3352C81.0426 75.6534 81.5009 75.1212 82.0881 74.7386C82.679 74.3523 83.3684 74.1591 84.1562 74.1591C84.7699 74.1591 85.3229 74.2727 85.8153 74.5C86.3078 74.7273 86.7112 75.0455 87.0256 75.4545C87.34 75.8636 87.535 76.3409 87.6108 76.8864H86.2699C86.1676 76.4886 85.9403 76.1364 85.5881 75.8295C85.2396 75.5189 84.7699 75.3636 84.179 75.3636C83.6563 75.3636 83.1979 75.5 82.804 75.7727C82.4138 76.0417 82.1089 76.4223 81.8892 76.9148C81.6733 77.4034 81.5653 77.9773 81.5653 78.6364C81.5653 79.3106 81.6714 79.8977 81.8835 80.3977C82.0994 80.8977 82.4025 81.286 82.7926 81.5625C83.1866 81.839 83.6487 81.9773 84.179 81.9773C84.5275 81.9773 84.8438 81.9167 85.1278 81.7955C85.4119 81.6742 85.6525 81.5 85.8494 81.2727C86.0464 81.0455 86.1866 80.7727 86.2699 80.4545H87.6108C87.535 80.9697 87.3475 81.4337 87.0483 81.8466C86.7528 82.2557 86.3608 82.5814 85.8722 82.8239C85.3873 83.0625 84.8229 83.1818 84.179 83.1818ZM90.9119 71.3636V83H89.571V71.3636H90.9119ZM95.9361 83.2045C95.383 83.2045 94.8812 83.1004 94.4304 82.892C93.9796 82.6799 93.6217 82.375 93.3565 81.9773C93.0914 81.5758 92.9588 81.0909 92.9588 80.5227C92.9588 80.0227 93.0573 79.6174 93.2543 79.3068C93.4512 78.9924 93.7145 78.7462 94.044 78.5682C94.3736 78.3902 94.7372 78.2576 95.1349 78.1705C95.5365 78.0795 95.9399 78.0076 96.3452 77.9545C96.8755 77.8864 97.3054 77.8352 97.6349 77.8011C97.9683 77.7633 98.2107 77.7008 98.3622 77.6136C98.5175 77.5265 98.5952 77.375 98.5952 77.1591V77.1136C98.5952 76.553 98.4418 76.1174 98.1349 75.8068C97.8319 75.4962 97.3717 75.3409 96.7543 75.3409C96.1141 75.3409 95.6122 75.4811 95.2486 75.7614C94.8849 76.0417 94.6293 76.3409 94.4815 76.6591L93.2088 76.2045C93.4361 75.6742 93.7391 75.2614 94.1179 74.9659C94.5005 74.6667 94.9171 74.4583 95.3679 74.3409C95.8224 74.2197 96.2694 74.1591 96.7088 74.1591C96.9891 74.1591 97.3111 74.1932 97.6747 74.2614C98.0421 74.3258 98.3963 74.4602 98.7372 74.6648C99.0819 74.8693 99.3679 75.178 99.5952 75.5909C99.8224 76.0038 99.9361 76.5568 99.9361 77.25V83H98.5952V81.8182H98.527C98.4361 82.0076 98.2846 82.2102 98.0724 82.4261C97.8603 82.642 97.5781 82.8258 97.2259 82.9773C96.8736 83.1288 96.4437 83.2045 95.9361 83.2045ZM96.1406 82C96.6709 82 97.1179 81.8958 97.4815 81.6875C97.849 81.4792 98.1255 81.2102 98.3111 80.8807C98.5005 80.5511 98.5952 80.2045 98.5952 79.8409V78.6136C98.5384 78.6818 98.4134 78.7443 98.2202 78.8011C98.0308 78.8542 97.8111 78.9015 97.5611 78.9432C97.3149 78.9811 97.0743 79.0152 96.8395 79.0455C96.6084 79.072 96.4209 79.0947 96.277 79.1136C95.9285 79.1591 95.6027 79.233 95.2997 79.3352C95.0005 79.4337 94.758 79.5833 94.5724 79.7841C94.3906 79.9811 94.2997 80.25 94.2997 80.5909C94.2997 81.0568 94.4721 81.4091 94.8168 81.6477C95.1652 81.8826 95.6065 82 96.1406 82ZM108.565 76.2273L107.361 76.5682C107.285 76.3674 107.173 76.1723 107.026 75.983C106.882 75.7898 106.685 75.6307 106.435 75.5057C106.185 75.3807 105.865 75.3182 105.474 75.3182C104.94 75.3182 104.495 75.4413 104.139 75.6875C103.787 75.9299 103.611 76.2386 103.611 76.6136C103.611 76.947 103.732 77.2102 103.974 77.4034C104.217 77.5966 104.596 77.7576 105.111 77.8864L106.406 78.2045C107.187 78.3939 107.768 78.6837 108.151 79.0739C108.533 79.4602 108.724 79.9583 108.724 80.5682C108.724 81.0682 108.58 81.5152 108.293 81.9091C108.009 82.303 107.611 82.6136 107.099 82.8409C106.588 83.0682 105.993 83.1818 105.315 83.1818C104.425 83.1818 103.688 82.9886 103.105 82.6023C102.522 82.2159 102.152 81.6515 101.997 80.9091L103.27 80.5909C103.391 81.0606 103.62 81.4129 103.957 81.6477C104.298 81.8826 104.743 82 105.293 82C105.918 82 106.414 81.8674 106.781 81.6023C107.152 81.3333 107.338 81.0114 107.338 80.6364C107.338 80.3333 107.232 80.0795 107.02 79.875C106.808 79.6667 106.482 79.5114 106.043 79.4091L104.588 79.0682C103.789 78.8788 103.202 78.5852 102.827 78.1875C102.455 77.786 102.27 77.2841 102.27 76.6818C102.27 76.1894 102.408 75.7538 102.685 75.375C102.965 74.9962 103.346 74.6989 103.827 74.483C104.312 74.267 104.861 74.1591 105.474 74.1591C106.338 74.1591 107.016 74.3485 107.509 74.7273C108.005 75.1061 108.357 75.6061 108.565 76.2273ZM116.925 76.2273L115.72 76.5682C115.644 76.3674 115.533 76.1723 115.385 75.983C115.241 75.7898 115.044 75.6307 114.794 75.5057C114.544 75.3807 114.224 75.3182 113.834 75.3182C113.3 75.3182 112.855 75.4413 112.499 75.6875C112.146 75.9299 111.97 76.2386 111.97 76.6136C111.97 76.947 112.091 77.2102 112.334 77.4034C112.576 77.5966 112.955 77.7576 113.47 77.8864L114.766 78.2045C115.546 78.3939 116.127 78.6837 116.51 79.0739C116.893 79.4602 117.084 79.9583 117.084 80.5682C117.084 81.0682 116.94 81.5152 116.652 81.9091C116.368 82.303 115.97 82.6136 115.459 82.8409C114.947 83.0682 114.353 83.1818 113.675 83.1818C112.785 83.1818 112.048 82.9886 111.464 82.6023C110.881 82.2159 110.512 81.6515 110.357 80.9091L111.629 80.5909C111.75 81.0606 111.98 81.4129 112.317 81.6477C112.658 81.8826 113.103 82 113.652 82C114.277 82 114.773 81.8674 115.141 81.6023C115.512 81.3333 115.697 81.0114 115.697 80.6364C115.697 80.3333 115.591 80.0795 115.379 79.875C115.167 79.6667 114.841 79.5114 114.402 79.4091L112.947 79.0682C112.148 78.8788 111.561 78.5852 111.186 78.1875C110.815 77.786 110.629 77.2841 110.629 76.6818C110.629 76.1894 110.768 75.7538 111.044 75.375C111.324 74.9962 111.705 74.6989 112.186 74.483C112.671 74.267 113.22 74.1591 113.834 74.1591C114.697 74.1591 115.375 74.3485 115.868 74.7273C116.364 75.1061 116.716 75.6061 116.925 76.2273ZM122.761 83.1818C121.92 83.1818 121.195 82.9962 120.585 82.625C119.979 82.25 119.511 81.7273 119.182 81.0568C118.856 80.3826 118.693 79.5985 118.693 78.7045C118.693 77.8106 118.856 77.0227 119.182 76.3409C119.511 75.6553 119.97 75.1212 120.557 74.7386C121.148 74.3523 121.837 74.1591 122.625 74.1591C123.08 74.1591 123.528 74.2348 123.972 74.3864C124.415 74.5379 124.818 74.7841 125.182 75.125C125.545 75.4621 125.835 75.9091 126.051 76.4659C126.267 77.0227 126.375 77.7083 126.375 78.5227V79.0909H119.648V77.9318H125.011C125.011 77.4394 124.913 77 124.716 76.6136C124.523 76.2273 124.246 75.9223 123.886 75.6989C123.53 75.4754 123.11 75.3636 122.625 75.3636C122.091 75.3636 121.629 75.4962 121.239 75.7614C120.852 76.0227 120.555 76.3636 120.347 76.7841C120.138 77.2045 120.034 77.6553 120.034 78.1364V78.9091C120.034 79.5682 120.148 80.1269 120.375 80.5852C120.606 81.0398 120.926 81.3864 121.335 81.625C121.744 81.8598 122.22 81.9773 122.761 81.9773C123.114 81.9773 123.432 81.928 123.716 81.8295C124.004 81.7273 124.252 81.5758 124.46 81.375C124.669 81.1705 124.83 80.9167 124.943 80.6136L126.239 80.9773C126.102 81.4167 125.873 81.803 125.551 82.1364C125.229 82.4659 124.831 82.7235 124.358 82.9091C123.884 83.0909 123.352 83.1818 122.761 83.1818ZM134.597 76.2273L133.392 76.5682C133.316 76.3674 133.205 76.1723 133.057 75.983C132.913 75.7898 132.716 75.6307 132.466 75.5057C132.216 75.3807 131.896 75.3182 131.506 75.3182C130.972 75.3182 130.527 75.4413 130.17 75.6875C129.818 75.9299 129.642 76.2386 129.642 76.6136C129.642 76.947 129.763 77.2102 130.006 77.4034C130.248 77.5966 130.627 77.7576 131.142 77.8864L132.438 78.2045C133.218 78.3939 133.799 78.6837 134.182 79.0739C134.564 79.4602 134.756 79.9583 134.756 80.5682C134.756 81.0682 134.612 81.5152 134.324 81.9091C134.04 82.303 133.642 82.6136 133.131 82.8409C132.619 83.0682 132.025 83.1818 131.347 83.1818C130.456 83.1818 129.72 82.9886 129.136 82.6023C128.553 82.2159 128.184 81.6515 128.028 80.9091L129.301 80.5909C129.422 81.0606 129.652 81.4129 129.989 81.6477C130.33 81.8826 130.775 82 131.324 82C131.949 82 132.445 81.8674 132.812 81.6023C133.184 81.3333 133.369 81.0114 133.369 80.6364C133.369 80.3333 133.263 80.0795 133.051 79.875C132.839 79.6667 132.513 79.5114 132.074 79.4091L130.619 79.0682C129.82 78.8788 129.233 78.5852 128.858 78.1875C128.487 77.786 128.301 77.2841 128.301 76.6818C128.301 76.1894 128.439 75.7538 128.716 75.375C128.996 74.9962 129.377 74.6989 129.858 74.483C130.343 74.267 130.892 74.1591 131.506 74.1591C132.369 74.1591 133.047 74.3485 133.54 74.7273C134.036 75.1061 134.388 75.6061 134.597 76.2273Z" fill="#140F00"/>
</svg>
