<svg width="509" height="530" viewBox="0 0 509 530" fill="none" xmlns="http://www.w3.org/2000/svg">
<path d="M209.75 375L299.25 375L344 452.5L299.25 530H209.75L165 452.5L209.75 375Z" fill="#848175" fill-opacity="0.1"/>
<path d="M298.962 375.5L343.423 452.5L298.962 529.5H210.038L165.576 452.5L210.038 375.5H298.962Z" stroke="#848175" stroke-opacity="0.4"/>
<path d="M44.75 92L134.25 92L179 169.5L134.25 247H44.75L0 169.5L44.75 92Z" fill="#848175" fill-opacity="0.1"/>
<path d="M133.962 92.5L178.423 169.5L133.962 246.5H45.0381L0.576172 169.5L45.0381 92.5H133.962Z" stroke="#848175" stroke-opacity="0.4"/>
<path d="M44.75 283L134.25 283L179 360.5L134.25 438H44.75L0 360.5L44.75 283Z" fill="#848175" fill-opacity="0.1"/>
<path d="M133.962 283.5L178.423 360.5L133.962 437.5H45.0381L0.576172 360.5L45.0381 283.5H133.962Z" stroke="#848175" stroke-opacity="0.4"/>
<path d="M209.75 2.79842e-06L299.25 0L344 77.5L299.25 155H209.75L165 77.5L209.75 2.79842e-06Z" fill="#848175" fill-opacity="0.4"/>
<path d="M298.962 0.5L343.423 77.5L298.962 154.5H210.038L165.576 77.5L210.038 0.5H298.962Z" stroke="#848175" stroke-opacity="0.9"/>
<path d="M222.409 83V71.3636H226.477C227.288 71.3636 227.956 71.5038 228.483 71.7841C229.009 72.0606 229.402 72.4337 229.659 72.9034C229.917 73.3693 230.045 73.8864 230.045 74.4545C230.045 74.9545 229.956 75.3674 229.778 75.6932C229.604 76.0189 229.373 76.2765 229.085 76.4659C228.801 76.6553 228.492 76.7955 228.159 76.8864V77C228.515 77.0227 228.873 77.1477 229.233 77.375C229.593 77.6023 229.894 77.928 230.136 78.3523C230.379 78.7765 230.5 79.2955 230.5 79.9091C230.5 80.4924 230.367 81.017 230.102 81.483C229.837 81.9489 229.419 82.3182 228.847 82.5909C228.275 82.8636 227.53 83 226.614 83H222.409ZM223.818 81.75H226.614C227.534 81.75 228.188 81.572 228.574 81.2159C228.964 80.8561 229.159 80.4205 229.159 79.9091C229.159 79.5152 229.059 79.1515 228.858 78.8182C228.657 78.4811 228.371 78.2121 228 78.0114C227.629 77.8068 227.189 77.7045 226.682 77.7045H223.818V81.75ZM223.818 76.4773H226.432C226.856 76.4773 227.239 76.3939 227.58 76.2273C227.924 76.0606 228.197 75.8258 228.398 75.5227C228.602 75.2197 228.705 74.8636 228.705 74.4545C228.705 73.9432 228.527 73.5095 228.17 73.1534C227.814 72.7936 227.25 72.6136 226.477 72.6136H223.818V76.4773ZM236.543 83.1591C235.793 83.1591 235.124 83.0303 234.537 82.7727C233.954 82.5152 233.49 82.1572 233.145 81.6989C232.804 81.2367 232.618 80.7008 232.588 80.0909H234.02C234.05 80.4659 234.179 80.7898 234.406 81.0625C234.634 81.3314 234.931 81.5398 235.298 81.6875C235.666 81.8352 236.073 81.9091 236.52 81.9091C237.02 81.9091 237.463 81.822 237.849 81.6477C238.236 81.4735 238.539 81.2311 238.759 80.9205C238.978 80.6098 239.088 80.25 239.088 79.8409C239.088 79.4129 238.982 79.036 238.77 78.7102C238.558 78.3807 238.247 78.1231 237.838 77.9375C237.429 77.7519 236.929 77.6591 236.338 77.6591H235.406V76.4091H236.338C236.8 76.4091 237.205 76.3258 237.554 76.1591C237.906 75.9924 238.181 75.7576 238.378 75.4545C238.579 75.1515 238.679 74.7955 238.679 74.3864C238.679 73.9924 238.592 73.6496 238.418 73.358C238.243 73.0663 237.997 72.839 237.679 72.6761C237.365 72.5133 236.993 72.4318 236.565 72.4318C236.164 72.4318 235.785 72.5057 235.429 72.6534C235.077 72.7973 234.789 73.0076 234.565 73.2841C234.342 73.5568 234.221 73.8864 234.202 74.2727H232.838C232.861 73.6629 233.045 73.1288 233.389 72.6705C233.734 72.2083 234.185 71.8485 234.741 71.5909C235.302 71.3333 235.918 71.2045 236.588 71.2045C237.308 71.2045 237.925 71.3504 238.44 71.642C238.955 71.9299 239.351 72.3106 239.628 72.7841C239.904 73.2576 240.043 73.7689 240.043 74.3182C240.043 74.9735 239.87 75.5322 239.526 75.9943C239.185 76.4564 238.721 76.7765 238.134 76.9545V77.0455C238.868 77.1667 239.442 77.4792 239.855 77.983C240.268 78.483 240.474 79.1023 240.474 79.8409C240.474 80.4735 240.302 81.0417 239.957 81.5455C239.616 82.0455 239.151 82.4394 238.56 82.7273C237.969 83.0152 237.296 83.1591 236.543 83.1591ZM243.003 83V71.3636H246.935C247.848 71.3636 248.594 71.5284 249.173 71.858C249.757 72.1837 250.188 72.625 250.469 73.1818C250.749 73.7386 250.889 74.3598 250.889 75.0455C250.889 75.7311 250.749 76.3542 250.469 76.9148C250.192 77.4754 249.764 77.9223 249.185 78.2557C248.605 78.5852 247.863 78.75 246.957 78.75H244.139V77.5H246.912C247.537 77.5 248.039 77.392 248.418 77.1761C248.796 76.9602 249.071 76.6686 249.241 76.3011C249.416 75.9299 249.503 75.5114 249.503 75.0455C249.503 74.5795 249.416 74.1629 249.241 73.7955C249.071 73.428 248.795 73.1402 248.412 72.9318C248.029 72.7197 247.522 72.6136 246.889 72.6136H244.412V83H243.003ZM253.159 83V71.3636H254.568V76.5455H260.773V71.3636H262.182V83H260.773V77.7955H254.568V83H253.159ZM264.003 71.3636H265.616L268.844 76.7955H268.98L272.207 71.3636H273.821L269.616 78.2045V83H268.207V78.2045L264.003 71.3636ZM282.007 74.2727C281.939 73.697 281.662 73.25 281.178 72.9318C280.693 72.6136 280.098 72.4545 279.393 72.4545C278.878 72.4545 278.428 72.5379 278.041 72.7045C277.659 72.8712 277.359 73.1004 277.143 73.392C276.931 73.6837 276.825 74.0152 276.825 74.3864C276.825 74.697 276.899 74.964 277.047 75.1875C277.198 75.4072 277.392 75.5909 277.626 75.7386C277.861 75.8826 278.107 76.0019 278.365 76.0966C278.623 76.1875 278.859 76.2614 279.075 76.3182L280.257 76.6364C280.56 76.7159 280.897 76.8258 281.268 76.9659C281.643 77.1061 282.001 77.2973 282.342 77.5398C282.687 77.7784 282.971 78.0852 283.195 78.4602C283.418 78.8352 283.53 79.2955 283.53 79.8409C283.53 80.4697 283.365 81.0379 283.036 81.5455C282.71 82.053 282.232 82.4564 281.604 82.7557C280.979 83.0549 280.219 83.2045 279.325 83.2045C278.492 83.2045 277.77 83.0701 277.161 82.8011C276.554 82.5322 276.077 82.1572 275.729 81.6761C275.384 81.1951 275.189 80.6364 275.143 80H276.598C276.636 80.4394 276.784 80.803 277.041 81.0909C277.303 81.375 277.632 81.5871 278.03 81.7273C278.431 81.8636 278.863 81.9318 279.325 81.9318C279.863 81.9318 280.346 81.8447 280.774 81.6705C281.202 81.4924 281.541 81.2462 281.791 80.9318C282.041 80.6136 282.166 80.2424 282.166 79.8182C282.166 79.4318 282.058 79.1174 281.842 78.875C281.626 78.6326 281.342 78.4356 280.99 78.2841C280.638 78.1326 280.257 78 279.848 77.8864L278.416 77.4773C277.507 77.2159 276.787 76.8428 276.257 76.358C275.727 75.8731 275.462 75.2386 275.462 74.4545C275.462 73.803 275.638 73.2348 275.99 72.75C276.346 72.2614 276.823 71.8826 277.422 71.6136C278.024 71.3409 278.696 71.2045 279.439 71.2045C280.189 71.2045 280.856 71.339 281.439 71.608C282.022 71.8731 282.484 72.2367 282.825 72.6989C283.17 73.161 283.352 73.6856 283.371 74.2727H282.007ZM287.256 71.3636V83H285.847V71.3636H287.256Z" fill="#140F00"/>
<path d="M374.75 92L464.25 92L509 169.5L464.25 247H374.75L330 169.5L374.75 92Z" fill="#848175" fill-opacity="0.4"/>
<path d="M463.962 92.5L508.423 169.5L463.962 246.5H375.038L330.576 169.5L375.038 92.5H463.962Z" stroke="#848175" stroke-opacity="0.9"/>
<path d="M407.136 175.159C406.386 175.159 405.718 175.03 405.131 174.773C404.547 174.515 404.083 174.157 403.739 173.699C403.398 173.237 403.212 172.701 403.182 172.091H404.614C404.644 172.466 404.773 172.79 405 173.062C405.227 173.331 405.525 173.54 405.892 173.688C406.259 173.835 406.667 173.909 407.114 173.909C407.614 173.909 408.057 173.822 408.443 173.648C408.83 173.473 409.133 173.231 409.352 172.92C409.572 172.61 409.682 172.25 409.682 171.841C409.682 171.413 409.576 171.036 409.364 170.71C409.152 170.381 408.841 170.123 408.432 169.938C408.023 169.752 407.523 169.659 406.932 169.659H406V168.409H406.932C407.394 168.409 407.799 168.326 408.148 168.159C408.5 167.992 408.775 167.758 408.972 167.455C409.172 167.152 409.273 166.795 409.273 166.386C409.273 165.992 409.186 165.65 409.011 165.358C408.837 165.066 408.591 164.839 408.273 164.676C407.958 164.513 407.587 164.432 407.159 164.432C406.758 164.432 406.379 164.506 406.023 164.653C405.67 164.797 405.383 165.008 405.159 165.284C404.936 165.557 404.814 165.886 404.795 166.273H403.432C403.455 165.663 403.638 165.129 403.983 164.67C404.328 164.208 404.778 163.848 405.335 163.591C405.896 163.333 406.511 163.205 407.182 163.205C407.902 163.205 408.519 163.35 409.034 163.642C409.549 163.93 409.945 164.311 410.222 164.784C410.498 165.258 410.636 165.769 410.636 166.318C410.636 166.973 410.464 167.532 410.119 167.994C409.778 168.456 409.314 168.777 408.727 168.955V169.045C409.462 169.167 410.036 169.479 410.449 169.983C410.862 170.483 411.068 171.102 411.068 171.841C411.068 172.473 410.896 173.042 410.551 173.545C410.21 174.045 409.744 174.439 409.153 174.727C408.563 175.015 407.89 175.159 407.136 175.159ZM413.597 175V163.364H415.006V173.75H420.415V175H413.597ZM424.006 163.364V175H422.597V163.364H424.006ZM430.422 175H426.831V163.364H430.581C431.71 163.364 432.676 163.597 433.479 164.062C434.282 164.525 434.897 165.189 435.325 166.057C435.753 166.92 435.967 167.955 435.967 169.159C435.967 170.371 435.751 171.415 435.32 172.29C434.888 173.161 434.259 173.831 433.433 174.301C432.607 174.767 431.604 175 430.422 175ZM428.24 173.75H430.331C431.293 173.75 432.09 173.564 432.723 173.193C433.356 172.822 433.827 172.294 434.138 171.608C434.448 170.922 434.604 170.106 434.604 169.159C434.604 168.22 434.45 167.411 434.143 166.733C433.837 166.051 433.378 165.528 432.768 165.165C432.159 164.797 431.399 164.614 430.49 164.614H428.24V173.75Z" fill="#140F00"/>
<path d="M463.962 283.5L508.423 360.5L463.962 437.5H375.038L330.576 360.5L375.038 283.5H463.962Z" fill="#FFBA0A" fill-opacity="0.4" stroke="#FFBA0A"/>
<path d="M393.932 363.614V362.455L399.045 354.364H399.886V356.159H399.318L395.455 362.273V362.364H402.341V363.614H393.932ZM399.409 366V363.261V362.722V354.364H400.75V366H399.409ZM404.038 355.614V354.364H412.766V355.614H409.107V366H407.697V355.614H404.038ZM414.94 366V354.364H421.963V355.614H416.349V359.545H421.599V360.795H416.349V364.75H422.054V366H414.94ZM433.866 358H432.457C432.374 357.595 432.228 357.239 432.02 356.932C431.815 356.625 431.565 356.367 431.27 356.159C430.978 355.947 430.654 355.788 430.298 355.682C429.942 355.576 429.571 355.523 429.185 355.523C428.48 355.523 427.842 355.701 427.27 356.057C426.702 356.413 426.249 356.938 425.912 357.631C425.579 358.324 425.412 359.174 425.412 360.182C425.412 361.189 425.579 362.04 425.912 362.733C426.249 363.426 426.702 363.951 427.27 364.307C427.842 364.663 428.48 364.841 429.185 364.841C429.571 364.841 429.942 364.788 430.298 364.682C430.654 364.576 430.978 364.419 431.27 364.21C431.565 363.998 431.815 363.739 432.02 363.432C432.228 363.121 432.374 362.765 432.457 362.364H433.866C433.76 362.958 433.567 363.491 433.287 363.96C433.007 364.43 432.658 364.83 432.241 365.159C431.825 365.485 431.357 365.733 430.838 365.903C430.323 366.074 429.772 366.159 429.185 366.159C428.192 366.159 427.31 365.917 426.537 365.432C425.764 364.947 425.156 364.258 424.713 363.364C424.27 362.47 424.048 361.409 424.048 360.182C424.048 358.955 424.27 357.894 424.713 357C425.156 356.106 425.764 355.417 426.537 354.932C427.31 354.447 428.192 354.205 429.185 354.205C429.772 354.205 430.323 354.29 430.838 354.46C431.357 354.631 431.825 354.881 432.241 355.21C432.658 355.536 433.007 355.934 433.287 356.403C433.567 356.869 433.76 357.402 433.866 358ZM436.143 366V354.364H437.553V359.545H443.757V354.364H445.166V366H443.757V360.795H437.553V366H436.143Z" fill="#140F00"/>
<path d="M210.75 188L300.25 188L345 265.5L300.25 343H210.75L166 265.5L210.75 188Z" fill="#FFFAEB"/>
<path d="M299.962 188.5L344.423 265.5L299.962 342.5H211.038L166.576 265.5L211.038 188.5H299.962Z" stroke="#140F00" stroke-opacity="0.3"/>
<path d="M210.409 259.364H212.091L216.045 269.023H216.182L220.136 259.364H221.818V271H220.5V262.159H220.386L216.75 271H215.477L211.841 262.159H211.727V271H210.409V259.364ZM228.121 271.182C227.28 271.182 226.554 270.996 225.945 270.625C225.339 270.25 224.871 269.727 224.541 269.057C224.215 268.383 224.053 267.598 224.053 266.705C224.053 265.811 224.215 265.023 224.541 264.341C224.871 263.655 225.329 263.121 225.916 262.739C226.507 262.352 227.196 262.159 227.984 262.159C228.439 262.159 228.888 262.235 229.331 262.386C229.774 262.538 230.178 262.784 230.541 263.125C230.905 263.462 231.195 263.909 231.411 264.466C231.626 265.023 231.734 265.708 231.734 266.523V267.091H225.007V265.932H230.371C230.371 265.439 230.272 265 230.075 264.614C229.882 264.227 229.606 263.922 229.246 263.699C228.89 263.475 228.469 263.364 227.984 263.364C227.45 263.364 226.988 263.496 226.598 263.761C226.212 264.023 225.914 264.364 225.706 264.784C225.498 265.205 225.393 265.655 225.393 266.136V266.909C225.393 267.568 225.507 268.127 225.734 268.585C225.965 269.04 226.286 269.386 226.695 269.625C227.104 269.86 227.579 269.977 228.121 269.977C228.473 269.977 228.791 269.928 229.075 269.83C229.363 269.727 229.611 269.576 229.82 269.375C230.028 269.17 230.189 268.917 230.303 268.614L231.598 268.977C231.462 269.417 231.232 269.803 230.911 270.136C230.589 270.466 230.191 270.723 229.717 270.909C229.244 271.091 228.712 271.182 228.121 271.182ZM239.956 264.227L238.751 264.568C238.676 264.367 238.564 264.172 238.416 263.983C238.272 263.79 238.075 263.631 237.825 263.506C237.575 263.381 237.255 263.318 236.865 263.318C236.331 263.318 235.886 263.441 235.53 263.688C235.178 263.93 235.001 264.239 235.001 264.614C235.001 264.947 235.123 265.21 235.365 265.403C235.607 265.597 235.986 265.758 236.501 265.886L237.797 266.205C238.577 266.394 239.159 266.684 239.541 267.074C239.924 267.46 240.115 267.958 240.115 268.568C240.115 269.068 239.971 269.515 239.683 269.909C239.399 270.303 239.001 270.614 238.49 270.841C237.979 271.068 237.384 271.182 236.706 271.182C235.816 271.182 235.079 270.989 234.496 270.602C233.912 270.216 233.543 269.652 233.388 268.909L234.661 268.591C234.782 269.061 235.011 269.413 235.348 269.648C235.689 269.883 236.134 270 236.683 270C237.308 270 237.804 269.867 238.172 269.602C238.543 269.333 238.729 269.011 238.729 268.636C238.729 268.333 238.623 268.08 238.411 267.875C238.198 267.667 237.873 267.511 237.433 267.409L235.979 267.068C235.179 266.879 234.592 266.585 234.217 266.188C233.846 265.786 233.661 265.284 233.661 264.682C233.661 264.189 233.799 263.754 234.075 263.375C234.356 262.996 234.736 262.699 235.217 262.483C235.702 262.267 236.251 262.159 236.865 262.159C237.729 262.159 238.407 262.348 238.899 262.727C239.395 263.106 239.748 263.606 239.956 264.227ZM250.179 271.182C249.361 271.182 248.656 270.989 248.065 270.602C247.474 270.216 247.02 269.684 246.702 269.006C246.384 268.328 246.224 267.553 246.224 266.682C246.224 265.795 246.387 265.013 246.713 264.335C247.043 263.653 247.501 263.121 248.088 262.739C248.679 262.352 249.368 262.159 250.156 262.159C250.77 262.159 251.323 262.273 251.815 262.5C252.308 262.727 252.711 263.045 253.026 263.455C253.34 263.864 253.535 264.341 253.611 264.886H252.27C252.168 264.489 251.94 264.136 251.588 263.83C251.24 263.519 250.77 263.364 250.179 263.364C249.656 263.364 249.198 263.5 248.804 263.773C248.414 264.042 248.109 264.422 247.889 264.915C247.673 265.403 247.565 265.977 247.565 266.636C247.565 267.311 247.671 267.898 247.884 268.398C248.099 268.898 248.402 269.286 248.793 269.562C249.187 269.839 249.649 269.977 250.179 269.977C250.527 269.977 250.844 269.917 251.128 269.795C251.412 269.674 251.652 269.5 251.849 269.273C252.046 269.045 252.187 268.773 252.27 268.455H253.611C253.535 268.97 253.348 269.434 253.048 269.847C252.753 270.256 252.361 270.581 251.872 270.824C251.387 271.062 250.823 271.182 250.179 271.182ZM256.912 259.364V271H255.571V259.364H256.912ZM261.936 271.205C261.383 271.205 260.881 271.1 260.43 270.892C259.98 270.68 259.622 270.375 259.357 269.977C259.091 269.576 258.959 269.091 258.959 268.523C258.959 268.023 259.057 267.617 259.254 267.307C259.451 266.992 259.714 266.746 260.044 266.568C260.374 266.39 260.737 266.258 261.135 266.17C261.536 266.08 261.94 266.008 262.345 265.955C262.875 265.886 263.305 265.835 263.635 265.801C263.968 265.763 264.211 265.701 264.362 265.614C264.518 265.527 264.595 265.375 264.595 265.159V265.114C264.595 264.553 264.442 264.117 264.135 263.807C263.832 263.496 263.372 263.341 262.754 263.341C262.114 263.341 261.612 263.481 261.249 263.761C260.885 264.042 260.629 264.341 260.482 264.659L259.209 264.205C259.436 263.674 259.739 263.261 260.118 262.966C260.5 262.667 260.917 262.458 261.368 262.341C261.822 262.22 262.269 262.159 262.709 262.159C262.989 262.159 263.311 262.193 263.675 262.261C264.042 262.326 264.396 262.46 264.737 262.665C265.082 262.869 265.368 263.178 265.595 263.591C265.822 264.004 265.936 264.557 265.936 265.25V271H264.595V269.818H264.527C264.436 270.008 264.285 270.21 264.072 270.426C263.86 270.642 263.578 270.826 263.226 270.977C262.874 271.129 262.444 271.205 261.936 271.205ZM262.141 270C262.671 270 263.118 269.896 263.482 269.688C263.849 269.479 264.125 269.21 264.311 268.881C264.5 268.551 264.595 268.205 264.595 267.841V266.614C264.538 266.682 264.413 266.744 264.22 266.801C264.031 266.854 263.811 266.902 263.561 266.943C263.315 266.981 263.074 267.015 262.839 267.045C262.608 267.072 262.421 267.095 262.277 267.114C261.929 267.159 261.603 267.233 261.3 267.335C261 267.434 260.758 267.583 260.572 267.784C260.391 267.981 260.3 268.25 260.3 268.591C260.3 269.057 260.472 269.409 260.817 269.648C261.165 269.883 261.607 270 262.141 270ZM274.565 264.227L273.361 264.568C273.285 264.367 273.173 264.172 273.026 263.983C272.882 263.79 272.685 263.631 272.435 263.506C272.185 263.381 271.865 263.318 271.474 263.318C270.94 263.318 270.495 263.441 270.139 263.688C269.787 263.93 269.611 264.239 269.611 264.614C269.611 264.947 269.732 265.21 269.974 265.403C270.217 265.597 270.596 265.758 271.111 265.886L272.406 266.205C273.187 266.394 273.768 266.684 274.151 267.074C274.533 267.46 274.724 267.958 274.724 268.568C274.724 269.068 274.58 269.515 274.293 269.909C274.009 270.303 273.611 270.614 273.099 270.841C272.588 271.068 271.993 271.182 271.315 271.182C270.425 271.182 269.688 270.989 269.105 270.602C268.522 270.216 268.152 269.652 267.997 268.909L269.27 268.591C269.391 269.061 269.62 269.413 269.957 269.648C270.298 269.883 270.743 270 271.293 270C271.918 270 272.414 269.867 272.781 269.602C273.152 269.333 273.338 269.011 273.338 268.636C273.338 268.333 273.232 268.08 273.02 267.875C272.808 267.667 272.482 267.511 272.043 267.409L270.588 267.068C269.789 266.879 269.202 266.585 268.827 266.188C268.455 265.786 268.27 265.284 268.27 264.682C268.27 264.189 268.408 263.754 268.685 263.375C268.965 262.996 269.346 262.699 269.827 262.483C270.312 262.267 270.861 262.159 271.474 262.159C272.338 262.159 273.016 262.348 273.509 262.727C274.005 263.106 274.357 263.606 274.565 264.227ZM282.925 264.227L281.72 264.568C281.644 264.367 281.533 264.172 281.385 263.983C281.241 263.79 281.044 263.631 280.794 263.506C280.544 263.381 280.224 263.318 279.834 263.318C279.3 263.318 278.855 263.441 278.499 263.688C278.146 263.93 277.97 264.239 277.97 264.614C277.97 264.947 278.091 265.21 278.334 265.403C278.576 265.597 278.955 265.758 279.47 265.886L280.766 266.205C281.546 266.394 282.127 266.684 282.51 267.074C282.893 267.46 283.084 267.958 283.084 268.568C283.084 269.068 282.94 269.515 282.652 269.909C282.368 270.303 281.97 270.614 281.459 270.841C280.947 271.068 280.353 271.182 279.675 271.182C278.785 271.182 278.048 270.989 277.464 270.602C276.881 270.216 276.512 269.652 276.357 268.909L277.629 268.591C277.75 269.061 277.98 269.413 278.317 269.648C278.658 269.883 279.103 270 279.652 270C280.277 270 280.773 269.867 281.141 269.602C281.512 269.333 281.697 269.011 281.697 268.636C281.697 268.333 281.591 268.08 281.379 267.875C281.167 267.667 280.841 267.511 280.402 267.409L278.947 267.068C278.148 266.879 277.561 266.585 277.186 266.188C276.815 265.786 276.629 265.284 276.629 264.682C276.629 264.189 276.768 263.754 277.044 263.375C277.324 262.996 277.705 262.699 278.186 262.483C278.671 262.267 279.22 262.159 279.834 262.159C280.697 262.159 281.375 262.348 281.868 262.727C282.364 263.106 282.716 263.606 282.925 264.227ZM288.761 271.182C287.92 271.182 287.195 270.996 286.585 270.625C285.979 270.25 285.511 269.727 285.182 269.057C284.856 268.383 284.693 267.598 284.693 266.705C284.693 265.811 284.856 265.023 285.182 264.341C285.511 263.655 285.97 263.121 286.557 262.739C287.148 262.352 287.837 262.159 288.625 262.159C289.08 262.159 289.528 262.235 289.972 262.386C290.415 262.538 290.818 262.784 291.182 263.125C291.545 263.462 291.835 263.909 292.051 264.466C292.267 265.023 292.375 265.708 292.375 266.523V267.091H285.648V265.932H291.011C291.011 265.439 290.913 265 290.716 264.614C290.523 264.227 290.246 263.922 289.886 263.699C289.53 263.475 289.11 263.364 288.625 263.364C288.091 263.364 287.629 263.496 287.239 263.761C286.852 264.023 286.555 264.364 286.347 264.784C286.138 265.205 286.034 265.655 286.034 266.136V266.909C286.034 267.568 286.148 268.127 286.375 268.585C286.606 269.04 286.926 269.386 287.335 269.625C287.744 269.86 288.22 269.977 288.761 269.977C289.114 269.977 289.432 269.928 289.716 269.83C290.004 269.727 290.252 269.576 290.46 269.375C290.669 269.17 290.83 268.917 290.943 268.614L292.239 268.977C292.102 269.417 291.873 269.803 291.551 270.136C291.229 270.466 290.831 270.723 290.358 270.909C289.884 271.091 289.352 271.182 288.761 271.182ZM300.597 264.227L299.392 264.568C299.316 264.367 299.205 264.172 299.057 263.983C298.913 263.79 298.716 263.631 298.466 263.506C298.216 263.381 297.896 263.318 297.506 263.318C296.972 263.318 296.527 263.441 296.17 263.688C295.818 263.93 295.642 264.239 295.642 264.614C295.642 264.947 295.763 265.21 296.006 265.403C296.248 265.597 296.627 265.758 297.142 265.886L298.438 266.205C299.218 266.394 299.799 266.684 300.182 267.074C300.564 267.46 300.756 267.958 300.756 268.568C300.756 269.068 300.612 269.515 300.324 269.909C300.04 270.303 299.642 270.614 299.131 270.841C298.619 271.068 298.025 271.182 297.347 271.182C296.456 271.182 295.72 270.989 295.136 270.602C294.553 270.216 294.184 269.652 294.028 268.909L295.301 268.591C295.422 269.061 295.652 269.413 295.989 269.648C296.33 269.883 296.775 270 297.324 270C297.949 270 298.445 269.867 298.812 269.602C299.184 269.333 299.369 269.011 299.369 268.636C299.369 268.333 299.263 268.08 299.051 267.875C298.839 267.667 298.513 267.511 298.074 267.409L296.619 267.068C295.82 266.879 295.233 266.585 294.858 266.188C294.487 265.786 294.301 265.284 294.301 264.682C294.301 264.189 294.439 263.754 294.716 263.375C294.996 262.996 295.377 262.699 295.858 262.483C296.343 262.267 296.892 262.159 297.506 262.159C298.369 262.159 299.047 262.348 299.54 262.727C300.036 263.106 300.388 263.606 300.597 264.227Z" fill="#140F00"/>
</svg>
