<svg width="768" height="915" viewBox="0 0 768 915" fill="none" xmlns="http://www.w3.org/2000/svg">
<path d="M4.58594 78.4913V113.265L33.8633 130.641L63.1396 113.265V78.4913L33.8633 61.1154L4.58594 78.4913Z" stroke="#FFBA0A"/>
<path d="M4.58594 199.56V234.333L33.8633 251.709L63.1396 234.333V199.56L33.8633 182.184L4.58594 199.56Z" stroke="#FFBA0A"/>
<path d="M4.58691 320.526V355.299L33.8643 372.675L63.1406 355.299V320.526L33.8643 303.15L4.58691 320.526Z" stroke="#FFBA0A"/>
<path d="M4.58691 440.929V475.702L33.8643 493.078L63.1406 475.702V440.929L33.8643 423.553L4.58691 440.929Z" stroke="#FFBA0A"/>
<path d="M4.58691 561.331V596.105L33.8643 613.481L63.1406 596.105V561.331L33.8643 543.955L4.58691 561.331Z" stroke="#FFBA0A"/>
<path d="M4.58691 681.734V716.508L33.8643 733.884L63.1406 716.508V681.734L33.8643 664.358L4.58691 681.734Z" stroke="#FFBA0A"/>
<path d="M4.58691 801.734V836.508L33.8643 853.884L63.1406 836.508V801.734L33.8643 784.358L4.58691 801.734Z" stroke="#FFBA0A"/>
<path d="M-29.5 17.957V52.7305L-0.222656 70.1064L29.0537 52.7305V17.957L-0.222656 0.581055L-29.5 17.957Z" stroke="#FFBA0A"/>
<path d="M-29.5 139.026V173.799L-0.222656 191.175L29.0537 173.799V139.026L-0.222656 121.65L-29.5 139.026Z" stroke="#FFBA0A"/>
<path d="M-29.5 260.094V294.868L-0.222656 312.244L29.0537 294.868V260.094L-0.222656 242.718L-29.5 260.094Z" stroke="#FFBA0A"/>
<path d="M-29.5 381.06V415.834L-0.222656 433.21L29.0537 415.834V381.06L-0.222656 363.684L-29.5 381.06Z" stroke="#FFBA0A"/>
<path d="M-29.5 501.463V536.236L-0.222656 553.612L29.0537 536.236V501.463L-0.222656 484.087L-29.5 501.463Z" stroke="#FFBA0A"/>
<path d="M-29.5 621.866V656.639L-0.222656 674.015L29.0537 656.639V621.866L-0.222656 604.49L-29.5 621.866Z" stroke="#FFBA0A"/>
<path d="M-29.5 742.269V777.042L-0.222656 794.418L29.0537 777.042V742.269L-0.222656 724.893L-29.5 742.269Z" stroke="#FFBA0A"/>
<path d="M-29.5 862.269V897.042L-0.222656 914.418L29.0537 897.042V862.269L-0.222656 844.893L-29.5 862.269Z" stroke="#FFBA0A"/>
<path d="M763.055 78.4913V113.265L733.777 130.641L704.501 113.265V78.4913L733.777 61.1154L763.055 78.4913Z" stroke="#FFBA0A"/>
<path d="M763.055 199.56V234.333L733.777 251.709L704.501 234.333V199.56L733.777 182.184L763.055 199.56Z" stroke="#FFBA0A"/>
<path d="M763.054 320.526V355.299L733.776 372.675L704.5 355.299V320.526L733.776 303.15L763.054 320.526Z" stroke="#FFBA0A"/>
<path d="M763.054 440.929V475.702L733.776 493.078L704.5 475.702V440.929L733.776 423.553L763.054 440.929Z" stroke="#FFBA0A"/>
<path d="M763.054 561.331V596.105L733.776 613.481L704.5 596.105V561.331L733.776 543.955L763.054 561.331Z" stroke="#FFBA0A"/>
<path d="M763.054 681.734V716.508L733.776 733.884L704.5 716.508V681.734L733.776 664.358L763.054 681.734Z" stroke="#FFBA0A"/>
<path d="M763.054 801.734V836.508L733.776 853.884L704.5 836.508V801.734L733.776 784.358L763.054 801.734Z" stroke="#FFBA0A"/>
<path d="M797.141 17.957V52.7305L767.863 70.1064L738.587 52.7305V17.957L767.863 0.581055L797.141 17.957Z" stroke="#FFBA0A"/>
<path d="M797.141 139.026V173.799L767.863 191.175L738.587 173.799V139.026L767.863 121.65L797.141 139.026Z" stroke="#FFBA0A"/>
<path d="M797.141 260.094V294.868L767.863 312.244L738.587 294.868V260.094L767.863 242.718L797.141 260.094Z" stroke="#FFBA0A"/>
<path d="M797.141 381.06V415.834L767.863 433.21L738.587 415.834V381.06L767.863 363.684L797.141 381.06Z" stroke="#FFBA0A"/>
<path d="M797.141 501.463V536.236L767.863 553.612L738.587 536.236V501.463L767.863 484.087L797.141 501.463Z" stroke="#FFBA0A"/>
<path d="M797.141 621.866V656.639L767.863 674.015L738.587 656.639V621.866L767.863 604.49L797.141 621.866Z" stroke="#FFBA0A"/>
<path d="M797.141 742.269V777.042L767.863 794.418L738.587 777.042V742.269L767.863 724.893L797.141 742.269Z" stroke="#FFBA0A"/>
<path d="M797.141 862.269V897.042L767.863 914.418L738.587 897.042V862.269L767.863 844.893L797.141 862.269Z" stroke="#FFBA0A"/>
</svg>
