<svg width="375" height="650" viewBox="0 0 375 650" fill="none" xmlns="http://www.w3.org/2000/svg">
<path d="M30.5 19.3615V56.8312L-1 75.5539L-32.5 56.8312V19.3615L-1 0.638855L30.5 19.3615Z" stroke="#FFBA0A"/>
<path d="M410.5 19.3615V56.8312L379 75.5539L347.5 56.8312V19.3615L379 0.638855L410.5 19.3615Z" stroke="#FFBA0A"/>
<path d="M31.5 592.953V630.423L0 649.145L-31.5 630.423V592.953L0 574.23L31.5 592.953Z" stroke="#FFBA0A"/>
<path d="M67.5 526.885V564.354L36 583.077L4.5 564.354V526.885L36 508.162L67.5 526.885Z" stroke="#FFBA0A"/>
<path d="M31.5 460.817V498.286L0 517.009L-31.5 498.286V460.817L0 442.094L31.5 460.817Z" stroke="#FFBA0A"/>
<path d="M406.5 592.953V630.423L375 649.145L343.5 630.423V592.953L375 574.23L406.5 592.953Z" stroke="#FFBA0A"/>
<path d="M307.5 525.884V563.353L339 582.076L370.5 563.353V525.884L339 507.161L307.5 525.884Z" stroke="#FFBA0A"/>
<path d="M350.5 460.817V498.286L382 517.009L413.5 498.286V460.817L382 442.094L350.5 460.817Z" stroke="#FFBA0A"/>
</svg>
