<svg width="1920" height="875" viewBox="0 0 1920 875" fill="none" xmlns="http://www.w3.org/2000/svg">
<path d="M1911.24 158.034V228.758L1851.87 264.108L1792.5 228.758V158.034L1851.87 122.685L1911.24 158.034Z" stroke="#FFBA0A"/>
<path d="M1911.24 402.242V472.965L1851.87 508.315L1792.5 472.965V402.242L1851.87 366.892L1911.24 402.242Z" stroke="#FFBA0A"/>
<path d="M1911.24 646.241V716.965L1851.87 752.315L1792.5 716.965V646.241L1851.87 610.892L1911.24 646.241Z" stroke="#FFBA0A"/>
<path d="M1979.78 35.9307V106.654L1920.41 142.004L1861.04 106.654V35.9307L1920.41 0.581055L1979.78 35.9307Z" stroke="#FFBA0A"/>
<path d="M1979.78 280.138V350.862L1920.41 386.211L1861.04 350.862V280.138L1920.41 244.788L1979.78 280.138Z" stroke="#FFBA0A"/>
<path d="M1979.78 524.345V595.069L1920.41 630.418L1861.04 595.069V524.345L1920.41 488.996L1979.78 524.345Z" stroke="#FFBA0A"/>
<path d="M1979.78 768.345V839.069L1920.41 874.418L1861.04 839.069V768.345L1920.41 732.996L1979.78 768.345Z" stroke="#FFBA0A"/>
<path d="M9.03564 158.034V228.758L68.4058 264.108L127.776 228.758V158.034L68.4058 122.685L9.03564 158.034Z" stroke="#FFBA0A"/>
<path d="M9.03564 402.242V472.965L68.4058 508.315L127.776 472.965V402.242L68.4058 366.892L9.03564 402.242Z" stroke="#FFBA0A"/>
<path d="M9.03564 646.241V716.965L68.4058 752.315L127.776 716.965V646.241L68.4058 610.892L9.03564 646.241Z" stroke="#FFBA0A"/>
<path d="M-59.5 35.9307V106.654L-0.129883 142.004L59.2402 106.654V35.9307L-0.129883 0.581055L-59.5 35.9307Z" stroke="#FFBA0A"/>
<path d="M-59.5 280.138V350.862L-0.129883 386.211L59.2402 350.862V280.138L-0.129883 244.788L-59.5 280.138Z" stroke="#FFBA0A"/>
<path d="M-59.5 524.345V595.069L-0.129883 630.418L59.2402 595.069V524.345L-0.129883 488.996L-59.5 524.345Z" stroke="#FFBA0A"/>
<path d="M-59.5 768.345V839.069L-0.129883 874.418L59.2402 839.069V768.345L-0.129883 732.996L-59.5 768.345Z" stroke="#FFBA0A"/>
</svg>
