<?xml version="1.0" encoding="UTF-8"?>
<svg xmlns="http://www.w3.org/2000/svg" viewBox="0 0 568 551">
  <defs>
    <style>
      .cls-1 {
        stroke-miterlimit: 4;
        stroke-width: 1px;
      }

      .cls-1, .cls-2, .cls-3, .cls-4, .cls-5 {
        fill: none;
      }

      .cls-1, .cls-3, .cls-4, .cls-6 {
        stroke: #ffba0a;
      }

      .cls-7, .cls-8 {
        fill: #100700;
      }

      .cls-2, .cls-8, .cls-5 {
        isolation: isolate;
      }

      .cls-2, .cls-5 {
        stroke: #100700;
        stroke-linecap: round;
        stroke-width: 8px;
      }

      .cls-3 {
        stroke-miterlimit: 4;
        stroke-width: 1px;
      }

      .cls-9 {
        fill: #ffba0a;
      }

      .cls-6 {
        fill: rgba(255, 186, 10, .4);
      }

      .cls-8, .cls-5, .cls-10 {
        opacity: .7;
      }
    </style>
  </defs>
  <g id="End">
    <g id="Hex-final-6">
      <path class="cls-9" d="M76,185l76,45.25v90.5l-76,45.25L0,320.75v-90.5l76-45.25Z"/>
      <path class="cls-4" d="M151.5,230.53v89.93l-75.5,44.95L.5,320.47v-89.93l75.5-44.95,75.5,44.95Z"/>
    </g>
    <g id="Hex-final-5">
      <path class="cls-9" d="M176,370l76,45.25v90.5l-76,45.25-76-45.25v-90.5l76-45.25Z"/>
      <path class="cls-4" d="M251.5,415.53v89.93l-75.5,44.95-75.5-44.95v-89.93l75.5-44.95,75.5,44.95Z"/>
    </g>
    <g id="Hex-final-4">
      <path class="cls-9" d="M392,370l76,45.25v90.5l-76,45.25-76-45.25v-90.5l76-45.25Z"/>
      <path class="cls-4" d="M467.5,415.53v89.93l-75.5,44.95-75.5-44.95v-89.93l75.5-44.95,75.5,44.95Z"/>
    </g>
    <g id="Hex-final-3">
      <path class="cls-9" d="M492,185l76,45.25v90.5l-76,45.25-76-45.25v-90.5l76-45.25Z"/>
      <path class="cls-4" d="M567.5,230.53v89.93l-75.5,44.95-75.5-44.95v-89.93l75.5-44.95,75.5,44.95Z"/>
    </g>
    <g id="Hex-final-2">
      <path class="cls-9" d="M392,0l76,45.25v90.5l-76,45.25-76-45.25V45.25L392,0Z"/>
      <path class="cls-4" d="M467.5,45.54v89.93l-75.5,44.95-75.5-44.95V45.54L392,.58l75.5,44.95Z"/>
    </g>
    <g id="Hex-final-1">
      <path class="cls-9" d="M176,0l76,45.25v90.5l-76,45.25-76-45.25V45.25L176,0Z"/>
      <path class="cls-4" d="M251.5,45.54v89.93l-75.5,44.95-75.5-44.95V45.54L176,.58l75.5,44.95Z"/>
    </g>
    <g id="Btn-final">
      <path class="cls-9" d="M284,185l76,45.25v90.5l-76,45.25-76-45.25v-90.5l76-45.25Z"/>
      <path class="cls-4" d="M359.5,230.53v89.93l-75.5,44.95-75.5-44.95v-89.93l75.5-44.95,75.5,44.95Z"/>
    </g>
    <line id="Line6" class="cls-4" x1="210.16" y1="275.5" x2="150.16" y2="275.5"/>
    <line id="Line5" class="cls-4" x1="245.49" y1="342.5" x2="215.16" y2="394.26"/>
    <line id="Line4" class="cls-1" x1="322.1" y1="342.5" x2="352.44" y2="394.26"/>
    <line id="Line3" class="cls-4" x1="358.43" y1="275.5" x2="418.43" y2="275.5"/>
    <line id="Line2" class="cls-3" x1="322.58" y1="208.31" x2="355.41" y2="158.08"/>
    <line id="Line1" class="cls-4" x1="247.01" y1="207.31" x2="214.73" y2="157.92"/>
    <g id="Face6">
      <ellipse class="cls-8" cx="44" cy="271.5" rx="7" ry="13.5"/>
      <ellipse class="cls-8" cx="109" cy="271.5" rx="7" ry="13.5"/>
      <path class="cls-5" d="M63,287c9.56,7.96,16.25,8.04,27,0"/>
    </g>
    <g id="Face5">
      <ellipse class="cls-8" cx="144" cy="456.5" rx="7" ry="13.5"/>
      <ellipse class="cls-8" cx="209" cy="456.5" rx="7" ry="13.5"/>
      <path class="cls-5" d="M163,472c9.56,7.96,16.25,8.04,27,0"/>
    </g>
    <g id="Face4">
      <ellipse class="cls-8" cx="360" cy="456.5" rx="7" ry="13.5"/>
      <ellipse class="cls-8" cx="425" cy="456.5" rx="7" ry="13.5"/>
      <path class="cls-5" d="M379,472c9.56,7.96,16.25,8.04,27,0"/>
    </g>
    <g id="Face3">
      <ellipse class="cls-8" cx="460" cy="271.5" rx="7" ry="13.5"/>
      <ellipse class="cls-8" cx="525" cy="271.5" rx="7" ry="13.5"/>
      <path class="cls-5" d="M479,287c9.56,7.96,16.25,8.04,27,0"/>
    </g>
    <g id="Face2">
      <ellipse class="cls-8" cx="360" cy="86.5" rx="7" ry="13.5"/>
      <ellipse class="cls-8" cx="425" cy="86.5" rx="7" ry="13.5"/>
      <path class="cls-5" d="M379,102c9.56,7.96,16.25,8.04,27,0"/>
    </g>
    <g id="Face1" class="cls-10">
      <path class="cls-7" d="M151,86.5c0,7.46-3.13,13.5-7,13.5s-7-6.04-7-13.5,3.13-13.5,7-13.5,7,6.04,7,13.5Z"/>
      <path class="cls-7" d="M216,86.5c0,7.46-3.13,13.5-7,13.5s-7-6.04-7-13.5,3.13-13.5,7-13.5,7,6.04,7,13.5Z"/>
      <path class="cls-2" d="M163,102c9.56,7.96,16.25,8.04,27,0"/>
    </g>
  </g>
  <g id="Start">
    <path id="Hex6" class="cls-4" d="M207.5,228.04v89.93l-75.5,44.95-75.5-44.95v-89.93l75.5-44.95,75.5,44.95Z"/>
    <path id="Hex5" class="cls-4" d="M283.5,363.04v89.93l-75.5,44.95-75.5-44.95v-89.93l75.5-44.95,75.5,44.95Z"/>
    <path id="Hex4" class="cls-4" d="M435.5,363.04v89.93l-75.5,44.95-75.5-44.95v-89.93l75.5-44.95,75.5,44.95Z"/>
    <path id="Hex3" class="cls-4" d="M511.5,228.04v89.93l-75.5,44.95-75.5-44.95v-89.93l75.5-44.95,75.5,44.95Z"/>
    <path id="Hex2" class="cls-4" d="M435.5,93.04v89.93l-75.5,44.95-75.5-44.95v-89.93l75.5-44.95,75.5,44.95Z"/>
    <path id="Hex1" class="cls-4" d="M283.5,93.04v89.93l-75.5,44.95-75.5-44.95v-89.93l75.5-44.95,75.5,44.95Z"/>
    <path id="Btn" class="cls-6" d="M359.5,228.04v89.93l-75.5,44.95-75.5-44.95v-89.93l75.5-44.95,75.5,44.95Z"/>
  </g>
</svg>