<svg width="456" height="451" viewBox="0 0 456 451" fill="none" xmlns="http://www.w3.org/2000/svg">
<path d="M379.5 315.534V405.465L304 450.418L228.5 405.465V315.534L304 270.581L379.5 315.534Z" stroke="#FFBA0A"/>
<path d="M227.5 315.534V405.465L152 450.418L76.5 405.465V315.534L152 270.581L227.5 315.534Z" stroke="#FFBA0A"/>
<path d="M455.5 180.534V270.465L380 315.418L304.5 270.465V180.534L380 135.581L455.5 180.534Z" stroke="#FFBA0A"/>
<path d="M151.5 180.534V270.465L76 315.418L0.5 270.465V180.534L76 135.581L151.5 180.534Z" stroke="#FFBA0A"/>
<path d="M379.5 45.5342V135.465L304 180.418L228.5 135.465V45.5342L304 0.581055L379.5 45.5342Z" stroke="#FFBA0A"/>
<path d="M227.5 45.5342V135.465L152 180.418L76.5 135.465V45.5342L152 0.581055L227.5 45.5342Z" stroke="#FFBA0A"/>
<path d="M303.5 180.534V270.465L228 315.418L152.5 270.465V180.534L228 135.581L303.5 180.534Z" fill="#FFBA0A" fill-opacity="0.4" stroke="#FFBA0A"/>
</svg>
