<svg width="463" height="451" viewBox="0 0 463 451" fill="none" xmlns="http://www.w3.org/2000/svg">
<path d="M382.5 315.534V405.465L307 450.418L231.5 405.465V315.534L307 270.581L382.5 315.534Z" stroke="#FFBA0A"/>
<path d="M230.5 315.534V405.465L155 450.418L79.5 405.465V315.534L155 270.581L230.5 315.534Z" stroke="#FFBA0A"/>
<path d="M458.5 180.534V270.465L383 315.418L307.5 270.465V180.534L383 135.581L458.5 180.534Z" stroke="#FFBA0A"/>
<path d="M154.5 180.534V270.465L79 315.418L3.5 270.465V180.534L79 135.581L154.5 180.534Z" stroke="#FFBA0A"/>
<path d="M382.5 45.5342V135.465L307 180.418L231.5 135.465V45.5342L307 0.581055L382.5 45.5342Z" stroke="#FFBA0A"/>
<path d="M230.5 45.5342V135.465L155 180.418L79.5 135.465V45.5342L155 0.581055L230.5 45.5342Z" stroke="#FFBA0A"/>
<path d="M306.5 180.534V270.465L231 315.418L155.5 270.465V180.534L231 135.581L306.5 180.534Z" fill="#FFBA0A" fill-opacity="0.4" stroke="#FFBA0A"/>
<line x1="161.55" y1="343.424" x2="161.55" y2="343.424" stroke="#FFBA0A"/>
<line x1="268.539" y1="158.114" x2="268.539" y2="158.114" stroke="#FFBA0A"/>
<line x1="163.734" y1="106.74" x2="163.734" y2="106.74" stroke="#FFBA0A"/>
<line x1="270.089" y1="292.416" x2="270.089" y2="292.416" stroke="#FFBA0A"/>
</svg>
