<svg width="640" height="443" viewBox="0 0 640 443" fill="none" xmlns="http://www.w3.org/2000/svg">
<g clip-path="url(#clip0_200_422)">
<path d="M461.668 138.334V301.525L320.334 383.118L179 301.525V138.334L320.334 56.7402L461.668 138.334Z" fill="#F5AF00" fill-opacity="0.5" stroke="#F5AF00" stroke-width="4"/>
<path d="M320.331 56.7405V32.8591" stroke="#F5AF00"/>
<path d="M320.331 409.653V383.119" stroke="#FFBA0A"/>
<path d="M178.999 138.998L157.666 125.731" stroke="#F5AF00"/>
<path d="M483 125.731L461.667 138.998" stroke="#F5AF00"/>
<path d="M176.333 300.861L155 314.128" stroke="#F5AF00"/>
<path d="M480.333 314.128L459 300.861" stroke="#F5AF00"/>
<path opacity="0.8" d="M238.998 247.791C248.571 247.791 256.332 233.535 256.332 215.95C256.332 198.364 248.571 184.108 238.998 184.108C229.425 184.108 221.665 198.364 221.665 215.95C221.665 233.535 229.425 247.791 238.998 247.791Z" fill="#100700"/>
<path opacity="0.8" d="M401.669 247.791C411.242 247.791 419.003 233.535 419.003 215.95C419.003 198.364 411.242 184.108 401.669 184.108C392.096 184.108 384.336 198.364 384.336 215.95C384.336 233.535 392.096 247.791 401.669 247.791Z" fill="#100700"/>
<path opacity="0.8" d="M288.331 258.405C310.982 276.006 326.843 276.183 352.331 258.405" stroke="#100700" stroke-width="8" stroke-linecap="round"/>
<path d="M279.972 16.252C278.74 16.252 277.648 16.056 276.696 15.664C275.758 15.272 275.016 14.684 274.47 13.9C273.924 13.102 273.637 12.108 273.609 10.918H275.961C276.003 12.108 276.395 12.962 277.137 13.48C277.879 13.998 278.838 14.257 280.014 14.257C281.036 14.257 281.855 14.047 282.471 13.627C283.087 13.207 283.395 12.605 283.395 11.821C283.395 11.373 283.29 11.009 283.08 10.729C282.87 10.449 282.471 10.19 281.883 9.952C281.309 9.714 280.476 9.483 279.384 9.259C278.138 9.021 277.13 8.727 276.36 8.377C275.604 8.013 275.03 7.537 274.638 6.949C274.26 6.347 274.071 5.598 274.071 4.702C274.071 3.89 274.295 3.176 274.743 2.56C275.205 1.944 275.842 1.468 276.654 1.132C277.466 0.795999 278.39 0.627999 279.426 0.627999C281.414 0.627999 282.905 1.09 283.899 2.014C284.907 2.924 285.432 4.128 285.474 5.626H283.164C283.094 4.618 282.758 3.869 282.156 3.379C281.568 2.875 280.658 2.623 279.426 2.623C278.544 2.623 277.83 2.812 277.284 3.19C276.752 3.554 276.486 4.044 276.486 4.66C276.486 5.122 276.577 5.5 276.759 5.794C276.941 6.074 277.298 6.333 277.83 6.571C278.376 6.795 279.188 7.012 280.266 7.222C281.708 7.502 282.828 7.852 283.626 8.272C284.438 8.678 285.005 9.161 285.327 9.721C285.649 10.281 285.81 10.96 285.81 11.758C285.81 12.668 285.565 13.466 285.075 14.152C284.585 14.824 283.899 15.342 283.017 15.706C282.135 16.07 281.12 16.252 279.972 16.252ZM291.454 16C290.81 16 290.285 15.916 289.879 15.748C289.487 15.58 289.186 15.307 288.976 14.929C288.766 14.537 288.661 14.019 288.661 13.375V6.886H286.708V5.08H288.661V1.72H290.866V5.08H293.722V6.886H290.866V13.123C290.866 13.501 290.95 13.774 291.118 13.942C291.3 14.11 291.58 14.194 291.958 14.194H293.722V16H291.454ZM295.505 5.08H297.626V6.928C298.004 6.214 298.48 5.71 299.054 5.416C299.628 5.108 300.279 4.954 301.007 4.954H301.847V7.033H300.944C300.286 7.033 299.719 7.138 299.243 7.348C298.767 7.558 298.389 7.915 298.109 8.419C297.843 8.923 297.71 9.595 297.71 10.435V16H295.505V5.08ZM313.139 16H311.018V14.467C310.626 15.013 310.136 15.447 309.548 15.769C308.974 16.091 308.302 16.252 307.532 16.252C306.678 16.252 305.957 16.07 305.369 15.706C304.795 15.342 304.361 14.845 304.067 14.215C303.787 13.585 303.647 12.885 303.647 12.115V5.08H305.831V11.884C305.831 12.626 306.02 13.214 306.398 13.648C306.79 14.082 307.364 14.299 308.12 14.299C308.512 14.299 308.918 14.215 309.338 14.047C309.772 13.879 310.143 13.557 310.451 13.081C310.773 12.605 310.934 11.954 310.934 11.128V5.08H313.139V16ZM320.391 16.252C319.341 16.252 318.417 16.007 317.619 15.517C316.835 15.027 316.226 14.348 315.792 13.48C315.372 12.612 315.162 11.632 315.162 10.54C315.162 9.448 315.372 8.468 315.792 7.6C316.226 6.732 316.835 6.053 317.619 5.563C318.417 5.073 319.341 4.828 320.391 4.828C321.777 4.828 322.89 5.199 323.73 5.941C324.57 6.669 325.081 7.649 325.263 8.881H323.016C322.876 8.209 322.575 7.684 322.113 7.306C321.651 6.914 321.077 6.718 320.391 6.718C319.747 6.718 319.201 6.879 318.753 7.201C318.319 7.523 317.99 7.971 317.766 8.545C317.542 9.119 317.43 9.784 317.43 10.54C317.43 11.296 317.542 11.961 317.766 12.535C317.99 13.109 318.319 13.557 318.753 13.879C319.201 14.201 319.747 14.362 320.391 14.362C321.091 14.362 321.672 14.166 322.134 13.774C322.596 13.368 322.89 12.815 323.016 12.115H325.263C325.095 13.361 324.57 14.362 323.688 15.118C322.82 15.874 321.721 16.252 320.391 16.252ZM330.952 16C330.308 16 329.783 15.916 329.377 15.748C328.985 15.58 328.684 15.307 328.474 14.929C328.264 14.537 328.159 14.019 328.159 13.375V6.886H326.206V5.08H328.159V1.72H330.364V5.08H333.22V6.886H330.364V13.123C330.364 13.501 330.448 13.774 330.616 13.942C330.798 14.11 331.078 14.194 331.456 14.194H333.22V16H330.952ZM344.495 16H342.374V14.467C341.982 15.013 341.492 15.447 340.904 15.769C340.33 16.091 339.658 16.252 338.888 16.252C338.034 16.252 337.313 16.07 336.725 15.706C336.151 15.342 335.717 14.845 335.423 14.215C335.143 13.585 335.003 12.885 335.003 12.115V5.08H337.187V11.884C337.187 12.626 337.376 13.214 337.754 13.648C338.146 14.082 338.72 14.299 339.476 14.299C339.868 14.299 340.274 14.215 340.694 14.047C341.128 13.879 341.499 13.557 341.807 13.081C342.129 12.605 342.29 11.954 342.29 11.128V5.08H344.495V16ZM346.939 5.08H349.06V6.928C349.438 6.214 349.914 5.71 350.488 5.416C351.062 5.108 351.713 4.954 352.441 4.954H353.281V7.033H352.378C351.72 7.033 351.153 7.138 350.677 7.348C350.201 7.558 349.823 7.915 349.543 8.419C349.277 8.923 349.144 9.595 349.144 10.435V16H346.939V5.08ZM359.847 16.252C358.797 16.252 357.873 16.007 357.075 15.517C356.277 15.027 355.661 14.348 355.227 13.48C354.807 12.612 354.597 11.632 354.597 10.54C354.597 9.448 354.807 8.468 355.227 7.6C355.661 6.732 356.277 6.053 357.075 5.563C357.873 5.073 358.797 4.828 359.847 4.828C360.897 4.828 361.821 5.073 362.619 5.563C363.417 6.053 364.026 6.739 364.446 7.621C364.88 8.503 365.097 9.511 365.097 10.645V11.275H356.844C356.914 11.905 357.075 12.458 357.327 12.934C357.579 13.396 357.915 13.76 358.335 14.026C358.769 14.278 359.273 14.404 359.847 14.404C360.519 14.404 361.093 14.257 361.569 13.963C362.059 13.655 362.423 13.221 362.661 12.661H364.866C364.516 13.767 363.9 14.642 363.018 15.286C362.136 15.93 361.079 16.252 359.847 16.252ZM362.808 9.532C362.668 8.65 362.339 7.957 361.821 7.453C361.317 6.935 360.659 6.676 359.847 6.676C359.021 6.676 358.356 6.935 357.852 7.453C357.348 7.957 357.026 8.65 356.886 9.532H362.808Z" fill="black"/>
<path d="M1.365 99.88H4.578L9.156 112.018L13.713 99.88H16.947V115H14.679V103.408L10.185 115H8.106L3.612 103.408V115H1.365V99.88ZM24.2985 115.252C23.2485 115.252 22.3245 115.007 21.5265 114.517C20.7285 114.027 20.1125 113.348 19.6785 112.48C19.2585 111.612 19.0485 110.632 19.0485 109.54C19.0485 108.448 19.2585 107.468 19.6785 106.6C20.1125 105.732 20.7285 105.053 21.5265 104.563C22.3245 104.073 23.2485 103.828 24.2985 103.828C25.3485 103.828 26.2725 104.073 27.0705 104.563C27.8685 105.053 28.4775 105.739 28.8975 106.621C29.3315 107.503 29.5485 108.511 29.5485 109.645V110.275H21.2955C21.3655 110.905 21.5265 111.458 21.7785 111.934C22.0305 112.396 22.3665 112.76 22.7865 113.026C23.2205 113.278 23.7245 113.404 24.2985 113.404C24.9705 113.404 25.5445 113.257 26.0205 112.963C26.5105 112.655 26.8745 112.221 27.1125 111.661H29.3175C28.9675 112.767 28.3515 113.642 27.4695 114.286C26.5875 114.93 25.5305 115.252 24.2985 115.252ZM27.2595 108.532C27.1195 107.65 26.7905 106.957 26.2725 106.453C25.7685 105.935 25.1105 105.676 24.2985 105.676C23.4725 105.676 22.8075 105.935 22.3035 106.453C21.7995 106.957 21.4775 107.65 21.3375 108.532H27.2595ZM25.4115 99.628H28.0995L25.2225 102.694H23.3745L25.4115 99.628ZM31.508 104.08H33.629V105.634C33.965 105.074 34.399 104.633 34.931 104.311C35.477 103.989 36.128 103.828 36.884 103.828C37.668 103.828 38.333 104.017 38.879 104.395C39.425 104.759 39.845 105.27 40.139 105.928C40.503 105.284 40.986 104.773 41.588 104.395C42.19 104.017 42.897 103.828 43.709 103.828C44.479 103.828 45.137 104.017 45.683 104.395C46.243 104.759 46.663 105.256 46.943 105.886C47.223 106.516 47.363 107.209 47.363 107.965V115H45.158V108.196C45.158 107.468 44.983 106.887 44.633 106.453C44.283 106.005 43.779 105.781 43.121 105.781C42.491 105.781 41.903 106.012 41.357 106.474C40.811 106.922 40.538 107.748 40.538 108.952V115H38.333V108.196C38.333 107.468 38.158 106.887 37.808 106.453C37.458 106.005 36.954 105.781 36.296 105.781C35.666 105.781 35.078 106.012 34.532 106.474C33.986 106.922 33.713 107.748 33.713 108.952V115H31.508V104.08ZM54.715 115.252C53.623 115.252 52.664 115.007 51.838 114.517C51.012 114.027 50.382 113.348 49.948 112.48C49.528 111.612 49.318 110.632 49.318 109.54C49.318 108.448 49.528 107.468 49.948 106.6C50.382 105.732 51.012 105.053 51.838 104.563C52.664 104.073 53.623 103.828 54.715 103.828C55.821 103.828 56.78 104.073 57.592 104.563C58.418 105.053 59.048 105.732 59.482 106.6C59.916 107.468 60.133 108.448 60.133 109.54C60.133 110.632 59.916 111.612 59.482 112.48C59.048 113.348 58.418 114.027 57.592 114.517C56.78 115.007 55.821 115.252 54.715 115.252ZM54.715 113.362C55.415 113.362 55.996 113.201 56.458 112.879C56.934 112.557 57.284 112.109 57.508 111.535C57.746 110.961 57.865 110.296 57.865 109.54C57.865 108.784 57.746 108.119 57.508 107.545C57.284 106.971 56.934 106.523 56.458 106.201C55.996 105.879 55.415 105.718 54.715 105.718C54.029 105.718 53.448 105.879 52.972 106.201C52.51 106.523 52.16 106.971 51.922 107.545C51.698 108.119 51.586 108.784 51.586 109.54C51.586 110.296 51.698 110.961 51.922 111.535C52.16 112.109 52.51 112.557 52.972 112.879C53.448 113.201 54.029 113.362 54.715 113.362ZM62.0432 104.08H64.2482V115H62.0432V104.08ZM62.0432 99.88H64.2482V102.19H62.0432V99.88ZM66.6584 104.08H68.7794V105.928C69.1574 105.214 69.6334 104.71 70.2074 104.416C70.7814 104.108 71.4324 103.954 72.1604 103.954H73.0004V106.033H72.0974C71.4394 106.033 70.8724 106.138 70.3964 106.348C69.9204 106.558 69.5424 106.915 69.2624 107.419C68.9964 107.923 68.8634 108.595 68.8634 109.435V115H66.6584V104.08ZM79.567 115.252C78.517 115.252 77.593 115.007 76.795 114.517C75.997 114.027 75.381 113.348 74.947 112.48C74.527 111.612 74.317 110.632 74.317 109.54C74.317 108.448 74.527 107.468 74.947 106.6C75.381 105.732 75.997 105.053 76.795 104.563C77.593 104.073 78.517 103.828 79.567 103.828C80.617 103.828 81.541 104.073 82.339 104.563C83.137 105.053 83.746 105.739 84.166 106.621C84.6 107.503 84.817 108.511 84.817 109.645V110.275H76.564C76.634 110.905 76.795 111.458 77.047 111.934C77.299 112.396 77.635 112.76 78.055 113.026C78.489 113.278 78.993 113.404 79.567 113.404C80.239 113.404 80.813 113.257 81.289 112.963C81.779 112.655 82.143 112.221 82.381 111.661H84.586C84.236 112.767 83.62 113.642 82.738 114.286C81.856 114.93 80.799 115.252 79.567 115.252ZM82.528 108.532C82.388 107.65 82.059 106.957 81.541 106.453C81.037 105.935 80.379 105.676 79.567 105.676C78.741 105.676 78.076 105.935 77.572 106.453C77.068 106.957 76.746 107.65 76.606 108.532H82.528Z" fill="black"/>
<path d="M8.064 342.252C6.51 342.252 5.18 341.902 4.074 341.202C2.968 340.502 2.135 339.564 1.575 338.388C1.015 337.198 0.735 335.882 0.735 334.44C0.735 332.998 1.015 331.689 1.575 330.513C2.135 329.323 2.968 328.378 4.074 327.678C5.18 326.978 6.51 326.628 8.064 326.628C9.632 326.628 10.969 326.978 12.075 327.678C13.181 328.378 14.014 329.323 14.574 330.513C15.134 331.689 15.414 332.998 15.414 334.44C15.414 335.882 15.134 337.198 14.574 338.388C14.014 339.564 13.181 340.502 12.075 341.202C10.969 341.902 9.632 342.252 8.064 342.252ZM8.064 340.131C9.156 340.131 10.066 339.879 10.794 339.375C11.536 338.871 12.082 338.192 12.432 337.338C12.796 336.484 12.978 335.518 12.978 334.44C12.978 333.362 12.796 332.396 12.432 331.542C12.082 330.688 11.536 330.009 10.794 329.505C10.066 329.001 9.156 328.749 8.064 328.749C6.986 328.749 6.076 329.001 5.334 329.505C4.592 330.009 4.046 330.688 3.696 331.542C3.346 332.396 3.171 333.362 3.171 334.44C3.171 335.518 3.346 336.484 3.696 337.338C4.046 338.192 4.592 338.871 5.334 339.375C6.076 339.879 6.986 340.131 8.064 340.131ZM20.9486 331.311C21.5506 330.989 22.2506 330.828 23.0486 330.828C24.0986 330.828 24.9946 331.073 25.7366 331.563C26.4926 332.053 27.0666 332.732 27.4586 333.6C27.8506 334.454 28.0466 335.434 28.0466 336.54C28.0466 337.646 27.8506 338.633 27.4586 339.501C27.0666 340.355 26.4926 341.027 25.7366 341.517C24.9946 342.007 24.0986 342.252 23.0486 342.252C22.2786 342.252 21.5996 342.105 21.0116 341.811C20.4236 341.517 19.9406 341.097 19.5626 340.551V346.2H17.3576V331.08H19.4786V332.676C19.8706 332.088 20.3606 331.633 20.9486 331.311ZM24.3716 333.201C23.9096 332.879 23.3356 332.718 22.6496 332.718C21.9496 332.718 21.3686 332.879 20.9066 333.201C20.4446 333.523 20.0946 333.971 19.8566 334.545C19.6326 335.119 19.5206 335.784 19.5206 336.54C19.5206 337.296 19.6326 337.961 19.8566 338.535C20.0946 339.109 20.4446 339.557 20.9066 339.879C21.3686 340.201 21.9496 340.362 22.6496 340.362C23.3356 340.362 23.9096 340.201 24.3716 339.879C24.8336 339.557 25.1766 339.109 25.4006 338.535C25.6386 337.961 25.7576 337.296 25.7576 336.54C25.7576 335.784 25.6386 335.119 25.4006 334.545C25.1766 333.971 24.8336 333.523 24.3716 333.201ZM33.855 342C33.211 342 32.686 341.916 32.28 341.748C31.888 341.58 31.587 341.307 31.377 340.929C31.167 340.537 31.062 340.019 31.062 339.375V332.886H29.109V331.08H31.062V327.72H33.267V331.08H36.123V332.886H33.267V339.123C33.267 339.501 33.351 339.774 33.519 339.942C33.701 340.11 33.981 340.194 34.359 340.194H36.123V342H33.855ZM37.8645 331.08H40.0695V342H37.8645V331.08ZM37.8645 326.88H40.0695V329.19H37.8645V326.88ZM42.4797 331.08H44.6007V332.634C44.9367 332.074 45.3707 331.633 45.9027 331.311C46.4487 330.989 47.0997 330.828 47.8557 330.828C48.6397 330.828 49.3047 331.017 49.8507 331.395C50.3967 331.759 50.8167 332.27 51.1107 332.928C51.4747 332.284 51.9577 331.773 52.5597 331.395C53.1617 331.017 53.8687 330.828 54.6807 330.828C55.4507 330.828 56.1087 331.017 56.6547 331.395C57.2147 331.759 57.6347 332.256 57.9147 332.886C58.1947 333.516 58.3347 334.209 58.3347 334.965V342H56.1297V335.196C56.1297 334.468 55.9547 333.887 55.6047 333.453C55.2547 333.005 54.7507 332.781 54.0927 332.781C53.4627 332.781 52.8747 333.012 52.3287 333.474C51.7827 333.922 51.5097 334.748 51.5097 335.952V342H49.3047V335.196C49.3047 334.468 49.1297 333.887 48.7797 333.453C48.4297 333.005 47.9257 332.781 47.2677 332.781C46.6377 332.781 46.0497 333.012 45.5037 333.474C44.9577 333.922 44.6847 334.748 44.6847 335.952V342H42.4797V331.08ZM60.7307 331.08H62.9357V342H60.7307V331.08ZM60.7307 326.88H62.9357V329.19H60.7307V326.88ZM69.4199 342.252C67.9639 342.252 66.8089 341.937 65.9549 341.307C65.1149 340.677 64.6599 339.718 64.5899 338.43H66.7529C66.8369 339.186 67.0959 339.725 67.5299 340.047C67.9779 340.369 68.6219 340.53 69.4619 340.53C70.1759 340.53 70.7429 340.404 71.1629 340.152C71.5829 339.886 71.7929 339.522 71.7929 339.06C71.7929 338.752 71.7299 338.507 71.6039 338.325C71.4919 338.129 71.2469 337.961 70.8689 337.821C70.4909 337.681 69.9169 337.548 69.1469 337.422C68.0549 337.24 67.1939 336.995 66.5639 336.687C65.9339 336.379 65.4929 336.015 65.2409 335.595C65.0029 335.161 64.8839 334.636 64.8839 334.02C64.8839 333.04 65.2759 332.263 66.0599 331.689C66.8439 331.115 67.8659 330.828 69.1259 330.828C70.5959 330.828 71.7299 331.15 72.5279 331.794C73.3399 332.438 73.7529 333.334 73.7669 334.482H71.6459C71.6319 333.768 71.4009 333.271 70.9529 332.991C70.5049 332.697 69.8959 332.55 69.1259 332.55C68.5239 332.55 68.0269 332.676 67.6349 332.928C67.2429 333.166 67.0469 333.509 67.0469 333.957C67.0469 334.265 67.1239 334.517 67.2779 334.713C67.4319 334.895 67.6979 335.056 68.0759 335.196C68.4679 335.322 69.0489 335.448 69.8189 335.574C70.8969 335.756 71.7369 335.994 72.3389 336.288C72.9409 336.568 73.3679 336.925 73.6199 337.359C73.8719 337.779 73.9979 338.304 73.9979 338.934C73.9979 339.97 73.5709 340.782 72.7169 341.37C71.8769 341.958 70.7779 342.252 69.4199 342.252ZM79.0419 342.252C77.8239 342.252 76.8579 341.972 76.1439 341.412C75.4299 340.838 75.0729 340.033 75.0729 338.997C75.0729 338.367 75.2269 337.828 75.5349 337.38C75.8429 336.932 76.2909 336.568 76.8789 336.288C77.4809 335.994 78.2299 335.763 79.1259 335.595L82.4229 334.986V334.272C82.4229 333.698 82.2409 333.285 81.8769 333.033C81.5269 332.767 80.9809 332.634 80.2389 332.634C79.5249 332.634 78.9299 332.781 78.4539 333.075C77.9919 333.355 77.7399 333.831 77.6979 334.503H75.5139C75.5419 333.271 75.9969 332.354 76.8789 331.752C77.7609 331.136 78.8809 330.828 80.2389 330.828C81.6809 330.828 82.7659 331.108 83.4939 331.668C84.2219 332.228 84.5859 333.019 84.5859 334.041V342H82.5069V340.698C82.0729 341.244 81.5619 341.643 80.9739 341.895C80.3999 342.133 79.7559 342.252 79.0419 342.252ZM79.3779 340.488C79.8959 340.488 80.3859 340.39 80.8479 340.194C81.3239 339.998 81.7019 339.697 81.9819 339.291C82.2759 338.871 82.4229 338.346 82.4229 337.716V336.624L79.5039 337.233C78.7479 337.387 78.1949 337.583 77.8449 337.821C77.5089 338.045 77.3409 338.416 77.3409 338.934C77.3409 339.424 77.5089 339.809 77.8449 340.089C78.1809 340.355 78.6919 340.488 79.3779 340.488ZM90.6206 342C89.9766 342 89.4516 341.916 89.0456 341.748C88.6536 341.58 88.3526 341.307 88.1426 340.929C87.9326 340.537 87.8276 340.019 87.8276 339.375V332.886H85.8746V331.08H87.8276V327.72H90.0326V331.08H92.8886V332.886H90.0326V339.123C90.0326 339.501 90.1166 339.774 90.2846 339.942C90.4666 340.11 90.7466 340.194 91.1246 340.194H92.8886V342H90.6206ZM94.6301 331.08H96.8351V342H94.6301V331.08ZM94.6301 326.88H96.8351V329.19H94.6301V326.88ZM104.159 342.252C103.067 342.252 102.108 342.007 101.282 341.517C100.456 341.027 99.8263 340.348 99.3923 339.48C98.9723 338.612 98.7623 337.632 98.7623 336.54C98.7623 335.448 98.9723 334.468 99.3923 333.6C99.8263 332.732 100.456 332.053 101.282 331.563C102.108 331.073 103.067 330.828 104.159 330.828C105.265 330.828 106.224 331.073 107.036 331.563C107.862 332.053 108.492 332.732 108.926 333.6C109.36 334.468 109.577 335.448 109.577 336.54C109.577 337.632 109.36 338.612 108.926 339.48C108.492 340.348 107.862 341.027 107.036 341.517C106.224 342.007 105.265 342.252 104.159 342.252ZM104.159 340.362C104.859 340.362 105.44 340.201 105.902 339.879C106.378 339.557 106.728 339.109 106.952 338.535C107.19 337.961 107.309 337.296 107.309 336.54C107.309 335.784 107.19 335.119 106.952 334.545C106.728 333.971 106.378 333.523 105.902 333.201C105.44 332.879 104.859 332.718 104.159 332.718C103.473 332.718 102.892 332.879 102.416 333.201C101.954 333.523 101.604 333.971 101.366 334.545C101.142 335.119 101.03 335.784 101.03 336.54C101.03 337.296 101.142 337.961 101.366 338.535C101.604 339.109 101.954 339.557 102.416 339.879C102.892 340.201 103.473 340.362 104.159 340.362ZM111.53 331.08H113.651V332.613C114.043 332.067 114.526 331.633 115.1 331.311C115.688 330.989 116.367 330.828 117.137 330.828C117.991 330.828 118.705 331.01 119.279 331.374C119.867 331.738 120.301 332.235 120.581 332.865C120.875 333.495 121.022 334.195 121.022 334.965V342H118.838V335.196C118.838 334.454 118.642 333.866 118.25 333.432C117.872 332.998 117.305 332.781 116.549 332.781C116.157 332.781 115.744 332.865 115.31 333.033C114.89 333.201 114.519 333.523 114.197 333.999C113.889 334.475 113.735 335.126 113.735 335.952V342H111.53V331.08Z" fill="black"/>
<path d="M515.064 115.252C513.51 115.252 512.18 114.902 511.074 114.202C509.968 113.502 509.135 112.564 508.575 111.388C508.015 110.198 507.735 108.882 507.735 107.44C507.735 105.998 508.015 104.689 508.575 103.513C509.135 102.323 509.968 101.378 511.074 100.678C512.18 99.978 513.51 99.628 515.064 99.628C516.24 99.628 517.283 99.859 518.193 100.321C519.103 100.783 519.838 101.427 520.398 102.253C520.958 103.065 521.329 103.989 521.511 105.025H519.138C519.012 104.367 518.76 103.793 518.382 103.303C518.018 102.813 517.549 102.435 516.975 102.169C516.415 101.889 515.778 101.749 515.064 101.749C513.986 101.749 513.076 102.001 512.334 102.505C511.592 103.009 511.046 103.688 510.696 104.542C510.346 105.396 510.171 106.362 510.171 107.44C510.171 108.518 510.346 109.484 510.696 110.338C511.046 111.192 511.592 111.871 512.334 112.375C513.076 112.879 513.986 113.131 515.064 113.131C515.834 113.131 516.513 112.977 517.101 112.669C517.689 112.347 518.165 111.906 518.529 111.346C518.893 110.772 519.131 110.128 519.243 109.414H521.595C521.455 110.52 521.105 111.521 520.545 112.417C519.999 113.299 519.25 113.992 518.298 114.496C517.36 115 516.282 115.252 515.064 115.252ZM528.472 115.252C527.38 115.252 526.421 115.007 525.595 114.517C524.769 114.027 524.139 113.348 523.705 112.48C523.285 111.612 523.075 110.632 523.075 109.54C523.075 108.448 523.285 107.468 523.705 106.6C524.139 105.732 524.769 105.053 525.595 104.563C526.421 104.073 527.38 103.828 528.472 103.828C529.578 103.828 530.537 104.073 531.349 104.563C532.175 105.053 532.805 105.732 533.239 106.6C533.673 107.468 533.89 108.448 533.89 109.54C533.89 110.632 533.673 111.612 533.239 112.48C532.805 113.348 532.175 114.027 531.349 114.517C530.537 115.007 529.578 115.252 528.472 115.252ZM528.472 113.362C529.172 113.362 529.753 113.201 530.215 112.879C530.691 112.557 531.041 112.109 531.265 111.535C531.503 110.961 531.622 110.296 531.622 109.54C531.622 108.784 531.503 108.119 531.265 107.545C531.041 106.971 530.691 106.523 530.215 106.201C529.753 105.879 529.172 105.718 528.472 105.718C527.786 105.718 527.205 105.879 526.729 106.201C526.267 106.523 525.917 106.971 525.679 107.545C525.455 108.119 525.343 108.784 525.343 109.54C525.343 110.296 525.455 110.961 525.679 111.535C525.917 112.109 526.267 112.557 526.729 112.879C527.205 113.201 527.786 113.362 528.472 113.362ZM535.842 99.88H538.047V112.123C538.047 112.501 538.131 112.774 538.299 112.942C538.467 113.11 538.747 113.194 539.139 113.194H540.588V115H538.635C537.991 115 537.466 114.916 537.06 114.748C536.654 114.58 536.346 114.307 536.136 113.929C535.94 113.537 535.842 113.019 535.842 112.375V99.88ZM542.364 99.88H544.569V112.123C544.569 112.501 544.653 112.774 544.821 112.942C544.989 113.11 545.269 113.194 545.661 113.194H547.11V115H545.157C544.513 115 543.988 114.916 543.582 114.748C543.176 114.58 542.868 114.307 542.658 113.929C542.462 113.537 542.364 113.019 542.364 112.375V99.88ZM552.245 115.252C551.027 115.252 550.061 114.972 549.347 114.412C548.633 113.838 548.276 113.033 548.276 111.997C548.276 111.367 548.43 110.828 548.738 110.38C549.046 109.932 549.494 109.568 550.082 109.288C550.684 108.994 551.433 108.763 552.329 108.595L555.626 107.986V107.272C555.626 106.698 555.444 106.285 555.08 106.033C554.73 105.767 554.184 105.634 553.442 105.634C552.728 105.634 552.133 105.781 551.657 106.075C551.195 106.355 550.943 106.831 550.901 107.503H548.717C548.745 106.271 549.2 105.354 550.082 104.752C550.964 104.136 552.084 103.828 553.442 103.828C554.884 103.828 555.969 104.108 556.697 104.668C557.425 105.228 557.789 106.019 557.789 107.041V115H555.71V113.698C555.276 114.244 554.765 114.643 554.177 114.895C553.603 115.133 552.959 115.252 552.245 115.252ZM552.581 113.488C553.099 113.488 553.589 113.39 554.051 113.194C554.527 112.998 554.905 112.697 555.185 112.291C555.479 111.871 555.626 111.346 555.626 110.716V109.624L552.707 110.233C551.951 110.387 551.398 110.583 551.048 110.821C550.712 111.045 550.544 111.416 550.544 111.934C550.544 112.424 550.712 112.809 551.048 113.089C551.384 113.355 551.895 113.488 552.581 113.488ZM565.63 115.252C564.832 115.252 564.132 115.091 563.53 114.769C562.942 114.447 562.452 113.992 562.06 113.404V115H559.939V99.88H562.144V105.529C562.522 104.983 563.005 104.563 563.593 104.269C564.181 103.975 564.86 103.828 565.63 103.828C566.68 103.828 567.576 104.073 568.318 104.563C569.074 105.053 569.648 105.732 570.04 106.6C570.432 107.454 570.628 108.434 570.628 109.54C570.628 110.646 570.432 111.633 570.04 112.501C569.648 113.355 569.074 114.027 568.318 114.517C567.576 115.007 566.68 115.252 565.63 115.252ZM565.231 113.362C565.917 113.362 566.491 113.201 566.953 112.879C567.415 112.557 567.758 112.109 567.982 111.535C568.22 110.961 568.339 110.296 568.339 109.54C568.339 108.784 568.22 108.119 567.982 107.545C567.758 106.971 567.415 106.523 566.953 106.201C566.491 105.879 565.917 105.718 565.231 105.718C564.531 105.718 563.95 105.879 563.488 106.201C563.026 106.523 562.676 106.971 562.438 107.545C562.214 108.119 562.102 108.784 562.102 109.54C562.102 110.296 562.214 110.961 562.438 111.535C562.676 112.109 563.026 112.557 563.488 112.879C563.95 113.201 564.531 113.362 565.231 113.362ZM577.486 115.252C576.394 115.252 575.435 115.007 574.609 114.517C573.783 114.027 573.153 113.348 572.719 112.48C572.299 111.612 572.089 110.632 572.089 109.54C572.089 108.448 572.299 107.468 572.719 106.6C573.153 105.732 573.783 105.053 574.609 104.563C575.435 104.073 576.394 103.828 577.486 103.828C578.592 103.828 579.551 104.073 580.363 104.563C581.189 105.053 581.819 105.732 582.253 106.6C582.687 107.468 582.904 108.448 582.904 109.54C582.904 110.632 582.687 111.612 582.253 112.48C581.819 113.348 581.189 114.027 580.363 114.517C579.551 115.007 578.592 115.252 577.486 115.252ZM577.486 113.362C578.186 113.362 578.767 113.201 579.229 112.879C579.705 112.557 580.055 112.109 580.279 111.535C580.517 110.961 580.636 110.296 580.636 109.54C580.636 108.784 580.517 108.119 580.279 107.545C580.055 106.971 579.705 106.523 579.229 106.201C578.767 105.879 578.186 105.718 577.486 105.718C576.8 105.718 576.219 105.879 575.743 106.201C575.281 106.523 574.931 106.971 574.693 107.545C574.469 108.119 574.357 108.784 574.357 109.54C574.357 110.296 574.469 110.961 574.693 111.535C574.931 112.109 575.281 112.557 575.743 112.879C576.219 113.201 576.8 113.362 577.486 113.362ZM584.856 104.08H586.977V105.928C587.355 105.214 587.831 104.71 588.405 104.416C588.979 104.108 589.63 103.954 590.358 103.954H591.198V106.033H590.295C589.637 106.033 589.07 106.138 588.594 106.348C588.118 106.558 587.74 106.915 587.46 107.419C587.194 107.923 587.061 108.595 587.061 109.435V115H584.856V104.08ZM596.357 115.252C595.139 115.252 594.173 114.972 593.459 114.412C592.745 113.838 592.388 113.033 592.388 111.997C592.388 111.367 592.542 110.828 592.85 110.38C593.158 109.932 593.606 109.568 594.194 109.288C594.796 108.994 595.545 108.763 596.441 108.595L599.738 107.986V107.272C599.738 106.698 599.556 106.285 599.192 106.033C598.842 105.767 598.296 105.634 597.554 105.634C596.84 105.634 596.245 105.781 595.769 106.075C595.307 106.355 595.055 106.831 595.013 107.503H592.829C592.857 106.271 593.312 105.354 594.194 104.752C595.076 104.136 596.196 103.828 597.554 103.828C598.996 103.828 600.081 104.108 600.809 104.668C601.537 105.228 601.901 106.019 601.901 107.041V115H599.822V113.698C599.388 114.244 598.877 114.643 598.289 114.895C597.715 115.133 597.071 115.252 596.357 115.252ZM596.693 113.488C597.211 113.488 597.701 113.39 598.163 113.194C598.639 112.998 599.017 112.697 599.297 112.291C599.591 111.871 599.738 111.346 599.738 110.716V109.624L596.819 110.233C596.063 110.387 595.51 110.583 595.16 110.821C594.824 111.045 594.656 111.416 594.656 111.934C594.656 112.424 594.824 112.809 595.16 113.089C595.496 113.355 596.007 113.488 596.693 113.488ZM607.936 115C607.292 115 606.767 114.916 606.361 114.748C605.969 114.58 605.668 114.307 605.458 113.929C605.248 113.537 605.143 113.019 605.143 112.375V105.886H603.19V104.08H605.143V100.72H607.348V104.08H610.204V105.886H607.348V112.123C607.348 112.501 607.432 112.774 607.6 112.942C607.782 113.11 608.062 113.194 608.44 113.194H610.204V115H607.936ZM611.946 104.08H614.151V115H611.946V104.08ZM611.946 99.88H614.151V102.19H611.946V99.88ZM621.475 115.252C620.383 115.252 619.424 115.007 618.598 114.517C617.772 114.027 617.142 113.348 616.708 112.48C616.288 111.612 616.078 110.632 616.078 109.54C616.078 108.448 616.288 107.468 616.708 106.6C617.142 105.732 617.772 105.053 618.598 104.563C619.424 104.073 620.383 103.828 621.475 103.828C622.581 103.828 623.54 104.073 624.352 104.563C625.178 105.053 625.808 105.732 626.242 106.6C626.676 107.468 626.893 108.448 626.893 109.54C626.893 110.632 626.676 111.612 626.242 112.48C625.808 113.348 625.178 114.027 624.352 114.517C623.54 115.007 622.581 115.252 621.475 115.252ZM621.475 113.362C622.175 113.362 622.756 113.201 623.218 112.879C623.694 112.557 624.044 112.109 624.268 111.535C624.506 110.961 624.625 110.296 624.625 109.54C624.625 108.784 624.506 108.119 624.268 107.545C624.044 106.971 623.694 106.523 623.218 106.201C622.756 105.879 622.175 105.718 621.475 105.718C620.789 105.718 620.208 105.879 619.732 106.201C619.27 106.523 618.92 106.971 618.682 107.545C618.458 108.119 618.346 108.784 618.346 109.54C618.346 110.296 618.458 110.961 618.682 111.535C618.92 112.109 619.27 112.557 619.732 112.879C620.208 113.201 620.789 113.362 621.475 113.362ZM628.845 104.08H630.966V105.613C631.358 105.067 631.841 104.633 632.415 104.311C633.003 103.989 633.682 103.828 634.452 103.828C635.306 103.828 636.02 104.01 636.594 104.374C637.182 104.738 637.616 105.235 637.896 105.865C638.19 106.495 638.337 107.195 638.337 107.965V115H636.153V108.196C636.153 107.454 635.957 106.866 635.565 106.432C635.187 105.998 634.62 105.781 633.864 105.781C633.472 105.781 633.059 105.865 632.625 106.033C632.205 106.201 631.834 106.523 631.512 106.999C631.204 107.475 631.05 108.126 631.05 108.952V115H628.845V104.08Z" fill="black"/>
<path d="M538.3 326.88H540.946L546.994 342H544.495L543.004 338.115H536.242L534.73 342H532.294L538.3 326.88ZM542.248 336.078L539.623 329.211L536.998 336.078H542.248ZM555.069 341.769C554.481 342.091 553.788 342.252 552.99 342.252C551.94 342.252 551.037 342.007 550.281 341.517C549.539 341.027 548.972 340.355 548.58 339.501C548.188 338.633 547.992 337.646 547.992 336.54C547.992 335.434 548.188 334.454 548.58 333.6C548.972 332.732 549.539 332.053 550.281 331.563C551.037 331.073 551.94 330.828 552.99 330.828C553.76 330.828 554.439 330.975 555.027 331.269C555.615 331.563 556.098 331.983 556.476 332.529V326.88H558.681V342H556.56V340.404C556.168 340.992 555.671 341.447 555.069 341.769ZM551.667 339.879C552.129 340.201 552.703 340.362 553.389 340.362C554.089 340.362 554.67 340.201 555.132 339.879C555.594 339.557 555.937 339.109 556.161 338.535C556.399 337.961 556.518 337.296 556.518 336.54C556.518 335.784 556.399 335.119 556.161 334.545C555.937 333.971 555.594 333.523 555.132 333.201C554.67 332.879 554.089 332.718 553.389 332.718C552.703 332.718 552.129 332.879 551.667 333.201C551.205 333.523 550.855 333.971 550.617 334.545C550.393 335.119 550.281 335.784 550.281 336.54C550.281 337.296 550.393 337.961 550.617 338.535C550.855 339.109 551.205 339.557 551.667 339.879ZM564.469 342.252C563.251 342.252 562.285 341.972 561.571 341.412C560.857 340.838 560.5 340.033 560.5 338.997C560.5 338.367 560.654 337.828 560.962 337.38C561.27 336.932 561.718 336.568 562.306 336.288C562.908 335.994 563.657 335.763 564.553 335.595L567.85 334.986V334.272C567.85 333.698 567.668 333.285 567.304 333.033C566.954 332.767 566.408 332.634 565.666 332.634C564.952 332.634 564.357 332.781 563.881 333.075C563.419 333.355 563.167 333.831 563.125 334.503H560.941C560.969 333.271 561.424 332.354 562.306 331.752C563.188 331.136 564.308 330.828 565.666 330.828C567.108 330.828 568.193 331.108 568.921 331.668C569.649 332.228 570.013 333.019 570.013 334.041V342H567.934V340.698C567.5 341.244 566.989 341.643 566.401 341.895C565.827 342.133 565.183 342.252 564.469 342.252ZM564.805 340.488C565.323 340.488 565.813 340.39 566.275 340.194C566.751 339.998 567.129 339.697 567.409 339.291C567.703 338.871 567.85 338.346 567.85 337.716V336.624L564.931 337.233C564.175 337.387 563.622 337.583 563.272 337.821C562.936 338.045 562.768 338.416 562.768 338.934C562.768 339.424 562.936 339.809 563.272 340.089C563.608 340.355 564.119 340.488 564.805 340.488ZM575.753 331.311C576.355 330.989 577.055 330.828 577.853 330.828C578.903 330.828 579.799 331.073 580.541 331.563C581.297 332.053 581.871 332.732 582.263 333.6C582.655 334.454 582.851 335.434 582.851 336.54C582.851 337.646 582.655 338.633 582.263 339.501C581.871 340.355 581.297 341.027 580.541 341.517C579.799 342.007 578.903 342.252 577.853 342.252C577.083 342.252 576.404 342.105 575.816 341.811C575.228 341.517 574.745 341.097 574.367 340.551V346.2H572.162V331.08H574.283V332.676C574.675 332.088 575.165 331.633 575.753 331.311ZM579.176 333.201C578.714 332.879 578.14 332.718 577.454 332.718C576.754 332.718 576.173 332.879 575.711 333.201C575.249 333.523 574.899 333.971 574.661 334.545C574.437 335.119 574.325 335.784 574.325 336.54C574.325 337.296 574.437 337.961 574.661 338.535C574.899 339.109 575.249 339.557 575.711 339.879C576.173 340.201 576.754 340.362 577.454 340.362C578.14 340.362 578.714 340.201 579.176 339.879C579.638 339.557 579.981 339.109 580.205 338.535C580.443 337.961 580.562 337.296 580.562 336.54C580.562 335.784 580.443 335.119 580.205 334.545C579.981 333.971 579.638 333.523 579.176 333.201ZM588.66 342C588.016 342 587.491 341.916 587.085 341.748C586.693 341.58 586.392 341.307 586.182 340.929C585.972 340.537 585.867 340.019 585.867 339.375V332.886H583.914V331.08H585.867V327.72H588.072V331.08H590.928V332.886H588.072V339.123C588.072 339.501 588.156 339.774 588.324 339.942C588.506 340.11 588.786 340.194 589.164 340.194H590.928V342H588.66ZM596.071 342.252C594.853 342.252 593.887 341.972 593.173 341.412C592.459 340.838 592.102 340.033 592.102 338.997C592.102 338.367 592.256 337.828 592.564 337.38C592.872 336.932 593.32 336.568 593.908 336.288C594.51 335.994 595.259 335.763 596.155 335.595L599.452 334.986V334.272C599.452 333.698 599.27 333.285 598.906 333.033C598.556 332.767 598.01 332.634 597.268 332.634C596.554 332.634 595.959 332.781 595.483 333.075C595.021 333.355 594.769 333.831 594.727 334.503H592.543C592.571 333.271 593.026 332.354 593.908 331.752C594.79 331.136 595.91 330.828 597.268 330.828C598.71 330.828 599.795 331.108 600.523 331.668C601.251 332.228 601.615 333.019 601.615 334.041V342H599.536V340.698C599.102 341.244 598.591 341.643 598.003 341.895C597.429 342.133 596.785 342.252 596.071 342.252ZM596.407 340.488C596.925 340.488 597.415 340.39 597.877 340.194C598.353 339.998 598.731 339.697 599.011 339.291C599.305 338.871 599.452 338.346 599.452 337.716V336.624L596.533 337.233C595.777 337.387 595.224 337.583 594.874 337.821C594.538 338.045 594.37 338.416 594.37 338.934C594.37 339.424 594.538 339.809 594.874 340.089C595.21 340.355 595.721 340.488 596.407 340.488ZM607.65 342C607.006 342 606.481 341.916 606.075 341.748C605.683 341.58 605.382 341.307 605.172 340.929C604.962 340.537 604.857 340.019 604.857 339.375V332.886H602.904V331.08H604.857V327.72H607.062V331.08H609.918V332.886H607.062V339.123C607.062 339.501 607.146 339.774 607.314 339.942C607.496 340.11 607.776 340.194 608.154 340.194H609.918V342H607.65ZM611.659 331.08H613.864V342H611.659V331.08ZM611.659 326.88H613.864V329.19H611.659V326.88ZM621.189 342.252C620.097 342.252 619.138 342.007 618.312 341.517C617.486 341.027 616.856 340.348 616.422 339.48C616.002 338.612 615.792 337.632 615.792 336.54C615.792 335.448 616.002 334.468 616.422 333.6C616.856 332.732 617.486 332.053 618.312 331.563C619.138 331.073 620.097 330.828 621.189 330.828C622.295 330.828 623.254 331.073 624.066 331.563C624.892 332.053 625.522 332.732 625.956 333.6C626.39 334.468 626.607 335.448 626.607 336.54C626.607 337.632 626.39 338.612 625.956 339.48C625.522 340.348 624.892 341.027 624.066 341.517C623.254 342.007 622.295 342.252 621.189 342.252ZM621.189 340.362C621.889 340.362 622.47 340.201 622.932 339.879C623.408 339.557 623.758 339.109 623.982 338.535C624.22 337.961 624.339 337.296 624.339 336.54C624.339 335.784 624.22 335.119 623.982 334.545C623.758 333.971 623.408 333.523 622.932 333.201C622.47 332.879 621.889 332.718 621.189 332.718C620.503 332.718 619.922 332.879 619.446 333.201C618.984 333.523 618.634 333.971 618.396 334.545C618.172 335.119 618.06 335.784 618.06 336.54C618.06 337.296 618.172 337.961 618.396 338.535C618.634 339.109 618.984 339.557 619.446 339.879C619.922 340.201 620.503 340.362 621.189 340.362ZM628.559 331.08H630.68V332.613C631.072 332.067 631.555 331.633 632.129 331.311C632.717 330.989 633.396 330.828 634.166 330.828C635.02 330.828 635.734 331.01 636.308 331.374C636.896 331.738 637.33 332.235 637.61 332.865C637.904 333.495 638.051 334.195 638.051 334.965V342H635.867V335.196C635.867 334.454 635.671 333.866 635.279 333.432C634.901 332.998 634.334 332.781 633.578 332.781C633.186 332.781 632.773 332.865 632.339 333.033C631.919 333.201 631.548 333.523 631.226 333.999C630.918 334.475 630.764 335.126 630.764 335.952V342H628.559V331.08Z" fill="black"/>
<path d="M261.355 428.98H256.378V426.88H268.705V428.98H263.728V442H261.355V428.98ZM270.302 431.08H272.423V432.928C272.801 432.214 273.277 431.71 273.851 431.416C274.425 431.108 275.076 430.954 275.804 430.954H276.644V433.033H275.741C275.083 433.033 274.516 433.138 274.04 433.348C273.564 433.558 273.186 433.915 272.906 434.419C272.64 434.923 272.507 435.595 272.507 436.435V442H270.302V431.08ZM281.804 442.252C280.586 442.252 279.62 441.972 278.906 441.412C278.192 440.838 277.835 440.033 277.835 438.997C277.835 438.367 277.989 437.828 278.297 437.38C278.605 436.932 279.053 436.568 279.641 436.288C280.243 435.994 280.992 435.763 281.888 435.595L285.185 434.986V434.272C285.185 433.698 285.003 433.285 284.639 433.033C284.289 432.767 283.743 432.634 283.001 432.634C282.287 432.634 281.692 432.781 281.216 433.075C280.754 433.355 280.502 433.831 280.46 434.503H278.276C278.304 433.271 278.759 432.354 279.641 431.752C280.523 431.136 281.643 430.828 283.001 430.828C284.443 430.828 285.528 431.108 286.256 431.668C286.984 432.228 287.348 433.019 287.348 434.041V442H285.269V440.698C284.835 441.244 284.324 441.643 283.736 441.895C283.162 442.133 282.518 442.252 281.804 442.252ZM282.14 440.488C282.658 440.488 283.148 440.39 283.61 440.194C284.086 439.998 284.464 439.697 284.744 439.291C285.038 438.871 285.185 438.346 285.185 437.716V436.624L282.266 437.233C281.51 437.387 280.957 437.583 280.607 437.821C280.271 438.045 280.103 438.416 280.103 438.934C280.103 439.424 280.271 439.809 280.607 440.089C280.943 440.355 281.454 440.488 282.14 440.488ZM289.497 431.08H291.618V432.613C292.01 432.067 292.493 431.633 293.067 431.311C293.655 430.989 294.334 430.828 295.104 430.828C295.958 430.828 296.672 431.01 297.246 431.374C297.834 431.738 298.268 432.235 298.548 432.865C298.842 433.495 298.989 434.195 298.989 434.965V442H296.805V435.196C296.805 434.454 296.609 433.866 296.217 433.432C295.839 432.998 295.272 432.781 294.516 432.781C294.124 432.781 293.711 432.865 293.277 433.033C292.857 433.201 292.486 433.523 292.164 433.999C291.856 434.475 291.702 435.126 291.702 435.952V442H289.497V431.08ZM305.486 442.252C304.03 442.252 302.875 441.937 302.021 441.307C301.181 440.677 300.726 439.718 300.656 438.43H302.819C302.903 439.186 303.162 439.725 303.596 440.047C304.044 440.369 304.688 440.53 305.528 440.53C306.242 440.53 306.809 440.404 307.229 440.152C307.649 439.886 307.859 439.522 307.859 439.06C307.859 438.752 307.796 438.507 307.67 438.325C307.558 438.129 307.313 437.961 306.935 437.821C306.557 437.681 305.983 437.548 305.213 437.422C304.121 437.24 303.26 436.995 302.63 436.687C302 436.379 301.559 436.015 301.307 435.595C301.069 435.161 300.95 434.636 300.95 434.02C300.95 433.04 301.342 432.263 302.126 431.689C302.91 431.115 303.932 430.828 305.192 430.828C306.662 430.828 307.796 431.15 308.594 431.794C309.406 432.438 309.819 433.334 309.833 434.482H307.712C307.698 433.768 307.467 433.271 307.019 432.991C306.571 432.697 305.962 432.55 305.192 432.55C304.59 432.55 304.093 432.676 303.701 432.928C303.309 433.166 303.113 433.509 303.113 433.957C303.113 434.265 303.19 434.517 303.344 434.713C303.498 434.895 303.764 435.056 304.142 435.196C304.534 435.322 305.115 435.448 305.885 435.574C306.963 435.756 307.803 435.994 308.405 436.288C309.007 436.568 309.434 436.925 309.686 437.359C309.938 437.779 310.064 438.304 310.064 438.934C310.064 439.97 309.637 440.782 308.783 441.37C307.943 441.958 306.844 442.252 305.486 442.252ZM311.748 431.08H313.869V432.634C314.205 432.074 314.639 431.633 315.171 431.311C315.717 430.989 316.368 430.828 317.124 430.828C317.908 430.828 318.573 431.017 319.119 431.395C319.665 431.759 320.085 432.27 320.379 432.928C320.743 432.284 321.226 431.773 321.828 431.395C322.43 431.017 323.137 430.828 323.949 430.828C324.719 430.828 325.377 431.017 325.923 431.395C326.483 431.759 326.903 432.256 327.183 432.886C327.463 433.516 327.603 434.209 327.603 434.965V442H325.398V435.196C325.398 434.468 325.223 433.887 324.873 433.453C324.523 433.005 324.019 432.781 323.361 432.781C322.731 432.781 322.143 433.012 321.597 433.474C321.051 433.922 320.778 434.748 320.778 435.952V442H318.573V435.196C318.573 434.468 318.398 433.887 318.048 433.453C317.698 433.005 317.194 432.781 316.536 432.781C315.906 432.781 315.318 433.012 314.772 433.474C314.226 433.922 313.953 434.748 313.953 435.952V442H311.748V431.08ZM329.999 431.08H332.204V442H329.999V431.08ZM329.999 426.88H332.204V429.19H329.999V426.88ZM338.688 442.252C337.232 442.252 336.077 441.937 335.223 441.307C334.383 440.677 333.928 439.718 333.858 438.43H336.021C336.105 439.186 336.364 439.725 336.798 440.047C337.246 440.369 337.89 440.53 338.73 440.53C339.444 440.53 340.011 440.404 340.431 440.152C340.851 439.886 341.061 439.522 341.061 439.06C341.061 438.752 340.998 438.507 340.872 438.325C340.76 438.129 340.515 437.961 340.137 437.821C339.759 437.681 339.185 437.548 338.415 437.422C337.323 437.24 336.462 436.995 335.832 436.687C335.202 436.379 334.761 436.015 334.509 435.595C334.271 435.161 334.152 434.636 334.152 434.02C334.152 433.04 334.544 432.263 335.328 431.689C336.112 431.115 337.134 430.828 338.394 430.828C339.864 430.828 340.998 431.15 341.796 431.794C342.608 432.438 343.021 433.334 343.035 434.482H340.914C340.9 433.768 340.669 433.271 340.221 432.991C339.773 432.697 339.164 432.55 338.394 432.55C337.792 432.55 337.295 432.676 336.903 432.928C336.511 433.166 336.315 433.509 336.315 433.957C336.315 434.265 336.392 434.517 336.546 434.713C336.7 434.895 336.966 435.056 337.344 435.196C337.736 435.322 338.317 435.448 339.087 435.574C340.165 435.756 341.005 435.994 341.607 436.288C342.209 436.568 342.636 436.925 342.888 437.359C343.14 437.779 343.266 438.304 343.266 438.934C343.266 439.97 342.839 440.782 341.985 441.37C341.145 441.958 340.046 442.252 338.688 442.252ZM349.024 442.252C347.568 442.252 346.413 441.937 345.559 441.307C344.719 440.677 344.264 439.718 344.194 438.43H346.357C346.441 439.186 346.7 439.725 347.134 440.047C347.582 440.369 348.226 440.53 349.066 440.53C349.78 440.53 350.347 440.404 350.767 440.152C351.187 439.886 351.397 439.522 351.397 439.06C351.397 438.752 351.334 438.507 351.208 438.325C351.096 438.129 350.851 437.961 350.473 437.821C350.095 437.681 349.521 437.548 348.751 437.422C347.659 437.24 346.798 436.995 346.168 436.687C345.538 436.379 345.097 436.015 344.845 435.595C344.607 435.161 344.488 434.636 344.488 434.02C344.488 433.04 344.88 432.263 345.664 431.689C346.448 431.115 347.47 430.828 348.73 430.828C350.2 430.828 351.334 431.15 352.132 431.794C352.944 432.438 353.357 433.334 353.371 434.482H351.25C351.236 433.768 351.005 433.271 350.557 432.991C350.109 432.697 349.5 432.55 348.73 432.55C348.128 432.55 347.631 432.676 347.239 432.928C346.847 433.166 346.651 433.509 346.651 433.957C346.651 434.265 346.728 434.517 346.882 434.713C347.036 434.895 347.302 435.056 347.68 435.196C348.072 435.322 348.653 435.448 349.423 435.574C350.501 435.756 351.341 435.994 351.943 436.288C352.545 436.568 352.972 436.925 353.224 437.359C353.476 437.779 353.602 438.304 353.602 438.934C353.602 439.97 353.175 440.782 352.321 441.37C351.481 441.958 350.382 442.252 349.024 442.252ZM355.244 431.08H357.449V442H355.244V431.08ZM355.244 426.88H357.449V429.19H355.244V426.88ZM364.774 442.252C363.682 442.252 362.723 442.007 361.897 441.517C361.071 441.027 360.441 440.348 360.007 439.48C359.587 438.612 359.377 437.632 359.377 436.54C359.377 435.448 359.587 434.468 360.007 433.6C360.441 432.732 361.071 432.053 361.897 431.563C362.723 431.073 363.682 430.828 364.774 430.828C365.88 430.828 366.839 431.073 367.651 431.563C368.477 432.053 369.107 432.732 369.541 433.6C369.975 434.468 370.192 435.448 370.192 436.54C370.192 437.632 369.975 438.612 369.541 439.48C369.107 440.348 368.477 441.027 367.651 441.517C366.839 442.007 365.88 442.252 364.774 442.252ZM364.774 440.362C365.474 440.362 366.055 440.201 366.517 439.879C366.993 439.557 367.343 439.109 367.567 438.535C367.805 437.961 367.924 437.296 367.924 436.54C367.924 435.784 367.805 435.119 367.567 434.545C367.343 433.971 366.993 433.523 366.517 433.201C366.055 432.879 365.474 432.718 364.774 432.718C364.088 432.718 363.507 432.879 363.031 433.201C362.569 433.523 362.219 433.971 361.981 434.545C361.757 435.119 361.645 435.784 361.645 436.54C361.645 437.296 361.757 437.961 361.981 438.535C362.219 439.109 362.569 439.557 363.031 439.879C363.507 440.201 364.088 440.362 364.774 440.362ZM372.144 431.08H374.265V432.613C374.657 432.067 375.14 431.633 375.714 431.311C376.302 430.989 376.981 430.828 377.751 430.828C378.605 430.828 379.319 431.01 379.893 431.374C380.481 431.738 380.915 432.235 381.195 432.865C381.489 433.495 381.636 434.195 381.636 434.965V442H379.452V435.196C379.452 434.454 379.256 433.866 378.864 433.432C378.486 432.998 377.919 432.781 377.163 432.781C376.771 432.781 376.358 432.865 375.924 433.033C375.504 433.201 375.133 433.523 374.811 433.999C374.503 434.475 374.349 435.126 374.349 435.952V442H372.144V431.08Z" fill="black"/>
</g>
<defs>
<clipPath id="clip0_200_422">
<rect width="640" height="443" fill="white"/>
</clipPath>
</defs>
</svg>
