<svg width="646" height="477" viewBox="0 0 646 477" fill="none" xmlns="http://www.w3.org/2000/svg">
<path d="M471.885 149.154V326.845L318 415.689L164.115 326.845V149.154L318 60.3096L471.885 149.154Z" fill="#F5AF00" fill-opacity="0.5" stroke="#F5AF00" stroke-width="4"/>
<path d="M278.972 16.252C277.74 16.252 276.648 16.056 275.696 15.664C274.758 15.272 274.016 14.684 273.47 13.9C272.924 13.102 272.637 12.108 272.609 10.918H274.961C275.003 12.108 275.395 12.962 276.137 13.48C276.879 13.998 277.838 14.257 279.014 14.257C280.036 14.257 280.855 14.047 281.471 13.627C282.087 13.207 282.395 12.605 282.395 11.821C282.395 11.373 282.29 11.009 282.08 10.729C281.87 10.449 281.471 10.19 280.883 9.952C280.309 9.714 279.476 9.483 278.384 9.259C277.138 9.021 276.13 8.727 275.36 8.377C274.604 8.013 274.03 7.537 273.638 6.949C273.26 6.347 273.071 5.598 273.071 4.702C273.071 3.89 273.295 3.176 273.743 2.56C274.205 1.944 274.842 1.468 275.654 1.132C276.466 0.795999 277.39 0.627999 278.426 0.627999C280.414 0.627999 281.905 1.09 282.899 2.014C283.907 2.924 284.432 4.128 284.474 5.626H282.164C282.094 4.618 281.758 3.869 281.156 3.379C280.568 2.875 279.658 2.623 278.426 2.623C277.544 2.623 276.83 2.812 276.284 3.19C275.752 3.554 275.486 4.044 275.486 4.66C275.486 5.122 275.577 5.5 275.759 5.794C275.941 6.074 276.298 6.333 276.83 6.571C277.376 6.795 278.188 7.012 279.266 7.222C280.708 7.502 281.828 7.852 282.626 8.272C283.438 8.678 284.005 9.161 284.327 9.721C284.649 10.281 284.81 10.96 284.81 11.758C284.81 12.668 284.565 13.466 284.075 14.152C283.585 14.824 282.899 15.342 282.017 15.706C281.135 16.07 280.12 16.252 278.972 16.252ZM290.454 16C289.81 16 289.285 15.916 288.879 15.748C288.487 15.58 288.186 15.307 287.976 14.929C287.766 14.537 287.661 14.019 287.661 13.375V6.886H285.708V5.08H287.661V1.72H289.866V5.08H292.722V6.886H289.866V13.123C289.866 13.501 289.95 13.774 290.118 13.942C290.3 14.11 290.58 14.194 290.958 14.194H292.722V16H290.454ZM294.505 5.08H296.626V6.928C297.004 6.214 297.48 5.71 298.054 5.416C298.628 5.108 299.279 4.954 300.007 4.954H300.847V7.033H299.944C299.286 7.033 298.719 7.138 298.243 7.348C297.767 7.558 297.389 7.915 297.109 8.419C296.843 8.923 296.71 9.595 296.71 10.435V16H294.505V5.08ZM312.139 16H310.018V14.467C309.626 15.013 309.136 15.447 308.548 15.769C307.974 16.091 307.302 16.252 306.532 16.252C305.678 16.252 304.957 16.07 304.369 15.706C303.795 15.342 303.361 14.845 303.067 14.215C302.787 13.585 302.647 12.885 302.647 12.115V5.08H304.831V11.884C304.831 12.626 305.02 13.214 305.398 13.648C305.79 14.082 306.364 14.299 307.12 14.299C307.512 14.299 307.918 14.215 308.338 14.047C308.772 13.879 309.143 13.557 309.451 13.081C309.773 12.605 309.934 11.954 309.934 11.128V5.08H312.139V16ZM319.391 16.252C318.341 16.252 317.417 16.007 316.619 15.517C315.835 15.027 315.226 14.348 314.792 13.48C314.372 12.612 314.162 11.632 314.162 10.54C314.162 9.448 314.372 8.468 314.792 7.6C315.226 6.732 315.835 6.053 316.619 5.563C317.417 5.073 318.341 4.828 319.391 4.828C320.777 4.828 321.89 5.199 322.73 5.941C323.57 6.669 324.081 7.649 324.263 8.881H322.016C321.876 8.209 321.575 7.684 321.113 7.306C320.651 6.914 320.077 6.718 319.391 6.718C318.747 6.718 318.201 6.879 317.753 7.201C317.319 7.523 316.99 7.971 316.766 8.545C316.542 9.119 316.43 9.784 316.43 10.54C316.43 11.296 316.542 11.961 316.766 12.535C316.99 13.109 317.319 13.557 317.753 13.879C318.201 14.201 318.747 14.362 319.391 14.362C320.091 14.362 320.672 14.166 321.134 13.774C321.596 13.368 321.89 12.815 322.016 12.115H324.263C324.095 13.361 323.57 14.362 322.688 15.118C321.82 15.874 320.721 16.252 319.391 16.252ZM329.952 16C329.308 16 328.783 15.916 328.377 15.748C327.985 15.58 327.684 15.307 327.474 14.929C327.264 14.537 327.159 14.019 327.159 13.375V6.886H325.206V5.08H327.159V1.72H329.364V5.08H332.22V6.886H329.364V13.123C329.364 13.501 329.448 13.774 329.616 13.942C329.798 14.11 330.078 14.194 330.456 14.194H332.22V16H329.952ZM343.495 16H341.374V14.467C340.982 15.013 340.492 15.447 339.904 15.769C339.33 16.091 338.658 16.252 337.888 16.252C337.034 16.252 336.313 16.07 335.725 15.706C335.151 15.342 334.717 14.845 334.423 14.215C334.143 13.585 334.003 12.885 334.003 12.115V5.08H336.187V11.884C336.187 12.626 336.376 13.214 336.754 13.648C337.146 14.082 337.72 14.299 338.476 14.299C338.868 14.299 339.274 14.215 339.694 14.047C340.128 13.879 340.499 13.557 340.807 13.081C341.129 12.605 341.29 11.954 341.29 11.128V5.08H343.495V16ZM345.939 5.08H348.06V6.928C348.438 6.214 348.914 5.71 349.488 5.416C350.062 5.108 350.713 4.954 351.441 4.954H352.281V7.033H351.378C350.72 7.033 350.153 7.138 349.677 7.348C349.201 7.558 348.823 7.915 348.543 8.419C348.277 8.923 348.144 9.595 348.144 10.435V16H345.939V5.08ZM358.847 16.252C357.797 16.252 356.873 16.007 356.075 15.517C355.277 15.027 354.661 14.348 354.227 13.48C353.807 12.612 353.597 11.632 353.597 10.54C353.597 9.448 353.807 8.468 354.227 7.6C354.661 6.732 355.277 6.053 356.075 5.563C356.873 5.073 357.797 4.828 358.847 4.828C359.897 4.828 360.821 5.073 361.619 5.563C362.417 6.053 363.026 6.739 363.446 7.621C363.88 8.503 364.097 9.511 364.097 10.645V11.275H355.844C355.914 11.905 356.075 12.458 356.327 12.934C356.579 13.396 356.915 13.76 357.335 14.026C357.769 14.278 358.273 14.404 358.847 14.404C359.519 14.404 360.093 14.257 360.569 13.963C361.059 13.655 361.423 13.221 361.661 12.661H363.866C363.516 13.767 362.9 14.642 362.018 15.286C361.136 15.93 360.079 16.252 358.847 16.252ZM361.808 9.532C361.668 8.65 361.339 7.957 360.821 7.453C360.317 6.935 359.659 6.676 358.847 6.676C358.021 6.676 357.356 6.935 356.852 7.453C356.348 7.957 356.026 8.65 355.886 9.532H361.808Z" fill="#100700"/>
<path d="M521.064 134.252C519.51 134.252 518.18 133.902 517.074 133.202C515.968 132.502 515.135 131.564 514.575 130.388C514.015 129.198 513.735 127.882 513.735 126.44C513.735 124.998 514.015 123.689 514.575 122.513C515.135 121.323 515.968 120.378 517.074 119.678C518.18 118.978 519.51 118.628 521.064 118.628C522.24 118.628 523.283 118.859 524.193 119.321C525.103 119.783 525.838 120.427 526.398 121.253C526.958 122.065 527.329 122.989 527.511 124.025H525.138C525.012 123.367 524.76 122.793 524.382 122.303C524.018 121.813 523.549 121.435 522.975 121.169C522.415 120.889 521.778 120.749 521.064 120.749C519.986 120.749 519.076 121.001 518.334 121.505C517.592 122.009 517.046 122.688 516.696 123.542C516.346 124.396 516.171 125.362 516.171 126.44C516.171 127.518 516.346 128.484 516.696 129.338C517.046 130.192 517.592 130.871 518.334 131.375C519.076 131.879 519.986 132.131 521.064 132.131C521.834 132.131 522.513 131.977 523.101 131.669C523.689 131.347 524.165 130.906 524.529 130.346C524.893 129.772 525.131 129.128 525.243 128.414H527.595C527.455 129.52 527.105 130.521 526.545 131.417C525.999 132.299 525.25 132.992 524.298 133.496C523.36 134 522.282 134.252 521.064 134.252ZM534.472 134.252C533.38 134.252 532.421 134.007 531.595 133.517C530.769 133.027 530.139 132.348 529.705 131.48C529.285 130.612 529.075 129.632 529.075 128.54C529.075 127.448 529.285 126.468 529.705 125.6C530.139 124.732 530.769 124.053 531.595 123.563C532.421 123.073 533.38 122.828 534.472 122.828C535.578 122.828 536.537 123.073 537.349 123.563C538.175 124.053 538.805 124.732 539.239 125.6C539.673 126.468 539.89 127.448 539.89 128.54C539.89 129.632 539.673 130.612 539.239 131.48C538.805 132.348 538.175 133.027 537.349 133.517C536.537 134.007 535.578 134.252 534.472 134.252ZM534.472 132.362C535.172 132.362 535.753 132.201 536.215 131.879C536.691 131.557 537.041 131.109 537.265 130.535C537.503 129.961 537.622 129.296 537.622 128.54C537.622 127.784 537.503 127.119 537.265 126.545C537.041 125.971 536.691 125.523 536.215 125.201C535.753 124.879 535.172 124.718 534.472 124.718C533.786 124.718 533.205 124.879 532.729 125.201C532.267 125.523 531.917 125.971 531.679 126.545C531.455 127.119 531.343 127.784 531.343 128.54C531.343 129.296 531.455 129.961 531.679 130.535C531.917 131.109 532.267 131.557 532.729 131.879C533.205 132.201 533.786 132.362 534.472 132.362ZM541.842 118.88H544.047V131.123C544.047 131.501 544.131 131.774 544.299 131.942C544.467 132.11 544.747 132.194 545.139 132.194H546.588V134H544.635C543.991 134 543.466 133.916 543.06 133.748C542.654 133.58 542.346 133.307 542.136 132.929C541.94 132.537 541.842 132.019 541.842 131.375V118.88ZM548.364 118.88H550.569V131.123C550.569 131.501 550.653 131.774 550.821 131.942C550.989 132.11 551.269 132.194 551.661 132.194H553.11V134H551.157C550.513 134 549.988 133.916 549.582 133.748C549.176 133.58 548.868 133.307 548.658 132.929C548.462 132.537 548.364 132.019 548.364 131.375V118.88ZM558.245 134.252C557.027 134.252 556.061 133.972 555.347 133.412C554.633 132.838 554.276 132.033 554.276 130.997C554.276 130.367 554.43 129.828 554.738 129.38C555.046 128.932 555.494 128.568 556.082 128.288C556.684 127.994 557.433 127.763 558.329 127.595L561.626 126.986V126.272C561.626 125.698 561.444 125.285 561.08 125.033C560.73 124.767 560.184 124.634 559.442 124.634C558.728 124.634 558.133 124.781 557.657 125.075C557.195 125.355 556.943 125.831 556.901 126.503H554.717C554.745 125.271 555.2 124.354 556.082 123.752C556.964 123.136 558.084 122.828 559.442 122.828C560.884 122.828 561.969 123.108 562.697 123.668C563.425 124.228 563.789 125.019 563.789 126.041V134H561.71V132.698C561.276 133.244 560.765 133.643 560.177 133.895C559.603 134.133 558.959 134.252 558.245 134.252ZM558.581 132.488C559.099 132.488 559.589 132.39 560.051 132.194C560.527 131.998 560.905 131.697 561.185 131.291C561.479 130.871 561.626 130.346 561.626 129.716V128.624L558.707 129.233C557.951 129.387 557.398 129.583 557.048 129.821C556.712 130.045 556.544 130.416 556.544 130.934C556.544 131.424 556.712 131.809 557.048 132.089C557.384 132.355 557.895 132.488 558.581 132.488ZM571.63 134.252C570.832 134.252 570.132 134.091 569.53 133.769C568.942 133.447 568.452 132.992 568.06 132.404V134H565.939V118.88H568.144V124.529C568.522 123.983 569.005 123.563 569.593 123.269C570.181 122.975 570.86 122.828 571.63 122.828C572.68 122.828 573.576 123.073 574.318 123.563C575.074 124.053 575.648 124.732 576.04 125.6C576.432 126.454 576.628 127.434 576.628 128.54C576.628 129.646 576.432 130.633 576.04 131.501C575.648 132.355 575.074 133.027 574.318 133.517C573.576 134.007 572.68 134.252 571.63 134.252ZM571.231 132.362C571.917 132.362 572.491 132.201 572.953 131.879C573.415 131.557 573.758 131.109 573.982 130.535C574.22 129.961 574.339 129.296 574.339 128.54C574.339 127.784 574.22 127.119 573.982 126.545C573.758 125.971 573.415 125.523 572.953 125.201C572.491 124.879 571.917 124.718 571.231 124.718C570.531 124.718 569.95 124.879 569.488 125.201C569.026 125.523 568.676 125.971 568.438 126.545C568.214 127.119 568.102 127.784 568.102 128.54C568.102 129.296 568.214 129.961 568.438 130.535C568.676 131.109 569.026 131.557 569.488 131.879C569.95 132.201 570.531 132.362 571.231 132.362ZM583.486 134.252C582.394 134.252 581.435 134.007 580.609 133.517C579.783 133.027 579.153 132.348 578.719 131.48C578.299 130.612 578.089 129.632 578.089 128.54C578.089 127.448 578.299 126.468 578.719 125.6C579.153 124.732 579.783 124.053 580.609 123.563C581.435 123.073 582.394 122.828 583.486 122.828C584.592 122.828 585.551 123.073 586.363 123.563C587.189 124.053 587.819 124.732 588.253 125.6C588.687 126.468 588.904 127.448 588.904 128.54C588.904 129.632 588.687 130.612 588.253 131.48C587.819 132.348 587.189 133.027 586.363 133.517C585.551 134.007 584.592 134.252 583.486 134.252ZM583.486 132.362C584.186 132.362 584.767 132.201 585.229 131.879C585.705 131.557 586.055 131.109 586.279 130.535C586.517 129.961 586.636 129.296 586.636 128.54C586.636 127.784 586.517 127.119 586.279 126.545C586.055 125.971 585.705 125.523 585.229 125.201C584.767 124.879 584.186 124.718 583.486 124.718C582.8 124.718 582.219 124.879 581.743 125.201C581.281 125.523 580.931 125.971 580.693 126.545C580.469 127.119 580.357 127.784 580.357 128.54C580.357 129.296 580.469 129.961 580.693 130.535C580.931 131.109 581.281 131.557 581.743 131.879C582.219 132.201 582.8 132.362 583.486 132.362ZM590.856 123.08H592.977V124.928C593.355 124.214 593.831 123.71 594.405 123.416C594.979 123.108 595.63 122.954 596.358 122.954H597.198V125.033H596.295C595.637 125.033 595.07 125.138 594.594 125.348C594.118 125.558 593.74 125.915 593.46 126.419C593.194 126.923 593.061 127.595 593.061 128.435V134H590.856V123.08ZM602.357 134.252C601.139 134.252 600.173 133.972 599.459 133.412C598.745 132.838 598.388 132.033 598.388 130.997C598.388 130.367 598.542 129.828 598.85 129.38C599.158 128.932 599.606 128.568 600.194 128.288C600.796 127.994 601.545 127.763 602.441 127.595L605.738 126.986V126.272C605.738 125.698 605.556 125.285 605.192 125.033C604.842 124.767 604.296 124.634 603.554 124.634C602.84 124.634 602.245 124.781 601.769 125.075C601.307 125.355 601.055 125.831 601.013 126.503H598.829C598.857 125.271 599.312 124.354 600.194 123.752C601.076 123.136 602.196 122.828 603.554 122.828C604.996 122.828 606.081 123.108 606.809 123.668C607.537 124.228 607.901 125.019 607.901 126.041V134H605.822V132.698C605.388 133.244 604.877 133.643 604.289 133.895C603.715 134.133 603.071 134.252 602.357 134.252ZM602.693 132.488C603.211 132.488 603.701 132.39 604.163 132.194C604.639 131.998 605.017 131.697 605.297 131.291C605.591 130.871 605.738 130.346 605.738 129.716V128.624L602.819 129.233C602.063 129.387 601.51 129.583 601.16 129.821C600.824 130.045 600.656 130.416 600.656 130.934C600.656 131.424 600.824 131.809 601.16 132.089C601.496 132.355 602.007 132.488 602.693 132.488ZM613.936 134C613.292 134 612.767 133.916 612.361 133.748C611.969 133.58 611.668 133.307 611.458 132.929C611.248 132.537 611.143 132.019 611.143 131.375V124.886H609.19V123.08H611.143V119.72H613.348V123.08H616.204V124.886H613.348V131.123C613.348 131.501 613.432 131.774 613.6 131.942C613.782 132.11 614.062 132.194 614.44 132.194H616.204V134H613.936ZM617.946 123.08H620.151V134H617.946V123.08ZM617.946 118.88H620.151V121.19H617.946V118.88ZM627.475 134.252C626.383 134.252 625.424 134.007 624.598 133.517C623.772 133.027 623.142 132.348 622.708 131.48C622.288 130.612 622.078 129.632 622.078 128.54C622.078 127.448 622.288 126.468 622.708 125.6C623.142 124.732 623.772 124.053 624.598 123.563C625.424 123.073 626.383 122.828 627.475 122.828C628.581 122.828 629.54 123.073 630.352 123.563C631.178 124.053 631.808 124.732 632.242 125.6C632.676 126.468 632.893 127.448 632.893 128.54C632.893 129.632 632.676 130.612 632.242 131.48C631.808 132.348 631.178 133.027 630.352 133.517C629.54 134.007 628.581 134.252 627.475 134.252ZM627.475 132.362C628.175 132.362 628.756 132.201 629.218 131.879C629.694 131.557 630.044 131.109 630.268 130.535C630.506 129.961 630.625 129.296 630.625 128.54C630.625 127.784 630.506 127.119 630.268 126.545C630.044 125.971 629.694 125.523 629.218 125.201C628.756 124.879 628.175 124.718 627.475 124.718C626.789 124.718 626.208 124.879 625.732 125.201C625.27 125.523 624.92 125.971 624.682 126.545C624.458 127.119 624.346 127.784 624.346 128.54C624.346 129.296 624.458 129.961 624.682 130.535C624.92 131.109 625.27 131.557 625.732 131.879C626.208 132.201 626.789 132.362 627.475 132.362ZM634.845 123.08H636.966V124.613C637.358 124.067 637.841 123.633 638.415 123.311C639.003 122.989 639.682 122.828 640.452 122.828C641.306 122.828 642.02 123.01 642.594 123.374C643.182 123.738 643.616 124.235 643.896 124.865C644.19 125.495 644.337 126.195 644.337 126.965V134H642.153V127.196C642.153 126.454 641.957 125.866 641.565 125.432C641.187 124.998 640.62 124.781 639.864 124.781C639.472 124.781 639.059 124.865 638.625 125.033C638.205 125.201 637.834 125.523 637.512 125.999C637.204 126.475 637.05 127.126 637.05 127.952V134H634.845V123.08Z" fill="#100700"/>
<path d="M518.3 344.88H520.946L526.994 360H524.495L523.004 356.115H516.242L514.73 360H512.294L518.3 344.88ZM522.248 354.078L519.623 347.211L516.998 354.078H522.248ZM535.069 359.769C534.481 360.091 533.788 360.252 532.99 360.252C531.94 360.252 531.037 360.007 530.281 359.517C529.539 359.027 528.972 358.355 528.58 357.501C528.188 356.633 527.992 355.646 527.992 354.54C527.992 353.434 528.188 352.454 528.58 351.6C528.972 350.732 529.539 350.053 530.281 349.563C531.037 349.073 531.94 348.828 532.99 348.828C533.76 348.828 534.439 348.975 535.027 349.269C535.615 349.563 536.098 349.983 536.476 350.529V344.88H538.681V360H536.56V358.404C536.168 358.992 535.671 359.447 535.069 359.769ZM531.667 357.879C532.129 358.201 532.703 358.362 533.389 358.362C534.089 358.362 534.67 358.201 535.132 357.879C535.594 357.557 535.937 357.109 536.161 356.535C536.399 355.961 536.518 355.296 536.518 354.54C536.518 353.784 536.399 353.119 536.161 352.545C535.937 351.971 535.594 351.523 535.132 351.201C534.67 350.879 534.089 350.718 533.389 350.718C532.703 350.718 532.129 350.879 531.667 351.201C531.205 351.523 530.855 351.971 530.617 352.545C530.393 353.119 530.281 353.784 530.281 354.54C530.281 355.296 530.393 355.961 530.617 356.535C530.855 357.109 531.205 357.557 531.667 357.879ZM544.469 360.252C543.251 360.252 542.285 359.972 541.571 359.412C540.857 358.838 540.5 358.033 540.5 356.997C540.5 356.367 540.654 355.828 540.962 355.38C541.27 354.932 541.718 354.568 542.306 354.288C542.908 353.994 543.657 353.763 544.553 353.595L547.85 352.986V352.272C547.85 351.698 547.668 351.285 547.304 351.033C546.954 350.767 546.408 350.634 545.666 350.634C544.952 350.634 544.357 350.781 543.881 351.075C543.419 351.355 543.167 351.831 543.125 352.503H540.941C540.969 351.271 541.424 350.354 542.306 349.752C543.188 349.136 544.308 348.828 545.666 348.828C547.108 348.828 548.193 349.108 548.921 349.668C549.649 350.228 550.013 351.019 550.013 352.041V360H547.934V358.698C547.5 359.244 546.989 359.643 546.401 359.895C545.827 360.133 545.183 360.252 544.469 360.252ZM544.805 358.488C545.323 358.488 545.813 358.39 546.275 358.194C546.751 357.998 547.129 357.697 547.409 357.291C547.703 356.871 547.85 356.346 547.85 355.716V354.624L544.931 355.233C544.175 355.387 543.622 355.583 543.272 355.821C542.936 356.045 542.768 356.416 542.768 356.934C542.768 357.424 542.936 357.809 543.272 358.089C543.608 358.355 544.119 358.488 544.805 358.488ZM555.753 349.311C556.355 348.989 557.055 348.828 557.853 348.828C558.903 348.828 559.799 349.073 560.541 349.563C561.297 350.053 561.871 350.732 562.263 351.6C562.655 352.454 562.851 353.434 562.851 354.54C562.851 355.646 562.655 356.633 562.263 357.501C561.871 358.355 561.297 359.027 560.541 359.517C559.799 360.007 558.903 360.252 557.853 360.252C557.083 360.252 556.404 360.105 555.816 359.811C555.228 359.517 554.745 359.097 554.367 358.551V364.2H552.162V349.08H554.283V350.676C554.675 350.088 555.165 349.633 555.753 349.311ZM559.176 351.201C558.714 350.879 558.14 350.718 557.454 350.718C556.754 350.718 556.173 350.879 555.711 351.201C555.249 351.523 554.899 351.971 554.661 352.545C554.437 353.119 554.325 353.784 554.325 354.54C554.325 355.296 554.437 355.961 554.661 356.535C554.899 357.109 555.249 357.557 555.711 357.879C556.173 358.201 556.754 358.362 557.454 358.362C558.14 358.362 558.714 358.201 559.176 357.879C559.638 357.557 559.981 357.109 560.205 356.535C560.443 355.961 560.562 355.296 560.562 354.54C560.562 353.784 560.443 353.119 560.205 352.545C559.981 351.971 559.638 351.523 559.176 351.201ZM568.66 360C568.016 360 567.491 359.916 567.085 359.748C566.693 359.58 566.392 359.307 566.182 358.929C565.972 358.537 565.867 358.019 565.867 357.375V350.886H563.914V349.08H565.867V345.72H568.072V349.08H570.928V350.886H568.072V357.123C568.072 357.501 568.156 357.774 568.324 357.942C568.506 358.11 568.786 358.194 569.164 358.194H570.928V360H568.66ZM576.071 360.252C574.853 360.252 573.887 359.972 573.173 359.412C572.459 358.838 572.102 358.033 572.102 356.997C572.102 356.367 572.256 355.828 572.564 355.38C572.872 354.932 573.32 354.568 573.908 354.288C574.51 353.994 575.259 353.763 576.155 353.595L579.452 352.986V352.272C579.452 351.698 579.27 351.285 578.906 351.033C578.556 350.767 578.01 350.634 577.268 350.634C576.554 350.634 575.959 350.781 575.483 351.075C575.021 351.355 574.769 351.831 574.727 352.503H572.543C572.571 351.271 573.026 350.354 573.908 349.752C574.79 349.136 575.91 348.828 577.268 348.828C578.71 348.828 579.795 349.108 580.523 349.668C581.251 350.228 581.615 351.019 581.615 352.041V360H579.536V358.698C579.102 359.244 578.591 359.643 578.003 359.895C577.429 360.133 576.785 360.252 576.071 360.252ZM576.407 358.488C576.925 358.488 577.415 358.39 577.877 358.194C578.353 357.998 578.731 357.697 579.011 357.291C579.305 356.871 579.452 356.346 579.452 355.716V354.624L576.533 355.233C575.777 355.387 575.224 355.583 574.874 355.821C574.538 356.045 574.37 356.416 574.37 356.934C574.37 357.424 574.538 357.809 574.874 358.089C575.21 358.355 575.721 358.488 576.407 358.488ZM587.65 360C587.006 360 586.481 359.916 586.075 359.748C585.683 359.58 585.382 359.307 585.172 358.929C584.962 358.537 584.857 358.019 584.857 357.375V350.886H582.904V349.08H584.857V345.72H587.062V349.08H589.918V350.886H587.062V357.123C587.062 357.501 587.146 357.774 587.314 357.942C587.496 358.11 587.776 358.194 588.154 358.194H589.918V360H587.65ZM591.659 349.08H593.864V360H591.659V349.08ZM591.659 344.88H593.864V347.19H591.659V344.88ZM601.189 360.252C600.097 360.252 599.138 360.007 598.312 359.517C597.486 359.027 596.856 358.348 596.422 357.48C596.002 356.612 595.792 355.632 595.792 354.54C595.792 353.448 596.002 352.468 596.422 351.6C596.856 350.732 597.486 350.053 598.312 349.563C599.138 349.073 600.097 348.828 601.189 348.828C602.295 348.828 603.254 349.073 604.066 349.563C604.892 350.053 605.522 350.732 605.956 351.6C606.39 352.468 606.607 353.448 606.607 354.54C606.607 355.632 606.39 356.612 605.956 357.48C605.522 358.348 604.892 359.027 604.066 359.517C603.254 360.007 602.295 360.252 601.189 360.252ZM601.189 358.362C601.889 358.362 602.47 358.201 602.932 357.879C603.408 357.557 603.758 357.109 603.982 356.535C604.22 355.961 604.339 355.296 604.339 354.54C604.339 353.784 604.22 353.119 603.982 352.545C603.758 351.971 603.408 351.523 602.932 351.201C602.47 350.879 601.889 350.718 601.189 350.718C600.503 350.718 599.922 350.879 599.446 351.201C598.984 351.523 598.634 351.971 598.396 352.545C598.172 353.119 598.06 353.784 598.06 354.54C598.06 355.296 598.172 355.961 598.396 356.535C598.634 357.109 598.984 357.557 599.446 357.879C599.922 358.201 600.503 358.362 601.189 358.362ZM608.559 349.08H610.68V350.613C611.072 350.067 611.555 349.633 612.129 349.311C612.717 348.989 613.396 348.828 614.166 348.828C615.02 348.828 615.734 349.01 616.308 349.374C616.896 349.738 617.33 350.235 617.61 350.865C617.904 351.495 618.051 352.195 618.051 352.965V360H615.867V353.196C615.867 352.454 615.671 351.866 615.279 351.432C614.901 350.998 614.334 350.781 613.578 350.781C613.186 350.781 612.773 350.865 612.339 351.033C611.919 351.201 611.548 351.523 611.226 351.999C610.918 352.475 610.764 353.126 610.764 353.952V360H608.559V349.08Z" fill="#100700"/>
<path d="M261.355 462.98H256.378V460.88H268.705V462.98H263.728V476H261.355V462.98ZM270.302 465.08H272.423V466.928C272.801 466.214 273.277 465.71 273.851 465.416C274.425 465.108 275.076 464.954 275.804 464.954H276.644V467.033H275.741C275.083 467.033 274.516 467.138 274.04 467.348C273.564 467.558 273.186 467.915 272.906 468.419C272.64 468.923 272.507 469.595 272.507 470.435V476H270.302V465.08ZM281.804 476.252C280.586 476.252 279.62 475.972 278.906 475.412C278.192 474.838 277.835 474.033 277.835 472.997C277.835 472.367 277.989 471.828 278.297 471.38C278.605 470.932 279.053 470.568 279.641 470.288C280.243 469.994 280.992 469.763 281.888 469.595L285.185 468.986V468.272C285.185 467.698 285.003 467.285 284.639 467.033C284.289 466.767 283.743 466.634 283.001 466.634C282.287 466.634 281.692 466.781 281.216 467.075C280.754 467.355 280.502 467.831 280.46 468.503H278.276C278.304 467.271 278.759 466.354 279.641 465.752C280.523 465.136 281.643 464.828 283.001 464.828C284.443 464.828 285.528 465.108 286.256 465.668C286.984 466.228 287.348 467.019 287.348 468.041V476H285.269V474.698C284.835 475.244 284.324 475.643 283.736 475.895C283.162 476.133 282.518 476.252 281.804 476.252ZM282.14 474.488C282.658 474.488 283.148 474.39 283.61 474.194C284.086 473.998 284.464 473.697 284.744 473.291C285.038 472.871 285.185 472.346 285.185 471.716V470.624L282.266 471.233C281.51 471.387 280.957 471.583 280.607 471.821C280.271 472.045 280.103 472.416 280.103 472.934C280.103 473.424 280.271 473.809 280.607 474.089C280.943 474.355 281.454 474.488 282.14 474.488ZM289.497 465.08H291.618V466.613C292.01 466.067 292.493 465.633 293.067 465.311C293.655 464.989 294.334 464.828 295.104 464.828C295.958 464.828 296.672 465.01 297.246 465.374C297.834 465.738 298.268 466.235 298.548 466.865C298.842 467.495 298.989 468.195 298.989 468.965V476H296.805V469.196C296.805 468.454 296.609 467.866 296.217 467.432C295.839 466.998 295.272 466.781 294.516 466.781C294.124 466.781 293.711 466.865 293.277 467.033C292.857 467.201 292.486 467.523 292.164 467.999C291.856 468.475 291.702 469.126 291.702 469.952V476H289.497V465.08ZM305.486 476.252C304.03 476.252 302.875 475.937 302.021 475.307C301.181 474.677 300.726 473.718 300.656 472.43H302.819C302.903 473.186 303.162 473.725 303.596 474.047C304.044 474.369 304.688 474.53 305.528 474.53C306.242 474.53 306.809 474.404 307.229 474.152C307.649 473.886 307.859 473.522 307.859 473.06C307.859 472.752 307.796 472.507 307.67 472.325C307.558 472.129 307.313 471.961 306.935 471.821C306.557 471.681 305.983 471.548 305.213 471.422C304.121 471.24 303.26 470.995 302.63 470.687C302 470.379 301.559 470.015 301.307 469.595C301.069 469.161 300.95 468.636 300.95 468.02C300.95 467.04 301.342 466.263 302.126 465.689C302.91 465.115 303.932 464.828 305.192 464.828C306.662 464.828 307.796 465.15 308.594 465.794C309.406 466.438 309.819 467.334 309.833 468.482H307.712C307.698 467.768 307.467 467.271 307.019 466.991C306.571 466.697 305.962 466.55 305.192 466.55C304.59 466.55 304.093 466.676 303.701 466.928C303.309 467.166 303.113 467.509 303.113 467.957C303.113 468.265 303.19 468.517 303.344 468.713C303.498 468.895 303.764 469.056 304.142 469.196C304.534 469.322 305.115 469.448 305.885 469.574C306.963 469.756 307.803 469.994 308.405 470.288C309.007 470.568 309.434 470.925 309.686 471.359C309.938 471.779 310.064 472.304 310.064 472.934C310.064 473.97 309.637 474.782 308.783 475.37C307.943 475.958 306.844 476.252 305.486 476.252ZM311.748 465.08H313.869V466.634C314.205 466.074 314.639 465.633 315.171 465.311C315.717 464.989 316.368 464.828 317.124 464.828C317.908 464.828 318.573 465.017 319.119 465.395C319.665 465.759 320.085 466.27 320.379 466.928C320.743 466.284 321.226 465.773 321.828 465.395C322.43 465.017 323.137 464.828 323.949 464.828C324.719 464.828 325.377 465.017 325.923 465.395C326.483 465.759 326.903 466.256 327.183 466.886C327.463 467.516 327.603 468.209 327.603 468.965V476H325.398V469.196C325.398 468.468 325.223 467.887 324.873 467.453C324.523 467.005 324.019 466.781 323.361 466.781C322.731 466.781 322.143 467.012 321.597 467.474C321.051 467.922 320.778 468.748 320.778 469.952V476H318.573V469.196C318.573 468.468 318.398 467.887 318.048 467.453C317.698 467.005 317.194 466.781 316.536 466.781C315.906 466.781 315.318 467.012 314.772 467.474C314.226 467.922 313.953 468.748 313.953 469.952V476H311.748V465.08ZM329.999 465.08H332.204V476H329.999V465.08ZM329.999 460.88H332.204V463.19H329.999V460.88ZM338.688 476.252C337.232 476.252 336.077 475.937 335.223 475.307C334.383 474.677 333.928 473.718 333.858 472.43H336.021C336.105 473.186 336.364 473.725 336.798 474.047C337.246 474.369 337.89 474.53 338.73 474.53C339.444 474.53 340.011 474.404 340.431 474.152C340.851 473.886 341.061 473.522 341.061 473.06C341.061 472.752 340.998 472.507 340.872 472.325C340.76 472.129 340.515 471.961 340.137 471.821C339.759 471.681 339.185 471.548 338.415 471.422C337.323 471.24 336.462 470.995 335.832 470.687C335.202 470.379 334.761 470.015 334.509 469.595C334.271 469.161 334.152 468.636 334.152 468.02C334.152 467.04 334.544 466.263 335.328 465.689C336.112 465.115 337.134 464.828 338.394 464.828C339.864 464.828 340.998 465.15 341.796 465.794C342.608 466.438 343.021 467.334 343.035 468.482H340.914C340.9 467.768 340.669 467.271 340.221 466.991C339.773 466.697 339.164 466.55 338.394 466.55C337.792 466.55 337.295 466.676 336.903 466.928C336.511 467.166 336.315 467.509 336.315 467.957C336.315 468.265 336.392 468.517 336.546 468.713C336.7 468.895 336.966 469.056 337.344 469.196C337.736 469.322 338.317 469.448 339.087 469.574C340.165 469.756 341.005 469.994 341.607 470.288C342.209 470.568 342.636 470.925 342.888 471.359C343.14 471.779 343.266 472.304 343.266 472.934C343.266 473.97 342.839 474.782 341.985 475.37C341.145 475.958 340.046 476.252 338.688 476.252ZM349.024 476.252C347.568 476.252 346.413 475.937 345.559 475.307C344.719 474.677 344.264 473.718 344.194 472.43H346.357C346.441 473.186 346.7 473.725 347.134 474.047C347.582 474.369 348.226 474.53 349.066 474.53C349.78 474.53 350.347 474.404 350.767 474.152C351.187 473.886 351.397 473.522 351.397 473.06C351.397 472.752 351.334 472.507 351.208 472.325C351.096 472.129 350.851 471.961 350.473 471.821C350.095 471.681 349.521 471.548 348.751 471.422C347.659 471.24 346.798 470.995 346.168 470.687C345.538 470.379 345.097 470.015 344.845 469.595C344.607 469.161 344.488 468.636 344.488 468.02C344.488 467.04 344.88 466.263 345.664 465.689C346.448 465.115 347.47 464.828 348.73 464.828C350.2 464.828 351.334 465.15 352.132 465.794C352.944 466.438 353.357 467.334 353.371 468.482H351.25C351.236 467.768 351.005 467.271 350.557 466.991C350.109 466.697 349.5 466.55 348.73 466.55C348.128 466.55 347.631 466.676 347.239 466.928C346.847 467.166 346.651 467.509 346.651 467.957C346.651 468.265 346.728 468.517 346.882 468.713C347.036 468.895 347.302 469.056 347.68 469.196C348.072 469.322 348.653 469.448 349.423 469.574C350.501 469.756 351.341 469.994 351.943 470.288C352.545 470.568 352.972 470.925 353.224 471.359C353.476 471.779 353.602 472.304 353.602 472.934C353.602 473.97 353.175 474.782 352.321 475.37C351.481 475.958 350.382 476.252 349.024 476.252ZM355.244 465.08H357.449V476H355.244V465.08ZM355.244 460.88H357.449V463.19H355.244V460.88ZM364.774 476.252C363.682 476.252 362.723 476.007 361.897 475.517C361.071 475.027 360.441 474.348 360.007 473.48C359.587 472.612 359.377 471.632 359.377 470.54C359.377 469.448 359.587 468.468 360.007 467.6C360.441 466.732 361.071 466.053 361.897 465.563C362.723 465.073 363.682 464.828 364.774 464.828C365.88 464.828 366.839 465.073 367.651 465.563C368.477 466.053 369.107 466.732 369.541 467.6C369.975 468.468 370.192 469.448 370.192 470.54C370.192 471.632 369.975 472.612 369.541 473.48C369.107 474.348 368.477 475.027 367.651 475.517C366.839 476.007 365.88 476.252 364.774 476.252ZM364.774 474.362C365.474 474.362 366.055 474.201 366.517 473.879C366.993 473.557 367.343 473.109 367.567 472.535C367.805 471.961 367.924 471.296 367.924 470.54C367.924 469.784 367.805 469.119 367.567 468.545C367.343 467.971 366.993 467.523 366.517 467.201C366.055 466.879 365.474 466.718 364.774 466.718C364.088 466.718 363.507 466.879 363.031 467.201C362.569 467.523 362.219 467.971 361.981 468.545C361.757 469.119 361.645 469.784 361.645 470.54C361.645 471.296 361.757 471.961 361.981 472.535C362.219 473.109 362.569 473.557 363.031 473.879C363.507 474.201 364.088 474.362 364.774 474.362ZM372.144 465.08H374.265V466.613C374.657 466.067 375.14 465.633 375.714 465.311C376.302 464.989 376.981 464.828 377.751 464.828C378.605 464.828 379.319 465.01 379.893 465.374C380.481 465.738 380.915 466.235 381.195 466.865C381.489 467.495 381.636 468.195 381.636 468.965V476H379.452V469.196C379.452 468.454 379.256 467.866 378.864 467.432C378.486 466.998 377.919 466.781 377.163 466.781C376.771 466.781 376.358 466.865 375.924 467.033C375.504 467.201 375.133 467.523 374.811 467.999C374.503 468.475 374.349 469.126 374.349 469.952V476H372.144V465.08Z" fill="#100700"/>
<path d="M8.064 360.252C6.51 360.252 5.18 359.902 4.074 359.202C2.968 358.502 2.135 357.564 1.575 356.388C1.015 355.198 0.735 353.882 0.735 352.44C0.735 350.998 1.015 349.689 1.575 348.513C2.135 347.323 2.968 346.378 4.074 345.678C5.18 344.978 6.51 344.628 8.064 344.628C9.632 344.628 10.969 344.978 12.075 345.678C13.181 346.378 14.014 347.323 14.574 348.513C15.134 349.689 15.414 350.998 15.414 352.44C15.414 353.882 15.134 355.198 14.574 356.388C14.014 357.564 13.181 358.502 12.075 359.202C10.969 359.902 9.632 360.252 8.064 360.252ZM8.064 358.131C9.156 358.131 10.066 357.879 10.794 357.375C11.536 356.871 12.082 356.192 12.432 355.338C12.796 354.484 12.978 353.518 12.978 352.44C12.978 351.362 12.796 350.396 12.432 349.542C12.082 348.688 11.536 348.009 10.794 347.505C10.066 347.001 9.156 346.749 8.064 346.749C6.986 346.749 6.076 347.001 5.334 347.505C4.592 348.009 4.046 348.688 3.696 349.542C3.346 350.396 3.171 351.362 3.171 352.44C3.171 353.518 3.346 354.484 3.696 355.338C4.046 356.192 4.592 356.871 5.334 357.375C6.076 357.879 6.986 358.131 8.064 358.131ZM20.9486 349.311C21.5506 348.989 22.2506 348.828 23.0486 348.828C24.0986 348.828 24.9946 349.073 25.7366 349.563C26.4926 350.053 27.0666 350.732 27.4586 351.6C27.8506 352.454 28.0466 353.434 28.0466 354.54C28.0466 355.646 27.8506 356.633 27.4586 357.501C27.0666 358.355 26.4926 359.027 25.7366 359.517C24.9946 360.007 24.0986 360.252 23.0486 360.252C22.2786 360.252 21.5996 360.105 21.0116 359.811C20.4236 359.517 19.9406 359.097 19.5626 358.551V364.2H17.3576V349.08H19.4786V350.676C19.8706 350.088 20.3606 349.633 20.9486 349.311ZM24.3716 351.201C23.9096 350.879 23.3356 350.718 22.6496 350.718C21.9496 350.718 21.3686 350.879 20.9066 351.201C20.4446 351.523 20.0946 351.971 19.8566 352.545C19.6326 353.119 19.5206 353.784 19.5206 354.54C19.5206 355.296 19.6326 355.961 19.8566 356.535C20.0946 357.109 20.4446 357.557 20.9066 357.879C21.3686 358.201 21.9496 358.362 22.6496 358.362C23.3356 358.362 23.9096 358.201 24.3716 357.879C24.8336 357.557 25.1766 357.109 25.4006 356.535C25.6386 355.961 25.7576 355.296 25.7576 354.54C25.7576 353.784 25.6386 353.119 25.4006 352.545C25.1766 351.971 24.8336 351.523 24.3716 351.201ZM33.855 360C33.211 360 32.686 359.916 32.28 359.748C31.888 359.58 31.587 359.307 31.377 358.929C31.167 358.537 31.062 358.019 31.062 357.375V350.886H29.109V349.08H31.062V345.72H33.267V349.08H36.123V350.886H33.267V357.123C33.267 357.501 33.351 357.774 33.519 357.942C33.701 358.11 33.981 358.194 34.359 358.194H36.123V360H33.855ZM37.8645 349.08H40.0695V360H37.8645V349.08ZM37.8645 344.88H40.0695V347.19H37.8645V344.88ZM42.4797 349.08H44.6007V350.634C44.9367 350.074 45.3707 349.633 45.9027 349.311C46.4487 348.989 47.0997 348.828 47.8557 348.828C48.6397 348.828 49.3047 349.017 49.8507 349.395C50.3967 349.759 50.8167 350.27 51.1107 350.928C51.4747 350.284 51.9577 349.773 52.5597 349.395C53.1617 349.017 53.8687 348.828 54.6807 348.828C55.4507 348.828 56.1087 349.017 56.6547 349.395C57.2147 349.759 57.6347 350.256 57.9147 350.886C58.1947 351.516 58.3347 352.209 58.3347 352.965V360H56.1297V353.196C56.1297 352.468 55.9547 351.887 55.6047 351.453C55.2547 351.005 54.7507 350.781 54.0927 350.781C53.4627 350.781 52.8747 351.012 52.3287 351.474C51.7827 351.922 51.5097 352.748 51.5097 353.952V360H49.3047V353.196C49.3047 352.468 49.1297 351.887 48.7797 351.453C48.4297 351.005 47.9257 350.781 47.2677 350.781C46.6377 350.781 46.0497 351.012 45.5037 351.474C44.9577 351.922 44.6847 352.748 44.6847 353.952V360H42.4797V349.08ZM60.7307 349.08H62.9357V360H60.7307V349.08ZM60.7307 344.88H62.9357V347.19H60.7307V344.88ZM69.4199 360.252C67.9639 360.252 66.8089 359.937 65.9549 359.307C65.1149 358.677 64.6599 357.718 64.5899 356.43H66.7529C66.8369 357.186 67.0959 357.725 67.5299 358.047C67.9779 358.369 68.6219 358.53 69.4619 358.53C70.1759 358.53 70.7429 358.404 71.1629 358.152C71.5829 357.886 71.7929 357.522 71.7929 357.06C71.7929 356.752 71.7299 356.507 71.6039 356.325C71.4919 356.129 71.2469 355.961 70.8689 355.821C70.4909 355.681 69.9169 355.548 69.1469 355.422C68.0549 355.24 67.1939 354.995 66.5639 354.687C65.9339 354.379 65.4929 354.015 65.2409 353.595C65.0029 353.161 64.8839 352.636 64.8839 352.02C64.8839 351.04 65.2759 350.263 66.0599 349.689C66.8439 349.115 67.8659 348.828 69.1259 348.828C70.5959 348.828 71.7299 349.15 72.5279 349.794C73.3399 350.438 73.7529 351.334 73.7669 352.482H71.6459C71.6319 351.768 71.4009 351.271 70.9529 350.991C70.5049 350.697 69.8959 350.55 69.1259 350.55C68.5239 350.55 68.0269 350.676 67.6349 350.928C67.2429 351.166 67.0469 351.509 67.0469 351.957C67.0469 352.265 67.1239 352.517 67.2779 352.713C67.4319 352.895 67.6979 353.056 68.0759 353.196C68.4679 353.322 69.0489 353.448 69.8189 353.574C70.8969 353.756 71.7369 353.994 72.3389 354.288C72.9409 354.568 73.3679 354.925 73.6199 355.359C73.8719 355.779 73.9979 356.304 73.9979 356.934C73.9979 357.97 73.5709 358.782 72.7169 359.37C71.8769 359.958 70.7779 360.252 69.4199 360.252ZM79.0419 360.252C77.8239 360.252 76.8579 359.972 76.1439 359.412C75.4299 358.838 75.0729 358.033 75.0729 356.997C75.0729 356.367 75.2269 355.828 75.5349 355.38C75.8429 354.932 76.2909 354.568 76.8789 354.288C77.4809 353.994 78.2299 353.763 79.1259 353.595L82.4229 352.986V352.272C82.4229 351.698 82.2409 351.285 81.8769 351.033C81.5269 350.767 80.9809 350.634 80.2389 350.634C79.5249 350.634 78.9299 350.781 78.4539 351.075C77.9919 351.355 77.7399 351.831 77.6979 352.503H75.5139C75.5419 351.271 75.9969 350.354 76.8789 349.752C77.7609 349.136 78.8809 348.828 80.2389 348.828C81.6809 348.828 82.7659 349.108 83.4939 349.668C84.2219 350.228 84.5859 351.019 84.5859 352.041V360H82.5069V358.698C82.0729 359.244 81.5619 359.643 80.9739 359.895C80.3999 360.133 79.7559 360.252 79.0419 360.252ZM79.3779 358.488C79.8959 358.488 80.3859 358.39 80.8479 358.194C81.3239 357.998 81.7019 357.697 81.9819 357.291C82.2759 356.871 82.4229 356.346 82.4229 355.716V354.624L79.5039 355.233C78.7479 355.387 78.1949 355.583 77.8449 355.821C77.5089 356.045 77.3409 356.416 77.3409 356.934C77.3409 357.424 77.5089 357.809 77.8449 358.089C78.1809 358.355 78.6919 358.488 79.3779 358.488ZM90.6206 360C89.9766 360 89.4516 359.916 89.0456 359.748C88.6536 359.58 88.3526 359.307 88.1426 358.929C87.9326 358.537 87.8276 358.019 87.8276 357.375V350.886H85.8746V349.08H87.8276V345.72H90.0326V349.08H92.8886V350.886H90.0326V357.123C90.0326 357.501 90.1166 357.774 90.2846 357.942C90.4666 358.11 90.7466 358.194 91.1246 358.194H92.8886V360H90.6206ZM94.6301 349.08H96.8351V360H94.6301V349.08ZM94.6301 344.88H96.8351V347.19H94.6301V344.88ZM104.159 360.252C103.067 360.252 102.108 360.007 101.282 359.517C100.456 359.027 99.8263 358.348 99.3923 357.48C98.9723 356.612 98.7623 355.632 98.7623 354.54C98.7623 353.448 98.9723 352.468 99.3923 351.6C99.8263 350.732 100.456 350.053 101.282 349.563C102.108 349.073 103.067 348.828 104.159 348.828C105.265 348.828 106.224 349.073 107.036 349.563C107.862 350.053 108.492 350.732 108.926 351.6C109.36 352.468 109.577 353.448 109.577 354.54C109.577 355.632 109.36 356.612 108.926 357.48C108.492 358.348 107.862 359.027 107.036 359.517C106.224 360.007 105.265 360.252 104.159 360.252ZM104.159 358.362C104.859 358.362 105.44 358.201 105.902 357.879C106.378 357.557 106.728 357.109 106.952 356.535C107.19 355.961 107.309 355.296 107.309 354.54C107.309 353.784 107.19 353.119 106.952 352.545C106.728 351.971 106.378 351.523 105.902 351.201C105.44 350.879 104.859 350.718 104.159 350.718C103.473 350.718 102.892 350.879 102.416 351.201C101.954 351.523 101.604 351.971 101.366 352.545C101.142 353.119 101.03 353.784 101.03 354.54C101.03 355.296 101.142 355.961 101.366 356.535C101.604 357.109 101.954 357.557 102.416 357.879C102.892 358.201 103.473 358.362 104.159 358.362ZM111.53 349.08H113.651V350.613C114.043 350.067 114.526 349.633 115.1 349.311C115.688 348.989 116.367 348.828 117.137 348.828C117.991 348.828 118.705 349.01 119.279 349.374C119.867 349.738 120.301 350.235 120.581 350.865C120.875 351.495 121.022 352.195 121.022 352.965V360H118.838V353.196C118.838 352.454 118.642 351.866 118.25 351.432C117.872 350.998 117.305 350.781 116.549 350.781C116.157 350.781 115.744 350.865 115.31 351.033C114.89 351.201 114.519 351.523 114.197 351.999C113.889 352.475 113.735 353.126 113.735 353.952V360H111.53V349.08Z" fill="#100700"/>
<path d="M39.365 102.88H42.578L47.156 115.018L51.713 102.88H54.947V118H52.679V106.408L48.185 118H46.106L41.612 106.408V118H39.365V102.88ZM62.2985 118.252C61.2485 118.252 60.3245 118.007 59.5265 117.517C58.7285 117.027 58.1125 116.348 57.6785 115.48C57.2585 114.612 57.0485 113.632 57.0485 112.54C57.0485 111.448 57.2585 110.468 57.6785 109.6C58.1125 108.732 58.7285 108.053 59.5265 107.563C60.3245 107.073 61.2485 106.828 62.2985 106.828C63.3485 106.828 64.2725 107.073 65.0705 107.563C65.8685 108.053 66.4775 108.739 66.8975 109.621C67.3315 110.503 67.5485 111.511 67.5485 112.645V113.275H59.2955C59.3655 113.905 59.5265 114.458 59.7785 114.934C60.0305 115.396 60.3665 115.76 60.7865 116.026C61.2205 116.278 61.7245 116.404 62.2985 116.404C62.9705 116.404 63.5445 116.257 64.0205 115.963C64.5105 115.655 64.8745 115.221 65.1125 114.661H67.3175C66.9675 115.767 66.3515 116.642 65.4695 117.286C64.5875 117.93 63.5305 118.252 62.2985 118.252ZM65.2595 111.532C65.1195 110.65 64.7905 109.957 64.2725 109.453C63.7685 108.935 63.1105 108.676 62.2985 108.676C61.4725 108.676 60.8075 108.935 60.3035 109.453C59.7995 109.957 59.4775 110.65 59.3375 111.532H65.2595ZM63.4115 102.628H66.0995L63.2225 105.694H61.3745L63.4115 102.628ZM69.508 107.08H71.629V108.634C71.965 108.074 72.399 107.633 72.931 107.311C73.477 106.989 74.128 106.828 74.884 106.828C75.668 106.828 76.333 107.017 76.879 107.395C77.425 107.759 77.845 108.27 78.139 108.928C78.503 108.284 78.986 107.773 79.588 107.395C80.19 107.017 80.897 106.828 81.709 106.828C82.479 106.828 83.137 107.017 83.683 107.395C84.243 107.759 84.663 108.256 84.943 108.886C85.223 109.516 85.363 110.209 85.363 110.965V118H83.158V111.196C83.158 110.468 82.983 109.887 82.633 109.453C82.283 109.005 81.779 108.781 81.121 108.781C80.491 108.781 79.903 109.012 79.357 109.474C78.811 109.922 78.538 110.748 78.538 111.952V118H76.333V111.196C76.333 110.468 76.158 109.887 75.808 109.453C75.458 109.005 74.954 108.781 74.296 108.781C73.666 108.781 73.078 109.012 72.532 109.474C71.986 109.922 71.713 110.748 71.713 111.952V118H69.508V107.08ZM92.715 118.252C91.623 118.252 90.664 118.007 89.838 117.517C89.012 117.027 88.382 116.348 87.948 115.48C87.528 114.612 87.318 113.632 87.318 112.54C87.318 111.448 87.528 110.468 87.948 109.6C88.382 108.732 89.012 108.053 89.838 107.563C90.664 107.073 91.623 106.828 92.715 106.828C93.821 106.828 94.78 107.073 95.592 107.563C96.418 108.053 97.048 108.732 97.482 109.6C97.916 110.468 98.133 111.448 98.133 112.54C98.133 113.632 97.916 114.612 97.482 115.48C97.048 116.348 96.418 117.027 95.592 117.517C94.78 118.007 93.821 118.252 92.715 118.252ZM92.715 116.362C93.415 116.362 93.996 116.201 94.458 115.879C94.934 115.557 95.284 115.109 95.508 114.535C95.746 113.961 95.865 113.296 95.865 112.54C95.865 111.784 95.746 111.119 95.508 110.545C95.284 109.971 94.934 109.523 94.458 109.201C93.996 108.879 93.415 108.718 92.715 108.718C92.029 108.718 91.448 108.879 90.972 109.201C90.51 109.523 90.16 109.971 89.922 110.545C89.698 111.119 89.586 111.784 89.586 112.54C89.586 113.296 89.698 113.961 89.922 114.535C90.16 115.109 90.51 115.557 90.972 115.879C91.448 116.201 92.029 116.362 92.715 116.362ZM100.043 107.08H102.248V118H100.043V107.08ZM100.043 102.88H102.248V105.19H100.043V102.88ZM104.658 107.08H106.779V108.928C107.157 108.214 107.633 107.71 108.207 107.416C108.781 107.108 109.432 106.954 110.16 106.954H111V109.033H110.097C109.439 109.033 108.872 109.138 108.396 109.348C107.92 109.558 107.542 109.915 107.262 110.419C106.996 110.923 106.863 111.595 106.863 112.435V118H104.658V107.08ZM117.567 118.252C116.517 118.252 115.593 118.007 114.795 117.517C113.997 117.027 113.381 116.348 112.947 115.48C112.527 114.612 112.317 113.632 112.317 112.54C112.317 111.448 112.527 110.468 112.947 109.6C113.381 108.732 113.997 108.053 114.795 107.563C115.593 107.073 116.517 106.828 117.567 106.828C118.617 106.828 119.541 107.073 120.339 107.563C121.137 108.053 121.746 108.739 122.166 109.621C122.6 110.503 122.817 111.511 122.817 112.645V113.275H114.564C114.634 113.905 114.795 114.458 115.047 114.934C115.299 115.396 115.635 115.76 116.055 116.026C116.489 116.278 116.993 116.404 117.567 116.404C118.239 116.404 118.813 116.257 119.289 115.963C119.779 115.655 120.143 115.221 120.381 114.661H122.586C122.236 115.767 121.62 116.642 120.738 117.286C119.856 117.93 118.799 118.252 117.567 118.252ZM120.528 111.532C120.388 110.65 120.059 109.957 119.541 109.453C119.037 108.935 118.379 108.676 117.567 108.676C116.741 108.676 116.076 108.935 115.572 109.453C115.068 109.957 114.746 110.65 114.606 111.532H120.528Z" fill="#100700"/>
<line x1="318.5" y1="59" x2="318.5" y2="32" stroke="#F5AF00"/>
<line x1="318.5" y1="445" x2="318.5" y2="418" stroke="#FFBA0A"/>
<line x1="163.133" y1="148.933" x2="139.75" y2="135.433" stroke="#F5AF00"/>
<line x1="496.633" y1="135.433" x2="473.25" y2="148.933" stroke="#F5AF00"/>
<line x1="162.633" y1="327.433" x2="139.25" y2="340.933" stroke="#F5AF00"/>
<line x1="495.133" y1="339.933" x2="471.75" y2="326.433" stroke="#F5AF00"/>
<ellipse opacity="0.8" cx="230.581" cy="234" rx="18.5814" ry="34" fill="#100700"/>
<ellipse opacity="0.8" cx="407.581" cy="234" rx="18.5814" ry="34" fill="#100700"/>
<path opacity="0.8" d="M285 279C309.067 300.511 325.919 300.727 353 279" stroke="#100700" stroke-width="8" stroke-linecap="round"/>
</svg>
