<svg width="343" height="182" viewBox="0 0 343 182" fill="none" xmlns="http://www.w3.org/2000/svg">
<path d="M224.13 58.91V119.111L171.992 149.211L119.854 119.111V58.91L171.992 28.8098L224.13 58.91Z" fill="#F5AF00" fill-opacity="0.5" stroke="#F5AF00" stroke-width="4"/>
<path d="M171.991 28.8099V20" stroke="#F5AF00"/>
<path d="M171.991 159V149.211" stroke="#FFBA0A"/>
<path d="M119.853 59.155L111.983 54.2606" stroke="#F5AF00"/>
<path d="M232 54.2606L224.13 59.155" stroke="#F5AF00"/>
<path d="M118.87 118.866L111 123.761" stroke="#F5AF00"/>
<path d="M231.016 123.761L223.146 118.866" stroke="#F5AF00"/>
<path opacity="0.8" d="M141.987 99.2889C145.519 99.2889 148.381 94.0298 148.381 87.5424C148.381 81.055 145.519 75.7959 141.987 75.7959C138.456 75.7959 135.593 81.055 135.593 87.5424C135.593 94.0298 138.456 99.2889 141.987 99.2889Z" fill="#100700"/>
<path opacity="0.8" d="M201.997 99.2889C205.528 99.2889 208.391 94.0298 208.391 87.5424C208.391 81.055 205.528 75.7959 201.997 75.7959C198.465 75.7959 195.603 81.055 195.603 87.5424C195.603 94.0298 198.465 99.2889 201.997 99.2889Z" fill="#100700"/>
<path opacity="0.8" d="M160.187 103.204C168.543 109.697 174.394 109.763 183.796 103.204" stroke="#100700" stroke-width="8" stroke-linecap="round"/>
<path d="M141.312 12.192C140.373 12.192 139.541 12.0427 138.816 11.744C138.101 11.4453 137.536 10.9973 137.12 10.4C136.704 9.792 136.485 9.03467 136.464 8.128H138.256C138.288 9.03467 138.587 9.68533 139.152 10.08C139.717 10.4747 140.448 10.672 141.344 10.672C142.123 10.672 142.747 10.512 143.216 10.192C143.685 9.872 143.92 9.41333 143.92 8.816C143.92 8.47467 143.84 8.19733 143.68 7.984C143.52 7.77067 143.216 7.57333 142.768 7.392C142.331 7.21067 141.696 7.03467 140.864 6.864C139.915 6.68267 139.147 6.45867 138.56 6.192C137.984 5.91467 137.547 5.552 137.248 5.104C136.96 4.64533 136.816 4.07467 136.816 3.392C136.816 2.77333 136.987 2.22933 137.328 1.76C137.68 1.29067 138.165 0.928 138.784 0.672C139.403 0.415999 140.107 0.287999 140.896 0.287999C142.411 0.287999 143.547 0.639999 144.304 1.344C145.072 2.03733 145.472 2.95467 145.504 4.096H143.744C143.691 3.328 143.435 2.75733 142.976 2.384C142.528 2 141.835 1.808 140.896 1.808C140.224 1.808 139.68 1.952 139.264 2.24C138.859 2.51733 138.656 2.89067 138.656 3.36C138.656 3.712 138.725 4 138.864 4.224C139.003 4.43733 139.275 4.63467 139.68 4.816C140.096 4.98667 140.715 5.152 141.536 5.312C142.635 5.52533 143.488 5.792 144.096 6.112C144.715 6.42133 145.147 6.78933 145.392 7.216C145.637 7.64267 145.76 8.16 145.76 8.768C145.76 9.46133 145.573 10.0693 145.2 10.592C144.827 11.104 144.304 11.4987 143.632 11.776C142.96 12.0533 142.187 12.192 141.312 12.192ZM150.06 12C149.569 12 149.169 11.936 148.86 11.808C148.561 11.68 148.332 11.472 148.172 11.184C148.012 10.8853 147.932 10.4907 147.932 10V5.056H146.444V3.68H147.932V1.12H149.612V3.68H151.788V5.056H149.612V9.808C149.612 10.096 149.676 10.304 149.804 10.432C149.943 10.56 150.156 10.624 150.444 10.624H151.788V12H150.06ZM153.147 3.68H154.763V5.088C155.051 4.544 155.413 4.16 155.851 3.936C156.288 3.70133 156.784 3.584 157.339 3.584H157.979V5.168H157.291C156.789 5.168 156.357 5.248 155.995 5.408C155.632 5.568 155.344 5.84 155.131 6.224C154.928 6.608 154.827 7.12 154.827 7.76V12H153.147V3.68ZM166.582 12H164.966V10.832C164.667 11.248 164.294 11.5787 163.846 11.824C163.409 12.0693 162.897 12.192 162.31 12.192C161.659 12.192 161.11 12.0533 160.662 11.776C160.225 11.4987 159.894 11.12 159.67 10.64C159.457 10.16 159.35 9.62667 159.35 9.04V3.68H161.014V8.864C161.014 9.42933 161.158 9.87733 161.446 10.208C161.745 10.5387 162.182 10.704 162.758 10.704C163.057 10.704 163.366 10.64 163.686 10.512C164.017 10.384 164.299 10.1387 164.534 9.776C164.779 9.41333 164.902 8.91733 164.902 8.288V3.68H166.582V12ZM172.108 12.192C171.308 12.192 170.604 12.0053 169.996 11.632C169.398 11.2587 168.934 10.7413 168.604 10.08C168.284 9.41867 168.124 8.672 168.124 7.84C168.124 7.008 168.284 6.26133 168.604 5.6C168.934 4.93867 169.398 4.42133 169.996 4.048C170.604 3.67467 171.308 3.488 172.108 3.488C173.164 3.488 174.012 3.77067 174.652 4.336C175.292 4.89067 175.681 5.63733 175.82 6.576H174.108C174.001 6.064 173.772 5.664 173.42 5.376C173.068 5.07733 172.63 4.928 172.108 4.928C171.617 4.928 171.201 5.05067 170.86 5.296C170.529 5.54133 170.278 5.88267 170.108 6.32C169.937 6.75733 169.852 7.264 169.852 7.84C169.852 8.416 169.937 8.92267 170.108 9.36C170.278 9.79733 170.529 10.1387 170.86 10.384C171.201 10.6293 171.617 10.752 172.108 10.752C172.641 10.752 173.084 10.6027 173.436 10.304C173.788 9.99467 174.012 9.57333 174.108 9.04H175.82C175.692 9.98933 175.292 10.752 174.62 11.328C173.958 11.904 173.121 12.192 172.108 12.192ZM180.154 12C179.663 12 179.263 11.936 178.954 11.808C178.655 11.68 178.426 11.472 178.266 11.184C178.106 10.8853 178.026 10.4907 178.026 10V5.056H176.538V3.68H178.026V1.12H179.706V3.68H181.882V5.056H179.706V9.808C179.706 10.096 179.77 10.304 179.898 10.432C180.036 10.56 180.25 10.624 180.538 10.624H181.882V12H180.154ZM190.473 12H188.857V10.832C188.558 11.248 188.185 11.5787 187.737 11.824C187.299 12.0693 186.787 12.192 186.201 12.192C185.55 12.192 185.001 12.0533 184.553 11.776C184.115 11.4987 183.785 11.12 183.561 10.64C183.347 10.16 183.241 9.62667 183.241 9.04V3.68H184.905V8.864C184.905 9.42933 185.049 9.87733 185.337 10.208C185.635 10.5387 186.073 10.704 186.649 10.704C186.947 10.704 187.257 10.64 187.577 10.512C187.907 10.384 188.19 10.1387 188.425 9.776C188.67 9.41333 188.793 8.91733 188.793 8.288V3.68H190.473V12ZM192.334 3.68H193.95V5.088C194.238 4.544 194.601 4.16 195.038 3.936C195.476 3.70133 195.972 3.584 196.526 3.584H197.166V5.168H196.478C195.977 5.168 195.545 5.248 195.182 5.408C194.82 5.568 194.532 5.84 194.318 6.224C194.116 6.608 194.014 7.12 194.014 7.76V12H192.334V3.68ZM202.169 12.192C201.369 12.192 200.665 12.0053 200.057 11.632C199.449 11.2587 198.98 10.7413 198.649 10.08C198.329 9.41867 198.169 8.672 198.169 7.84C198.169 7.008 198.329 6.26133 198.649 5.6C198.98 4.93867 199.449 4.42133 200.057 4.048C200.665 3.67467 201.369 3.488 202.169 3.488C202.969 3.488 203.673 3.67467 204.281 4.048C204.889 4.42133 205.353 4.944 205.673 5.616C206.004 6.288 206.169 7.056 206.169 7.92V8.4H199.881C199.935 8.88 200.057 9.30133 200.249 9.664C200.441 10.016 200.697 10.2933 201.017 10.496C201.348 10.688 201.732 10.784 202.169 10.784C202.681 10.784 203.119 10.672 203.481 10.448C203.855 10.2133 204.132 9.88267 204.313 9.456H205.993C205.727 10.2987 205.257 10.9653 204.585 11.456C203.913 11.9467 203.108 12.192 202.169 12.192ZM204.425 7.072C204.319 6.4 204.068 5.872 203.673 5.488C203.289 5.09333 202.788 4.896 202.169 4.896C201.54 4.896 201.033 5.09333 200.649 5.488C200.265 5.872 200.02 6.4 199.913 7.072H204.425Z" fill="black"/>
<path d="M1.04 45.48H3.488L6.976 54.728L10.448 45.48H12.912V57H11.184V48.168L7.76 57H6.176L2.752 48.168V57H1.04V45.48ZM18.5131 57.192C17.7131 57.192 17.0091 57.0053 16.4011 56.632C15.7931 56.2587 15.3238 55.7413 14.9931 55.08C14.6731 54.4187 14.5131 53.672 14.5131 52.84C14.5131 52.008 14.6731 51.2613 14.9931 50.6C15.3238 49.9387 15.7931 49.4213 16.4011 49.048C17.0091 48.6747 17.7131 48.488 18.5131 48.488C19.3131 48.488 20.0171 48.6747 20.6251 49.048C21.2331 49.4213 21.6971 49.944 22.0171 50.616C22.3478 51.288 22.5131 52.056 22.5131 52.92V53.4H16.2251C16.2785 53.88 16.4011 54.3013 16.5931 54.664C16.7851 55.016 17.0411 55.2933 17.3611 55.496C17.6918 55.688 18.0758 55.784 18.5131 55.784C19.0251 55.784 19.4625 55.672 19.8251 55.448C20.1985 55.2133 20.4758 54.8827 20.6571 54.456H22.3371C22.0705 55.2987 21.6011 55.9653 20.9291 56.456C20.2571 56.9467 19.4518 57.192 18.5131 57.192ZM20.7691 52.072C20.6625 51.4 20.4118 50.872 20.0171 50.488C19.6331 50.0933 19.1318 49.896 18.5131 49.896C17.8838 49.896 17.3771 50.0933 16.9931 50.488C16.6091 50.872 16.3638 51.4 16.2571 52.072H20.7691ZM19.3611 45.288H21.4091L19.2171 47.624H17.8091L19.3611 45.288ZM24.0061 48.68H25.6221V49.864C25.8781 49.4373 26.2088 49.1013 26.6141 48.856C27.0301 48.6107 27.5261 48.488 28.1021 48.488C28.6995 48.488 29.2061 48.632 29.6221 48.92C30.0381 49.1973 30.3581 49.5867 30.5821 50.088C30.8595 49.5973 31.2275 49.208 31.6861 48.92C32.1448 48.632 32.6835 48.488 33.3021 48.488C33.8888 48.488 34.3901 48.632 34.8061 48.92C35.2328 49.1973 35.5528 49.576 35.7661 50.056C35.9795 50.536 36.0861 51.064 36.0861 51.64V57H34.4061V51.816C34.4061 51.2613 34.2728 50.8187 34.0061 50.488C33.7395 50.1467 33.3555 49.976 32.8541 49.976C32.3741 49.976 31.9261 50.152 31.5101 50.504C31.0941 50.8453 30.8861 51.4747 30.8861 52.392V57H29.2061V51.816C29.2061 51.2613 29.0728 50.8187 28.8061 50.488C28.5395 50.1467 28.1555 49.976 27.6541 49.976C27.1741 49.976 26.7261 50.152 26.3101 50.504C25.8941 50.8453 25.6861 51.4747 25.6861 52.392V57H24.0061V48.68ZM41.6876 57.192C40.8556 57.192 40.125 57.0053 39.4956 56.632C38.8663 56.2587 38.3863 55.7413 38.0556 55.08C37.7356 54.4187 37.5756 53.672 37.5756 52.84C37.5756 52.008 37.7356 51.2613 38.0556 50.6C38.3863 49.9387 38.8663 49.4213 39.4956 49.048C40.125 48.6747 40.8556 48.488 41.6876 48.488C42.5303 48.488 43.261 48.6747 43.8796 49.048C44.509 49.4213 44.989 49.9387 45.3196 50.6C45.6503 51.2613 45.8156 52.008 45.8156 52.84C45.8156 53.672 45.6503 54.4187 45.3196 55.08C44.989 55.7413 44.509 56.2587 43.8796 56.632C43.261 57.0053 42.5303 57.192 41.6876 57.192ZM41.6876 55.752C42.221 55.752 42.6636 55.6293 43.0156 55.384C43.3783 55.1387 43.645 54.7973 43.8156 54.36C43.997 53.9227 44.0876 53.416 44.0876 52.84C44.0876 52.264 43.997 51.7573 43.8156 51.32C43.645 50.8827 43.3783 50.5413 43.0156 50.296C42.6636 50.0507 42.221 49.928 41.6876 49.928C41.165 49.928 40.7223 50.0507 40.3596 50.296C40.0076 50.5413 39.741 50.8827 39.5596 51.32C39.389 51.7573 39.3036 52.264 39.3036 52.84C39.3036 53.416 39.389 53.9227 39.5596 54.36C39.741 54.7973 40.0076 55.1387 40.3596 55.384C40.7223 55.6293 41.165 55.752 41.6876 55.752ZM47.271 48.68H48.951V57H47.271V48.68ZM47.271 45.48H48.951V47.24H47.271V45.48ZM50.7874 48.68H52.4034V50.088C52.6914 49.544 53.054 49.16 53.4914 48.936C53.9287 48.7013 54.4247 48.584 54.9794 48.584H55.6194V50.168H54.9314C54.43 50.168 53.998 50.248 53.6354 50.408C53.2727 50.568 52.9847 50.84 52.7714 51.224C52.5687 51.608 52.4674 52.12 52.4674 52.76V57H50.7874V48.68ZM60.6225 57.192C59.8225 57.192 59.1185 57.0053 58.5105 56.632C57.9025 56.2587 57.4332 55.7413 57.1025 55.08C56.7825 54.4187 56.6225 53.672 56.6225 52.84C56.6225 52.008 56.7825 51.2613 57.1025 50.6C57.4332 49.9387 57.9025 49.4213 58.5105 49.048C59.1185 48.6747 59.8225 48.488 60.6225 48.488C61.4225 48.488 62.1265 48.6747 62.7345 49.048C63.3425 49.4213 63.8065 49.944 64.1265 50.616C64.4572 51.288 64.6225 52.056 64.6225 52.92V53.4H58.3345C58.3878 53.88 58.5105 54.3013 58.7025 54.664C58.8945 55.016 59.1505 55.2933 59.4705 55.496C59.8012 55.688 60.1852 55.784 60.6225 55.784C61.1345 55.784 61.5718 55.672 61.9345 55.448C62.3078 55.2133 62.5852 54.8827 62.7665 54.456H64.4465C64.1798 55.2987 63.7105 55.9653 63.0385 56.456C62.3665 56.9467 61.5612 57.192 60.6225 57.192ZM62.8785 52.072C62.7718 51.4 62.5212 50.872 62.1265 50.488C61.7425 50.0933 61.2412 49.896 60.6225 49.896C59.9932 49.896 59.4865 50.0933 59.1025 50.488C58.7185 50.872 58.4732 51.4 58.3665 52.072H62.8785Z" fill="black"/>
<path d="M6.144 134.192C4.96 134.192 3.94667 133.925 3.104 133.392C2.26133 132.859 1.62667 132.144 1.2 131.248C0.773333 130.341 0.56 129.339 0.56 128.24C0.56 127.141 0.773333 126.144 1.2 125.248C1.62667 124.341 2.26133 123.621 3.104 123.088C3.94667 122.555 4.96 122.288 6.144 122.288C7.33867 122.288 8.35733 122.555 9.2 123.088C10.0427 123.621 10.6773 124.341 11.104 125.248C11.5307 126.144 11.744 127.141 11.744 128.24C11.744 129.339 11.5307 130.341 11.104 131.248C10.6773 132.144 10.0427 132.859 9.2 133.392C8.35733 133.925 7.33867 134.192 6.144 134.192ZM6.144 132.576C6.976 132.576 7.66933 132.384 8.224 132C8.78933 131.616 9.20533 131.099 9.472 130.448C9.74933 129.797 9.888 129.061 9.888 128.24C9.888 127.419 9.74933 126.683 9.472 126.032C9.20533 125.381 8.78933 124.864 8.224 124.48C7.66933 124.096 6.976 123.904 6.144 123.904C5.32267 123.904 4.62933 124.096 4.064 124.48C3.49867 124.864 3.08267 125.381 2.816 126.032C2.54933 126.683 2.416 127.419 2.416 128.24C2.416 129.061 2.54933 129.797 2.816 130.448C3.08267 131.099 3.49867 131.616 4.064 132C4.62933 132.384 5.32267 132.576 6.144 132.576ZM15.9609 125.856C16.4195 125.611 16.9529 125.488 17.5609 125.488C18.3609 125.488 19.0435 125.675 19.6089 126.048C20.1849 126.421 20.6222 126.939 20.9209 127.6C21.2195 128.251 21.3689 128.997 21.3689 129.84C21.3689 130.683 21.2195 131.435 20.9209 132.096C20.6222 132.747 20.1849 133.259 19.6089 133.632C19.0435 134.005 18.3609 134.192 17.5609 134.192C16.9742 134.192 16.4569 134.08 16.0089 133.856C15.5609 133.632 15.1929 133.312 14.9049 132.896V137.2H13.2249V125.68H14.8409V126.896C15.1395 126.448 15.5129 126.101 15.9609 125.856ZM18.5689 127.296C18.2169 127.051 17.7795 126.928 17.2569 126.928C16.7235 126.928 16.2809 127.051 15.9289 127.296C15.5769 127.541 15.3102 127.883 15.1289 128.32C14.9582 128.757 14.8729 129.264 14.8729 129.84C14.8729 130.416 14.9582 130.923 15.1289 131.36C15.3102 131.797 15.5769 132.139 15.9289 132.384C16.2809 132.629 16.7235 132.752 17.2569 132.752C17.7795 132.752 18.2169 132.629 18.5689 132.384C18.9209 132.139 19.1822 131.797 19.3529 131.36C19.5342 130.923 19.6249 130.416 19.6249 129.84C19.6249 129.264 19.5342 128.757 19.3529 128.32C19.1822 127.883 18.9209 127.541 18.5689 127.296ZM25.7943 134C25.3036 134 24.9036 133.936 24.5943 133.808C24.2956 133.68 24.0663 133.472 23.9062 133.184C23.7463 132.885 23.6663 132.491 23.6663 132V127.056H22.1783V125.68H23.6663V123.12H25.3463V125.68H27.5223V127.056H25.3463V131.808C25.3463 132.096 25.4103 132.304 25.5383 132.432C25.6769 132.56 25.8903 132.624 26.1783 132.624H27.5223V134H25.7943ZM28.8491 125.68H30.5291V134H28.8491V125.68ZM28.8491 122.48H30.5291V124.24H28.8491V122.48ZM32.3655 125.68H33.9815V126.864C34.2375 126.437 34.5682 126.101 34.9735 125.856C35.3895 125.611 35.8855 125.488 36.4615 125.488C37.0588 125.488 37.5655 125.632 37.9815 125.92C38.3975 126.197 38.7175 126.587 38.9415 127.088C39.2188 126.597 39.5868 126.208 40.0455 125.92C40.5042 125.632 41.0428 125.488 41.6615 125.488C42.2482 125.488 42.7495 125.632 43.1655 125.92C43.5922 126.197 43.9122 126.576 44.1255 127.056C44.3388 127.536 44.4455 128.064 44.4455 128.64V134H42.7655V128.816C42.7655 128.261 42.6322 127.819 42.3655 127.488C42.0988 127.147 41.7148 126.976 41.2135 126.976C40.7335 126.976 40.2855 127.152 39.8695 127.504C39.4535 127.845 39.2455 128.475 39.2455 129.392V134H37.5655V128.816C37.5655 128.261 37.4322 127.819 37.1655 127.488C36.8988 127.147 36.5148 126.976 36.0135 126.976C35.5335 126.976 35.0855 127.152 34.6695 127.504C34.2535 127.845 34.0455 128.475 34.0455 129.392V134H32.3655V125.68ZM46.271 125.68H47.951V134H46.271V125.68ZM46.271 122.48H47.951V124.24H46.271V122.48ZM52.8914 134.192C51.782 134.192 50.902 133.952 50.2514 133.472C49.6114 132.992 49.2647 132.261 49.2114 131.28H50.8594C50.9234 131.856 51.1207 132.267 51.4514 132.512C51.7927 132.757 52.2834 132.88 52.9234 132.88C53.4674 132.88 53.8994 132.784 54.2194 132.592C54.5394 132.389 54.6994 132.112 54.6994 131.76C54.6994 131.525 54.6514 131.339 54.5554 131.2C54.47 131.051 54.2834 130.923 53.9954 130.816C53.7074 130.709 53.27 130.608 52.6834 130.512C51.8514 130.373 51.1954 130.187 50.7154 129.952C50.2354 129.717 49.8994 129.44 49.7074 129.12C49.526 128.789 49.4354 128.389 49.4354 127.92C49.4354 127.173 49.734 126.581 50.3314 126.144C50.9287 125.707 51.7074 125.488 52.6674 125.488C53.7874 125.488 54.6514 125.733 55.2594 126.224C55.878 126.715 56.1927 127.397 56.2034 128.272H54.5874C54.5767 127.728 54.4007 127.349 54.0594 127.136C53.718 126.912 53.254 126.8 52.6674 126.8C52.2087 126.8 51.83 126.896 51.5314 127.088C51.2327 127.269 51.0834 127.531 51.0834 127.872C51.0834 128.107 51.142 128.299 51.2594 128.448C51.3767 128.587 51.5794 128.709 51.8674 128.816C52.166 128.912 52.6087 129.008 53.1954 129.104C54.0167 129.243 54.6567 129.424 55.1154 129.648C55.574 129.861 55.8994 130.133 56.0914 130.464C56.2834 130.784 56.3794 131.184 56.3794 131.664C56.3794 132.453 56.054 133.072 55.4034 133.52C54.7634 133.968 53.926 134.192 52.8914 134.192ZM60.2224 134.192C59.2944 134.192 58.5584 133.979 58.0144 133.552C57.4704 133.115 57.1984 132.501 57.1984 131.712C57.1984 131.232 57.3157 130.821 57.5504 130.48C57.785 130.139 58.1264 129.861 58.5744 129.648C59.033 129.424 59.6037 129.248 60.2864 129.12L62.7984 128.656V128.112C62.7984 127.675 62.6597 127.36 62.3824 127.168C62.1157 126.965 61.6997 126.864 61.1344 126.864C60.5904 126.864 60.137 126.976 59.7744 127.2C59.4224 127.413 59.2304 127.776 59.1984 128.288H57.5344C57.5557 127.349 57.9024 126.651 58.5744 126.192C59.2464 125.723 60.0997 125.488 61.1344 125.488C62.233 125.488 63.0597 125.701 63.6144 126.128C64.169 126.555 64.4464 127.157 64.4464 127.936V134H62.8624V133.008C62.5317 133.424 62.1424 133.728 61.6944 133.92C61.257 134.101 60.7664 134.192 60.2224 134.192ZM60.4784 132.848C60.873 132.848 61.2464 132.773 61.5984 132.624C61.961 132.475 62.249 132.245 62.4624 131.936C62.6864 131.616 62.7984 131.216 62.7984 130.736V129.904L60.5744 130.368C59.9984 130.485 59.577 130.635 59.3104 130.816C59.0544 130.987 58.9264 131.269 58.9264 131.664C58.9264 132.037 59.0544 132.331 59.3104 132.544C59.5664 132.747 59.9557 132.848 60.4784 132.848ZM69.0443 134C68.5536 134 68.1536 133.936 67.8443 133.808C67.5456 133.68 67.3163 133.472 67.1562 133.184C66.9963 132.885 66.9163 132.491 66.9163 132V127.056H65.4283V125.68H66.9163V123.12H68.5963V125.68H70.7723V127.056H68.5963V131.808C68.5963 132.096 68.6603 132.304 68.7883 132.432C68.9269 132.56 69.1403 132.624 69.4283 132.624H70.7723V134H69.0443ZM72.0991 125.68H73.7791V134H72.0991V125.68ZM72.0991 122.48H73.7791V124.24H72.0991V122.48ZM79.3595 134.192C78.5275 134.192 77.7968 134.005 77.1675 133.632C76.5382 133.259 76.0582 132.741 75.7275 132.08C75.4075 131.419 75.2475 130.672 75.2475 129.84C75.2475 129.008 75.4075 128.261 75.7275 127.6C76.0582 126.939 76.5382 126.421 77.1675 126.048C77.7968 125.675 78.5275 125.488 79.3595 125.488C80.2022 125.488 80.9328 125.675 81.5515 126.048C82.1808 126.421 82.6608 126.939 82.9915 127.6C83.3222 128.261 83.4875 129.008 83.4875 129.84C83.4875 130.672 83.3222 131.419 82.9915 132.08C82.6608 132.741 82.1808 133.259 81.5515 133.632C80.9328 134.005 80.2022 134.192 79.3595 134.192ZM79.3595 132.752C79.8928 132.752 80.3355 132.629 80.6875 132.384C81.0502 132.139 81.3168 131.797 81.4875 131.36C81.6688 130.923 81.7595 130.416 81.7595 129.84C81.7595 129.264 81.6688 128.757 81.4875 128.32C81.3168 127.883 81.0502 127.541 80.6875 127.296C80.3355 127.051 79.8928 126.928 79.3595 126.928C78.8368 126.928 78.3942 127.051 78.0315 127.296C77.6795 127.541 77.4128 127.883 77.2315 128.32C77.0608 128.757 76.9755 129.264 76.9755 129.84C76.9755 130.416 77.0608 130.923 77.2315 131.36C77.4128 131.797 77.6795 132.139 78.0315 132.384C78.3942 132.629 78.8368 132.752 79.3595 132.752ZM84.9749 125.68H86.5909V126.848C86.8895 126.432 87.2575 126.101 87.6949 125.856C88.1429 125.611 88.6602 125.488 89.2469 125.488C89.8975 125.488 90.4415 125.627 90.8789 125.904C91.3269 126.181 91.6575 126.56 91.8709 127.04C92.0949 127.52 92.2069 128.053 92.2069 128.64V134H90.5429V128.816C90.5429 128.251 90.3935 127.803 90.0949 127.472C89.8069 127.141 89.3749 126.976 88.7989 126.976C88.5002 126.976 88.1855 127.04 87.8549 127.168C87.5349 127.296 87.2522 127.541 87.0069 127.904C86.7722 128.267 86.6549 128.763 86.6549 129.392V134H84.9749V125.68Z" fill="black"/>
<path d="M248.144 57.192C246.96 57.192 245.947 56.9253 245.104 56.392C244.261 55.8587 243.627 55.144 243.2 54.248C242.773 53.3413 242.56 52.3387 242.56 51.24C242.56 50.1413 242.773 49.144 243.2 48.248C243.627 47.3413 244.261 46.6213 245.104 46.088C245.947 45.5547 246.96 45.288 248.144 45.288C249.04 45.288 249.835 45.464 250.528 45.816C251.221 46.168 251.781 46.6587 252.208 47.288C252.635 47.9067 252.917 48.6107 253.056 49.4H251.248C251.152 48.8987 250.96 48.4613 250.672 48.088C250.395 47.7147 250.037 47.4267 249.6 47.224C249.173 47.0107 248.688 46.904 248.144 46.904C247.323 46.904 246.629 47.096 246.064 47.48C245.499 47.864 245.083 48.3813 244.816 49.032C244.549 49.6827 244.416 50.4187 244.416 51.24C244.416 52.0613 244.549 52.7973 244.816 53.448C245.083 54.0987 245.499 54.616 246.064 55C246.629 55.384 247.323 55.576 248.144 55.576C248.731 55.576 249.248 55.4587 249.696 55.224C250.144 54.9787 250.507 54.6427 250.784 54.216C251.061 53.7787 251.243 53.288 251.328 52.744H253.12C253.013 53.5867 252.747 54.3493 252.32 55.032C251.904 55.704 251.333 56.232 250.608 56.616C249.893 57 249.072 57.192 248.144 57.192ZM258.36 57.192C257.528 57.192 256.797 57.0053 256.168 56.632C255.538 56.2587 255.058 55.7413 254.728 55.08C254.408 54.4187 254.248 53.672 254.248 52.84C254.248 52.008 254.408 51.2613 254.728 50.6C255.058 49.9387 255.538 49.4213 256.168 49.048C256.797 48.6747 257.528 48.488 258.36 48.488C259.202 48.488 259.933 48.6747 260.552 49.048C261.181 49.4213 261.661 49.9387 261.992 50.6C262.322 51.2613 262.488 52.008 262.488 52.84C262.488 53.672 262.322 54.4187 261.992 55.08C261.661 55.7413 261.181 56.2587 260.552 56.632C259.933 57.0053 259.202 57.192 258.36 57.192ZM258.36 55.752C258.893 55.752 259.336 55.6293 259.688 55.384C260.05 55.1387 260.317 54.7973 260.488 54.36C260.669 53.9227 260.76 53.416 260.76 52.84C260.76 52.264 260.669 51.7573 260.488 51.32C260.317 50.8827 260.05 50.5413 259.688 50.296C259.336 50.0507 258.893 49.928 258.36 49.928C257.837 49.928 257.394 50.0507 257.032 50.296C256.68 50.5413 256.413 50.8827 256.232 51.32C256.061 51.7573 255.976 52.264 255.976 52.84C255.976 53.416 256.061 53.9227 256.232 54.36C256.413 54.7973 256.68 55.1387 257.032 55.384C257.394 55.6293 257.837 55.752 258.36 55.752ZM263.975 45.48H265.655V54.808C265.655 55.096 265.719 55.304 265.847 55.432C265.975 55.56 266.188 55.624 266.487 55.624H267.591V57H266.103C265.612 57 265.212 56.936 264.903 56.808C264.594 56.68 264.359 56.472 264.199 56.184C264.05 55.8853 263.975 55.4907 263.975 55V45.48ZM268.944 45.48H270.624V54.808C270.624 55.096 270.688 55.304 270.816 55.432C270.944 55.56 271.157 55.624 271.456 55.624H272.56V57H271.072C270.581 57 270.181 56.936 269.872 56.808C269.562 56.68 269.328 56.472 269.168 56.184C269.018 55.8853 268.944 55.4907 268.944 55V45.48ZM276.472 57.192C275.544 57.192 274.808 56.9787 274.264 56.552C273.72 56.1147 273.448 55.5013 273.448 54.712C273.448 54.232 273.566 53.8213 273.8 53.48C274.035 53.1387 274.376 52.8613 274.824 52.648C275.283 52.424 275.854 52.248 276.536 52.12L279.048 51.656V51.112C279.048 50.6747 278.91 50.36 278.632 50.168C278.366 49.9653 277.95 49.864 277.384 49.864C276.84 49.864 276.387 49.976 276.024 50.2C275.672 50.4133 275.48 50.776 275.448 51.288H273.784C273.806 50.3493 274.152 49.6507 274.824 49.192C275.496 48.7227 276.35 48.488 277.384 48.488C278.483 48.488 279.31 48.7013 279.864 49.128C280.419 49.5547 280.696 50.1573 280.696 50.936V57H279.112V56.008C278.782 56.424 278.392 56.728 277.944 56.92C277.507 57.1013 277.016 57.192 276.472 57.192ZM276.728 55.848C277.123 55.848 277.496 55.7733 277.848 55.624C278.211 55.4747 278.499 55.2453 278.712 54.936C278.936 54.616 279.048 54.216 279.048 53.736V52.904L276.824 53.368C276.248 53.4853 275.827 53.6347 275.56 53.816C275.304 53.9867 275.176 54.2693 275.176 54.664C275.176 55.0373 275.304 55.3307 275.56 55.544C275.816 55.7467 276.206 55.848 276.728 55.848ZM286.67 57.192C286.062 57.192 285.529 57.0693 285.07 56.824C284.622 56.5787 284.249 56.232 283.95 55.784V57H282.334V45.48H284.014V49.784C284.302 49.368 284.67 49.048 285.118 48.824C285.566 48.6 286.084 48.488 286.67 48.488C287.47 48.488 288.153 48.6747 288.718 49.048C289.294 49.4213 289.732 49.9387 290.03 50.6C290.329 51.2507 290.478 51.9973 290.478 52.84C290.478 53.6827 290.329 54.4347 290.03 55.096C289.732 55.7467 289.294 56.2587 288.718 56.632C288.153 57.0053 287.47 57.192 286.67 57.192ZM286.366 55.752C286.889 55.752 287.326 55.6293 287.678 55.384C288.03 55.1387 288.292 54.7973 288.462 54.36C288.644 53.9227 288.734 53.416 288.734 52.84C288.734 52.264 288.644 51.7573 288.462 51.32C288.292 50.8827 288.03 50.5413 287.678 50.296C287.326 50.0507 286.889 49.928 286.366 49.928C285.833 49.928 285.39 50.0507 285.038 50.296C284.686 50.5413 284.42 50.8827 284.238 51.32C284.068 51.7573 283.982 52.264 283.982 52.84C283.982 53.416 284.068 53.9227 284.238 54.36C284.42 54.7973 284.686 55.1387 285.038 55.384C285.39 55.6293 285.833 55.752 286.366 55.752ZM295.703 57.192C294.871 57.192 294.141 57.0053 293.511 56.632C292.882 56.2587 292.402 55.7413 292.071 55.08C291.751 54.4187 291.591 53.672 291.591 52.84C291.591 52.008 291.751 51.2613 292.071 50.6C292.402 49.9387 292.882 49.4213 293.511 49.048C294.141 48.6747 294.871 48.488 295.703 48.488C296.546 48.488 297.277 48.6747 297.895 49.048C298.525 49.4213 299.005 49.9387 299.335 50.6C299.666 51.2613 299.831 52.008 299.831 52.84C299.831 53.672 299.666 54.4187 299.335 55.08C299.005 55.7413 298.525 56.2587 297.895 56.632C297.277 57.0053 296.546 57.192 295.703 57.192ZM295.703 55.752C296.237 55.752 296.679 55.6293 297.031 55.384C297.394 55.1387 297.661 54.7973 297.831 54.36C298.013 53.9227 298.103 53.416 298.103 52.84C298.103 52.264 298.013 51.7573 297.831 51.32C297.661 50.8827 297.394 50.5413 297.031 50.296C296.679 50.0507 296.237 49.928 295.703 49.928C295.181 49.928 294.738 50.0507 294.375 50.296C294.023 50.5413 293.757 50.8827 293.575 51.32C293.405 51.7573 293.319 52.264 293.319 52.84C293.319 53.416 293.405 53.9227 293.575 54.36C293.757 54.7973 294.023 55.1387 294.375 55.384C294.738 55.6293 295.181 55.752 295.703 55.752ZM301.319 48.68H302.935V50.088C303.223 49.544 303.585 49.16 304.023 48.936C304.46 48.7013 304.956 48.584 305.511 48.584H306.151V50.168H305.463C304.961 50.168 304.529 50.248 304.167 50.408C303.804 50.568 303.516 50.84 303.303 51.224C303.1 51.608 302.999 52.12 302.999 52.76V57H301.319V48.68ZM310.082 57.192C309.154 57.192 308.418 56.9787 307.874 56.552C307.33 56.1147 307.058 55.5013 307.058 54.712C307.058 54.232 307.175 53.8213 307.41 53.48C307.644 53.1387 307.986 52.8613 308.434 52.648C308.892 52.424 309.463 52.248 310.146 52.12L312.658 51.656V51.112C312.658 50.6747 312.519 50.36 312.242 50.168C311.975 49.9653 311.559 49.864 310.994 49.864C310.45 49.864 309.996 49.976 309.634 50.2C309.282 50.4133 309.09 50.776 309.058 51.288H307.394C307.415 50.3493 307.762 49.6507 308.434 49.192C309.106 48.7227 309.959 48.488 310.994 48.488C312.092 48.488 312.919 48.7013 313.474 49.128C314.028 49.5547 314.306 50.1573 314.306 50.936V57H312.722V56.008C312.391 56.424 312.002 56.728 311.554 56.92C311.116 57.1013 310.626 57.192 310.082 57.192ZM310.338 55.848C310.732 55.848 311.106 55.7733 311.458 55.624C311.82 55.4747 312.108 55.2453 312.322 54.936C312.546 54.616 312.658 54.216 312.658 53.736V52.904L310.434 53.368C309.858 53.4853 309.436 53.6347 309.17 53.816C308.914 53.9867 308.786 54.2693 308.786 54.664C308.786 55.0373 308.914 55.3307 309.17 55.544C309.426 55.7467 309.815 55.848 310.338 55.848ZM318.904 57C318.413 57 318.013 56.936 317.704 56.808C317.405 56.68 317.176 56.472 317.016 56.184C316.856 55.8853 316.776 55.4907 316.776 55V50.056H315.288V48.68H316.776V46.12H318.456V48.68H320.632V50.056H318.456V54.808C318.456 55.096 318.52 55.304 318.648 55.432C318.786 55.56 319 55.624 319.288 55.624H320.632V57H318.904ZM321.959 48.68H323.639V57H321.959V48.68ZM321.959 45.48H323.639V47.24H321.959V45.48ZM329.219 57.192C328.387 57.192 327.656 57.0053 327.027 56.632C326.398 56.2587 325.918 55.7413 325.587 55.08C325.267 54.4187 325.107 53.672 325.107 52.84C325.107 52.008 325.267 51.2613 325.587 50.6C325.918 49.9387 326.398 49.4213 327.027 49.048C327.656 48.6747 328.387 48.488 329.219 48.488C330.062 48.488 330.792 48.6747 331.411 49.048C332.04 49.4213 332.52 49.9387 332.851 50.6C333.182 51.2613 333.347 52.008 333.347 52.84C333.347 53.672 333.182 54.4187 332.851 55.08C332.52 55.7413 332.04 56.2587 331.411 56.632C330.792 57.0053 330.062 57.192 329.219 57.192ZM329.219 55.752C329.752 55.752 330.195 55.6293 330.547 55.384C330.91 55.1387 331.176 54.7973 331.347 54.36C331.528 53.9227 331.619 53.416 331.619 52.84C331.619 52.264 331.528 51.7573 331.347 51.32C331.176 50.8827 330.91 50.5413 330.547 50.296C330.195 50.0507 329.752 49.928 329.219 49.928C328.696 49.928 328.254 50.0507 327.891 50.296C327.539 50.5413 327.272 50.8827 327.091 51.32C326.92 51.7573 326.835 52.264 326.835 52.84C326.835 53.416 326.92 53.9227 327.091 54.36C327.272 54.7973 327.539 55.1387 327.891 55.384C328.254 55.6293 328.696 55.752 329.219 55.752ZM334.834 48.68H336.45V49.848C336.749 49.432 337.117 49.1013 337.554 48.856C338.002 48.6107 338.52 48.488 339.106 48.488C339.757 48.488 340.301 48.6267 340.738 48.904C341.186 49.1813 341.517 49.56 341.73 50.04C341.954 50.52 342.066 51.0533 342.066 51.64V57H340.402V51.816C340.402 51.2507 340.253 50.8027 339.954 50.472C339.666 50.1413 339.234 49.976 338.658 49.976C338.36 49.976 338.045 50.04 337.714 50.168C337.394 50.296 337.112 50.5413 336.866 50.904C336.632 51.2667 336.514 51.7627 336.514 52.392V57H334.834V48.68Z" fill="black"/>
<path d="M265.8 122.48H267.816L272.424 134H270.52L269.384 131.04H264.232L263.08 134H261.224L265.8 122.48ZM268.808 129.488L266.808 124.256L264.808 129.488H268.808ZM278.577 133.824C278.129 134.069 277.601 134.192 276.993 134.192C276.193 134.192 275.505 134.005 274.929 133.632C274.363 133.259 273.931 132.747 273.633 132.096C273.334 131.435 273.185 130.683 273.185 129.84C273.185 128.997 273.334 128.251 273.633 127.6C273.931 126.939 274.363 126.421 274.929 126.048C275.505 125.675 276.193 125.488 276.993 125.488C277.579 125.488 278.097 125.6 278.545 125.824C278.993 126.048 279.361 126.368 279.649 126.784V122.48H281.329V134H279.713V132.784C279.414 133.232 279.035 133.579 278.577 133.824ZM275.985 132.384C276.337 132.629 276.774 132.752 277.297 132.752C277.83 132.752 278.273 132.629 278.625 132.384C278.977 132.139 279.238 131.797 279.409 131.36C279.59 130.923 279.681 130.416 279.681 129.84C279.681 129.264 279.59 128.757 279.409 128.32C279.238 127.883 278.977 127.541 278.625 127.296C278.273 127.051 277.83 126.928 277.297 126.928C276.774 126.928 276.337 127.051 275.985 127.296C275.633 127.541 275.366 127.883 275.185 128.32C275.014 128.757 274.929 129.264 274.929 129.84C274.929 130.416 275.014 130.923 275.185 131.36C275.366 131.797 275.633 132.139 275.985 132.384ZM285.738 134.192C284.81 134.192 284.074 133.979 283.53 133.552C282.986 133.115 282.714 132.501 282.714 131.712C282.714 131.232 282.831 130.821 283.066 130.48C283.301 130.139 283.642 129.861 284.09 129.648C284.549 129.424 285.119 129.248 285.802 129.12L288.314 128.656V128.112C288.314 127.675 288.175 127.36 287.898 127.168C287.631 126.965 287.215 126.864 286.65 126.864C286.106 126.864 285.653 126.976 285.29 127.2C284.938 127.413 284.746 127.776 284.714 128.288H283.05C283.071 127.349 283.418 126.651 284.09 126.192C284.762 125.723 285.615 125.488 286.65 125.488C287.749 125.488 288.575 125.701 289.13 126.128C289.685 126.555 289.962 127.157 289.962 127.936V134H288.378V133.008C288.047 133.424 287.658 133.728 287.21 133.92C286.773 134.101 286.282 134.192 285.738 134.192ZM285.994 132.848C286.389 132.848 286.762 132.773 287.114 132.624C287.477 132.475 287.765 132.245 287.978 131.936C288.202 131.616 288.314 131.216 288.314 130.736V129.904L286.09 130.368C285.514 130.485 285.093 130.635 284.826 130.816C284.57 130.987 284.442 131.269 284.442 131.664C284.442 132.037 284.57 132.331 284.826 132.544C285.082 132.747 285.471 132.848 285.994 132.848ZM294.336 125.856C294.795 125.611 295.328 125.488 295.936 125.488C296.736 125.488 297.419 125.675 297.984 126.048C298.56 126.421 298.997 126.939 299.296 127.6C299.595 128.251 299.744 128.997 299.744 129.84C299.744 130.683 299.595 131.435 299.296 132.096C298.997 132.747 298.56 133.259 297.984 133.632C297.419 134.005 296.736 134.192 295.936 134.192C295.349 134.192 294.832 134.08 294.384 133.856C293.936 133.632 293.568 133.312 293.28 132.896V137.2H291.6V125.68H293.216V126.896C293.515 126.448 293.888 126.101 294.336 125.856ZM296.944 127.296C296.592 127.051 296.155 126.928 295.632 126.928C295.099 126.928 294.656 127.051 294.304 127.296C293.952 127.541 293.685 127.883 293.504 128.32C293.333 128.757 293.248 129.264 293.248 129.84C293.248 130.416 293.333 130.923 293.504 131.36C293.685 131.797 293.952 132.139 294.304 132.384C294.656 132.629 295.099 132.752 295.632 132.752C296.155 132.752 296.592 132.629 296.944 132.384C297.296 132.139 297.557 131.797 297.728 131.36C297.909 130.923 298 130.416 298 129.84C298 129.264 297.909 128.757 297.728 128.32C297.557 127.883 297.296 127.541 296.944 127.296ZM304.169 134C303.679 134 303.279 133.936 302.969 133.808C302.671 133.68 302.441 133.472 302.281 133.184C302.121 132.885 302.041 132.491 302.041 132V127.056H300.553V125.68H302.041V123.12H303.721V125.68H305.897V127.056H303.721V131.808C303.721 132.096 303.785 132.304 303.913 132.432C304.052 132.56 304.265 132.624 304.553 132.624H305.897V134H304.169ZM309.816 134.192C308.888 134.192 308.152 133.979 307.608 133.552C307.064 133.115 306.792 132.501 306.792 131.712C306.792 131.232 306.909 130.821 307.144 130.48C307.379 130.139 307.72 129.861 308.168 129.648C308.627 129.424 309.197 129.248 309.88 129.12L312.392 128.656V128.112C312.392 127.675 312.253 127.36 311.976 127.168C311.709 126.965 311.293 126.864 310.728 126.864C310.184 126.864 309.731 126.976 309.368 127.2C309.016 127.413 308.824 127.776 308.792 128.288H307.128C307.149 127.349 307.496 126.651 308.168 126.192C308.84 125.723 309.693 125.488 310.728 125.488C311.827 125.488 312.653 125.701 313.208 126.128C313.763 126.555 314.04 127.157 314.04 127.936V134H312.456V133.008C312.125 133.424 311.736 133.728 311.288 133.92C310.851 134.101 310.36 134.192 309.816 134.192ZM310.072 132.848C310.467 132.848 310.84 132.773 311.192 132.624C311.555 132.475 311.843 132.245 312.056 131.936C312.28 131.616 312.392 131.216 312.392 130.736V129.904L310.168 130.368C309.592 130.485 309.171 130.635 308.904 130.816C308.648 130.987 308.52 131.269 308.52 131.664C308.52 132.037 308.648 132.331 308.904 132.544C309.16 132.747 309.549 132.848 310.072 132.848ZM318.638 134C318.147 134 317.747 133.936 317.438 133.808C317.139 133.68 316.91 133.472 316.75 133.184C316.59 132.885 316.51 132.491 316.51 132V127.056H315.022V125.68H316.51V123.12H318.19V125.68H320.366V127.056H318.19V131.808C318.19 132.096 318.254 132.304 318.382 132.432C318.521 132.56 318.734 132.624 319.022 132.624H320.366V134H318.638ZM321.693 125.68H323.373V134H321.693V125.68ZM321.693 122.48H323.373V124.24H321.693V122.48ZM328.953 134.192C328.121 134.192 327.391 134.005 326.761 133.632C326.132 133.259 325.652 132.741 325.321 132.08C325.001 131.419 324.841 130.672 324.841 129.84C324.841 129.008 325.001 128.261 325.321 127.6C325.652 126.939 326.132 126.421 326.761 126.048C327.391 125.675 328.121 125.488 328.953 125.488C329.796 125.488 330.527 125.675 331.145 126.048C331.775 126.421 332.255 126.939 332.585 127.6C332.916 128.261 333.081 129.008 333.081 129.84C333.081 130.672 332.916 131.419 332.585 132.08C332.255 132.741 331.775 133.259 331.145 133.632C330.527 134.005 329.796 134.192 328.953 134.192ZM328.953 132.752C329.487 132.752 329.929 132.629 330.281 132.384C330.644 132.139 330.911 131.797 331.081 131.36C331.263 130.923 331.353 130.416 331.353 129.84C331.353 129.264 331.263 128.757 331.081 128.32C330.911 127.883 330.644 127.541 330.281 127.296C329.929 127.051 329.487 126.928 328.953 126.928C328.431 126.928 327.988 127.051 327.625 127.296C327.273 127.541 327.007 127.883 326.825 128.32C326.655 128.757 326.569 129.264 326.569 129.84C326.569 130.416 326.655 130.923 326.825 131.36C327.007 131.797 327.273 132.139 327.625 132.384C327.988 132.629 328.431 132.752 328.953 132.752ZM334.569 125.68H336.185V126.848C336.483 126.432 336.851 126.101 337.289 125.856C337.737 125.611 338.254 125.488 338.841 125.488C339.491 125.488 340.035 125.627 340.473 125.904C340.921 126.181 341.251 126.56 341.465 127.04C341.689 127.52 341.801 128.053 341.801 128.64V134H340.137V128.816C340.137 128.251 339.987 127.803 339.689 127.472C339.401 127.141 338.969 126.976 338.393 126.976C338.094 126.976 337.779 127.04 337.449 127.168C337.129 127.296 336.846 127.541 336.601 127.904C336.366 128.267 336.249 128.763 336.249 129.392V134H334.569V125.68Z" fill="black"/>
<path d="M127.08 169.08H123.288V167.48H132.68V169.08H128.888V179H127.08V169.08ZM133.897 170.68H135.513V172.088C135.801 171.544 136.163 171.16 136.601 170.936C137.038 170.701 137.534 170.584 138.089 170.584H138.729V172.168H138.041C137.539 172.168 137.107 172.248 136.745 172.408C136.382 172.568 136.094 172.84 135.881 173.224C135.678 173.608 135.577 174.12 135.577 174.76V179H133.897V170.68ZM142.66 179.192C141.732 179.192 140.996 178.979 140.452 178.552C139.908 178.115 139.636 177.501 139.636 176.712C139.636 176.232 139.753 175.821 139.988 175.48C140.223 175.139 140.564 174.861 141.012 174.648C141.471 174.424 142.041 174.248 142.724 174.12L145.236 173.656V173.112C145.236 172.675 145.097 172.36 144.82 172.168C144.553 171.965 144.137 171.864 143.572 171.864C143.028 171.864 142.575 171.976 142.212 172.2C141.86 172.413 141.668 172.776 141.636 173.288H139.972C139.993 172.349 140.34 171.651 141.012 171.192C141.684 170.723 142.537 170.488 143.572 170.488C144.671 170.488 145.497 170.701 146.052 171.128C146.607 171.555 146.884 172.157 146.884 172.936V179H145.3V178.008C144.969 178.424 144.58 178.728 144.132 178.92C143.695 179.101 143.204 179.192 142.66 179.192ZM142.916 177.848C143.311 177.848 143.684 177.773 144.036 177.624C144.399 177.475 144.687 177.245 144.9 176.936C145.124 176.616 145.236 176.216 145.236 175.736V174.904L143.012 175.368C142.436 175.485 142.015 175.635 141.748 175.816C141.492 175.987 141.364 176.269 141.364 176.664C141.364 177.037 141.492 177.331 141.748 177.544C142.004 177.747 142.393 177.848 142.916 177.848ZM148.522 170.68H150.138V171.848C150.436 171.432 150.804 171.101 151.242 170.856C151.69 170.611 152.207 170.488 152.794 170.488C153.444 170.488 153.988 170.627 154.426 170.904C154.874 171.181 155.204 171.56 155.418 172.04C155.642 172.52 155.754 173.053 155.754 173.64V179H154.09V173.816C154.09 173.251 153.94 172.803 153.642 172.472C153.354 172.141 152.922 171.976 152.346 171.976C152.047 171.976 151.732 172.04 151.402 172.168C151.082 172.296 150.799 172.541 150.554 172.904C150.319 173.267 150.202 173.763 150.202 174.392V179H148.522V170.68ZM160.704 179.192C159.595 179.192 158.715 178.952 158.064 178.472C157.424 177.992 157.077 177.261 157.024 176.28H158.672C158.736 176.856 158.933 177.267 159.264 177.512C159.605 177.757 160.096 177.88 160.736 177.88C161.28 177.88 161.712 177.784 162.032 177.592C162.352 177.389 162.512 177.112 162.512 176.76C162.512 176.525 162.464 176.339 162.368 176.2C162.283 176.051 162.096 175.923 161.808 175.816C161.52 175.709 161.083 175.608 160.496 175.512C159.664 175.373 159.008 175.187 158.528 174.952C158.048 174.717 157.712 174.44 157.52 174.12C157.339 173.789 157.248 173.389 157.248 172.92C157.248 172.173 157.547 171.581 158.144 171.144C158.741 170.707 159.52 170.488 160.48 170.488C161.6 170.488 162.464 170.733 163.072 171.224C163.691 171.715 164.005 172.397 164.016 173.272H162.4C162.389 172.728 162.213 172.349 161.872 172.136C161.531 171.912 161.067 171.8 160.48 171.8C160.021 171.8 159.643 171.896 159.344 172.088C159.045 172.269 158.896 172.531 158.896 172.872C158.896 173.107 158.955 173.299 159.072 173.448C159.189 173.587 159.392 173.709 159.68 173.816C159.979 173.912 160.421 174.008 161.008 174.104C161.829 174.243 162.469 174.424 162.928 174.648C163.387 174.861 163.712 175.133 163.904 175.464C164.096 175.784 164.192 176.184 164.192 176.664C164.192 177.453 163.867 178.072 163.216 178.52C162.576 178.968 161.739 179.192 160.704 179.192ZM165.475 170.68H167.091V171.864C167.347 171.437 167.678 171.101 168.083 170.856C168.499 170.611 168.995 170.488 169.571 170.488C170.168 170.488 170.675 170.632 171.091 170.92C171.507 171.197 171.827 171.587 172.051 172.088C172.328 171.597 172.696 171.208 173.155 170.92C173.614 170.632 174.152 170.488 174.771 170.488C175.358 170.488 175.859 170.632 176.275 170.92C176.702 171.197 177.022 171.576 177.235 172.056C177.448 172.536 177.555 173.064 177.555 173.64V179H175.875V173.816C175.875 173.261 175.742 172.819 175.475 172.488C175.208 172.147 174.824 171.976 174.323 171.976C173.843 171.976 173.395 172.152 172.979 172.504C172.563 172.845 172.355 173.475 172.355 174.392V179H170.675V173.816C170.675 173.261 170.542 172.819 170.275 172.488C170.008 172.147 169.624 171.976 169.123 171.976C168.643 171.976 168.195 172.152 167.779 172.504C167.363 172.845 167.155 173.475 167.155 174.392V179H165.475V170.68ZM179.38 170.68H181.06V179H179.38V170.68ZM179.38 167.48H181.06V169.24H179.38V167.48ZM186.001 179.192C184.891 179.192 184.011 178.952 183.361 178.472C182.721 177.992 182.374 177.261 182.321 176.28H183.969C184.033 176.856 184.23 177.267 184.561 177.512C184.902 177.757 185.393 177.88 186.033 177.88C186.577 177.88 187.009 177.784 187.329 177.592C187.649 177.389 187.809 177.112 187.809 176.76C187.809 176.525 187.761 176.339 187.665 176.2C187.579 176.051 187.393 175.923 187.105 175.816C186.817 175.709 186.379 175.608 185.793 175.512C184.961 175.373 184.305 175.187 183.825 174.952C183.345 174.717 183.009 174.44 182.817 174.12C182.635 173.789 182.545 173.389 182.545 172.92C182.545 172.173 182.843 171.581 183.441 171.144C184.038 170.707 184.817 170.488 185.777 170.488C186.897 170.488 187.761 170.733 188.369 171.224C188.987 171.715 189.302 172.397 189.313 173.272H187.697C187.686 172.728 187.51 172.349 187.169 172.136C186.827 171.912 186.363 171.8 185.777 171.8C185.318 171.8 184.939 171.896 184.641 172.088C184.342 172.269 184.193 172.531 184.193 172.872C184.193 173.107 184.251 173.299 184.369 173.448C184.486 173.587 184.689 173.709 184.977 173.816C185.275 173.912 185.718 174.008 186.305 174.104C187.126 174.243 187.766 174.424 188.225 174.648C188.683 174.861 189.009 175.133 189.201 175.464C189.393 175.784 189.489 176.184 189.489 176.664C189.489 177.453 189.163 178.072 188.513 178.52C187.873 178.968 187.035 179.192 186.001 179.192ZM193.876 179.192C192.766 179.192 191.886 178.952 191.236 178.472C190.596 177.992 190.249 177.261 190.196 176.28H191.844C191.908 176.856 192.105 177.267 192.436 177.512C192.777 177.757 193.268 177.88 193.908 177.88C194.452 177.88 194.884 177.784 195.204 177.592C195.524 177.389 195.684 177.112 195.684 176.76C195.684 176.525 195.636 176.339 195.54 176.2C195.454 176.051 195.268 175.923 194.98 175.816C194.692 175.709 194.254 175.608 193.668 175.512C192.836 175.373 192.18 175.187 191.7 174.952C191.22 174.717 190.884 174.44 190.692 174.12C190.51 173.789 190.42 173.389 190.42 172.92C190.42 172.173 190.718 171.581 191.316 171.144C191.913 170.707 192.692 170.488 193.652 170.488C194.772 170.488 195.636 170.733 196.244 171.224C196.862 171.715 197.177 172.397 197.188 173.272H195.572C195.561 172.728 195.385 172.349 195.044 172.136C194.702 171.912 194.238 171.8 193.652 171.8C193.193 171.8 192.814 171.896 192.516 172.088C192.217 172.269 192.068 172.531 192.068 172.872C192.068 173.107 192.126 173.299 192.244 173.448C192.361 173.587 192.564 173.709 192.852 173.816C193.15 173.912 193.593 174.008 194.18 174.104C195.001 174.243 195.641 174.424 196.1 174.648C196.558 174.861 196.884 175.133 197.076 175.464C197.268 175.784 197.364 176.184 197.364 176.664C197.364 177.453 197.038 178.072 196.388 178.52C195.748 178.968 194.91 179.192 193.876 179.192ZM198.615 170.68H200.295V179H198.615V170.68ZM198.615 167.48H200.295V169.24H198.615V167.48ZM205.875 179.192C205.043 179.192 204.312 179.005 203.683 178.632C203.054 178.259 202.574 177.741 202.243 177.08C201.923 176.419 201.763 175.672 201.763 174.84C201.763 174.008 201.923 173.261 202.243 172.6C202.574 171.939 203.054 171.421 203.683 171.048C204.312 170.675 205.043 170.488 205.875 170.488C206.718 170.488 207.448 170.675 208.067 171.048C208.696 171.421 209.176 171.939 209.507 172.6C209.838 173.261 210.003 174.008 210.003 174.84C210.003 175.672 209.838 176.419 209.507 177.08C209.176 177.741 208.696 178.259 208.067 178.632C207.448 179.005 206.718 179.192 205.875 179.192ZM205.875 177.752C206.408 177.752 206.851 177.629 207.203 177.384C207.566 177.139 207.832 176.797 208.003 176.36C208.184 175.923 208.275 175.416 208.275 174.84C208.275 174.264 208.184 173.757 208.003 173.32C207.832 172.883 207.566 172.541 207.203 172.296C206.851 172.051 206.408 171.928 205.875 171.928C205.352 171.928 204.91 172.051 204.547 172.296C204.195 172.541 203.928 172.883 203.747 173.32C203.576 173.757 203.491 174.264 203.491 174.84C203.491 175.416 203.576 175.923 203.747 176.36C203.928 176.797 204.195 177.139 204.547 177.384C204.91 177.629 205.352 177.752 205.875 177.752ZM211.491 170.68H213.107V171.848C213.405 171.432 213.773 171.101 214.211 170.856C214.659 170.611 215.176 170.488 215.763 170.488C216.413 170.488 216.957 170.627 217.395 170.904C217.843 171.181 218.173 171.56 218.387 172.04C218.611 172.52 218.723 173.053 218.723 173.64V179H217.059V173.816C217.059 173.251 216.909 172.803 216.611 172.472C216.323 172.141 215.891 171.976 215.315 171.976C215.016 171.976 214.701 172.04 214.371 172.168C214.051 172.296 213.768 172.541 213.523 172.904C213.288 173.267 213.171 173.763 213.171 174.392V179H211.491V170.68Z" fill="black"/>
</svg>
