<svg width="179" height="586" viewBox="0 0 179 586" fill="none" xmlns="http://www.w3.org/2000/svg">
<line x1="88.5" y1="188" x2="88.5" y2="154" stroke="#848175" stroke-opacity="0.4"/>
<line x1="88.5" y1="332" x2="88.5" y2="298" stroke="#848175" stroke-opacity="0.4"/>
<line x1="88.5" y1="476" x2="88.5" y2="442" stroke="#FFBA0A"/>
<path d="M44.75 2.79842e-06L134.25 0L179 77.5L134.25 155H44.75L0 77.5L44.75 2.79842e-06Z" fill="#848175" fill-opacity="0.1"/>
<path d="M133.962 0.5L178.423 77.5L133.962 154.5H45.0381L0.576172 77.5L45.0381 0.5H133.962Z" stroke="#848175" stroke-opacity="0.4"/>
<path d="M30.523 72.56H25.42V70.88H37.537V72.56H32.434V86H30.523V72.56ZM43.8619 86.252C42.8539 86.252 41.9579 86.007 41.1739 85.517C40.4039 85.027 39.8089 84.348 39.3889 83.48C38.9689 82.612 38.7589 81.632 38.7589 80.54C38.7589 79.448 38.9689 78.468 39.3889 77.6C39.8089 76.732 40.4039 76.053 41.1739 75.563C41.9579 75.073 42.8539 74.828 43.8619 74.828C44.8699 74.828 45.7589 75.073 46.5289 75.563C47.3129 76.053 47.9149 76.732 48.3349 77.6C48.7549 78.468 48.9649 79.448 48.9649 80.54V81.17H40.6279C40.6979 81.87 40.8659 82.479 41.1319 82.997C41.3979 83.515 41.7619 83.921 42.2239 84.215C42.6859 84.509 43.2319 84.656 43.8619 84.656C44.5759 84.656 45.1989 84.481 45.7309 84.131C46.2629 83.781 46.6549 83.298 46.9069 82.682H48.7339C48.3839 83.774 47.7749 84.642 46.9069 85.286C46.0529 85.93 45.0379 86.252 43.8619 86.252ZM47.0539 79.574C46.9139 78.608 46.5709 77.845 46.0249 77.285C45.4789 76.711 44.7579 76.424 43.8619 76.424C42.9659 76.424 42.2449 76.711 41.6989 77.285C41.1529 77.845 40.8099 78.608 40.6699 79.574H47.0539ZM55.7169 86.252C54.7089 86.252 53.8199 86.007 53.0499 85.517C52.2799 85.027 51.6849 84.348 51.2649 83.48C50.8449 82.612 50.6349 81.632 50.6349 80.54C50.6349 79.448 50.8449 78.468 51.2649 77.6C51.6849 76.732 52.2799 76.053 53.0499 75.563C53.8199 75.073 54.7089 74.828 55.7169 74.828C57.0329 74.828 58.0969 75.185 58.9089 75.899C59.7349 76.613 60.2319 77.572 60.3999 78.776H58.5729C58.4189 78.048 58.0899 77.474 57.5859 77.054C57.0959 76.634 56.4729 76.424 55.7169 76.424C55.0309 76.424 54.4429 76.599 53.9529 76.949C53.4769 77.299 53.1129 77.782 52.8609 78.398C52.6089 79.014 52.4829 79.728 52.4829 80.54C52.4829 81.352 52.6089 82.066 52.8609 82.682C53.1129 83.298 53.4769 83.781 53.9529 84.131C54.4429 84.481 55.0309 84.656 55.7169 84.656C56.4729 84.656 57.1029 84.446 57.6069 84.026C58.1109 83.592 58.4329 83.004 58.5729 82.262H60.3999C60.2459 83.452 59.7349 84.418 58.8669 85.16C58.0129 85.888 56.9629 86.252 55.7169 86.252ZM62.3752 70.88H64.1392V76.55C64.5312 76.018 65.0142 75.598 65.5882 75.29C66.1622 74.982 66.8202 74.828 67.5622 74.828C68.4442 74.828 69.1722 75.017 69.7462 75.395C70.3342 75.773 70.7612 76.27 71.0272 76.886C71.3072 77.488 71.4472 78.132 71.4472 78.818V86H69.7042V78.986C69.7042 78.202 69.4942 77.579 69.0742 77.117C68.6542 76.655 68.0382 76.424 67.2262 76.424C66.8482 76.424 66.4212 76.508 65.9452 76.676C65.4832 76.844 65.0632 77.187 64.6852 77.705C64.3212 78.223 64.1392 78.951 64.1392 79.889V86H62.3752V70.88ZM74.0442 75.08H75.7242V76.655C76.1162 76.095 76.6062 75.654 77.1942 75.332C77.7822 74.996 78.4612 74.828 79.2312 74.828C80.1132 74.828 80.8412 75.017 81.4152 75.395C82.0032 75.773 82.4302 76.27 82.6962 76.886C82.9762 77.488 83.1162 78.132 83.1162 78.818V86H81.3732V78.986C81.3732 78.202 81.1632 77.579 80.7432 77.117C80.3232 76.655 79.7072 76.424 78.8952 76.424C78.5172 76.424 78.0902 76.508 77.6142 76.676C77.1522 76.844 76.7322 77.187 76.3542 77.705C75.9902 78.223 75.8082 78.951 75.8082 79.889V86H74.0442V75.08ZM90.5011 86.252C89.4371 86.252 88.4991 86.007 87.6871 85.517C86.8891 85.027 86.2731 84.348 85.8391 83.48C85.4191 82.612 85.2091 81.632 85.2091 80.54C85.2091 79.448 85.4191 78.468 85.8391 77.6C86.2731 76.732 86.8891 76.053 87.6871 75.563C88.4991 75.073 89.4371 74.828 90.5011 74.828C91.5651 74.828 92.4961 75.073 93.2941 75.563C94.1061 76.053 94.7221 76.732 95.1421 77.6C95.5761 78.468 95.7931 79.448 95.7931 80.54C95.7931 81.632 95.5761 82.612 95.1421 83.48C94.7221 84.348 94.1061 85.027 93.2941 85.517C92.4961 86.007 91.5651 86.252 90.5011 86.252ZM90.5011 84.656C91.2571 84.656 91.8871 84.481 92.3911 84.131C92.9091 83.781 93.2941 83.298 93.5461 82.682C93.8121 82.066 93.9451 81.352 93.9451 80.54C93.9451 79.728 93.8121 79.014 93.5461 78.398C93.2941 77.782 92.9091 77.299 92.3911 76.949C91.8871 76.599 91.2571 76.424 90.5011 76.424C89.7451 76.424 89.1081 76.599 88.5901 76.949C88.0861 77.299 87.7011 77.782 87.4351 78.398C87.1831 79.014 87.0571 79.728 87.0571 80.54C87.0571 81.352 87.1831 82.066 87.4351 82.682C87.7011 83.298 88.0861 83.781 88.5901 84.131C89.1081 84.481 89.7451 84.656 90.5011 84.656ZM97.8948 70.88H99.6588V83.312C99.6588 83.704 99.7498 83.991 99.9318 84.173C100.114 84.355 100.401 84.446 100.793 84.446H102.263V86H100.457C99.8268 86 99.3228 85.916 98.9448 85.748C98.5808 85.566 98.3148 85.293 98.1468 84.929C97.9788 84.565 97.8948 84.096 97.8948 83.522V70.88ZM108.938 86.252C107.874 86.252 106.936 86.007 106.124 85.517C105.326 85.027 104.71 84.348 104.276 83.48C103.856 82.612 103.646 81.632 103.646 80.54C103.646 79.448 103.856 78.468 104.276 77.6C104.71 76.732 105.326 76.053 106.124 75.563C106.936 75.073 107.874 74.828 108.938 74.828C110.002 74.828 110.933 75.073 111.731 75.563C112.543 76.053 113.159 76.732 113.579 77.6C114.013 78.468 114.23 79.448 114.23 80.54C114.23 81.632 114.013 82.612 113.579 83.48C113.159 84.348 112.543 85.027 111.731 85.517C110.933 86.007 110.002 86.252 108.938 86.252ZM108.938 84.656C109.694 84.656 110.324 84.481 110.828 84.131C111.346 83.781 111.731 83.298 111.983 82.682C112.249 82.066 112.382 81.352 112.382 80.54C112.382 79.728 112.249 79.014 111.983 78.398C111.731 77.782 111.346 77.299 110.828 76.949C110.324 76.599 109.694 76.424 108.938 76.424C108.182 76.424 107.545 76.599 107.027 76.949C106.523 77.299 106.138 77.782 105.872 78.398C105.62 79.014 105.494 79.728 105.494 80.54C105.494 81.352 105.62 82.066 105.872 82.682C106.138 83.298 106.523 83.781 107.027 84.131C107.545 84.481 108.182 84.656 108.938 84.656ZM121.119 90.452C119.691 90.452 118.578 90.137 117.78 89.507C116.982 88.877 116.52 87.995 116.394 86.861H118.137C118.263 87.589 118.578 88.114 119.082 88.436C119.586 88.772 120.265 88.94 121.119 88.94C122.113 88.94 122.925 88.702 123.555 88.226C124.199 87.764 124.521 86.924 124.521 85.706V84.446C124.129 85.02 123.625 85.468 123.009 85.79C122.407 86.098 121.707 86.252 120.909 86.252C119.845 86.252 118.928 86.007 118.158 85.517C117.402 85.027 116.821 84.355 116.415 83.501C116.023 82.633 115.827 81.646 115.827 80.54C115.827 79.434 116.023 78.454 116.415 77.6C116.821 76.732 117.402 76.053 118.158 75.563C118.928 75.073 119.845 74.828 120.909 74.828C121.735 74.828 122.456 74.996 123.072 75.332C123.688 75.668 124.199 76.144 124.605 76.76V75.08H126.285V85.706C126.285 86.784 126.061 87.673 125.613 88.373C125.165 89.087 124.556 89.612 123.786 89.948C123.016 90.284 122.127 90.452 121.119 90.452ZM121.119 84.656C121.875 84.656 122.505 84.481 123.009 84.131C123.527 83.781 123.912 83.298 124.164 82.682C124.43 82.066 124.563 81.352 124.563 80.54C124.563 79.728 124.43 79.014 124.164 78.398C123.912 77.782 123.527 77.299 123.009 76.949C122.505 76.599 121.875 76.424 121.119 76.424C120.363 76.424 119.726 76.599 119.208 76.949C118.704 77.299 118.319 77.782 118.053 78.398C117.801 79.014 117.675 79.728 117.675 80.54C117.675 81.352 117.801 82.066 118.053 82.682C118.319 83.298 118.704 83.781 119.208 84.131C119.726 84.481 120.363 84.656 121.119 84.656ZM128.84 75.08H130.604V86H128.84V75.08ZM128.84 70.88H130.604V73.022H128.84V70.88ZM137.767 86.252C136.759 86.252 135.863 86.007 135.079 85.517C134.309 85.027 133.714 84.348 133.294 83.48C132.874 82.612 132.664 81.632 132.664 80.54C132.664 79.448 132.874 78.468 133.294 77.6C133.714 76.732 134.309 76.053 135.079 75.563C135.863 75.073 136.759 74.828 137.767 74.828C138.775 74.828 139.664 75.073 140.434 75.563C141.218 76.053 141.82 76.732 142.24 77.6C142.66 78.468 142.87 79.448 142.87 80.54V81.17H134.533C134.603 81.87 134.771 82.479 135.037 82.997C135.303 83.515 135.667 83.921 136.129 84.215C136.591 84.509 137.137 84.656 137.767 84.656C138.481 84.656 139.104 84.481 139.636 84.131C140.168 83.781 140.56 83.298 140.812 82.682H142.639C142.289 83.774 141.68 84.642 140.812 85.286C139.958 85.93 138.943 86.252 137.767 86.252ZM140.959 79.574C140.819 78.608 140.476 77.845 139.93 77.285C139.384 76.711 138.663 76.424 137.767 76.424C136.871 76.424 136.15 76.711 135.604 77.285C135.058 77.845 134.715 78.608 134.575 79.574H140.959ZM148.824 86.252C147.452 86.252 146.346 85.937 145.506 85.307C144.68 84.663 144.232 83.704 144.162 82.43H145.947C146.031 83.242 146.304 83.83 146.766 84.194C147.242 84.544 147.928 84.719 148.824 84.719C149.636 84.719 150.266 84.579 150.714 84.299C151.176 84.005 151.407 83.599 151.407 83.081C151.407 82.731 151.344 82.458 151.218 82.262C151.092 82.052 150.833 81.87 150.441 81.716C150.049 81.562 149.454 81.422 148.656 81.296C147.578 81.114 146.731 80.876 146.115 80.582C145.513 80.274 145.093 79.91 144.855 79.49C144.617 79.07 144.498 78.552 144.498 77.936C144.498 76.998 144.869 76.249 145.611 75.689C146.367 75.115 147.333 74.828 148.509 74.828C149.895 74.828 150.98 75.143 151.764 75.773C152.562 76.403 152.968 77.292 152.982 78.44H151.218C151.19 77.67 150.938 77.131 150.462 76.823C149.986 76.515 149.335 76.361 148.509 76.361C147.865 76.361 147.326 76.501 146.892 76.781C146.472 77.047 146.262 77.425 146.262 77.915C146.262 78.265 146.339 78.545 146.493 78.755C146.647 78.951 146.92 79.119 147.312 79.259C147.718 79.399 148.313 79.539 149.097 79.679C150.161 79.861 150.987 80.092 151.575 80.372C152.163 80.652 152.576 81.002 152.814 81.422C153.066 81.828 153.192 82.346 153.192 82.976C153.192 83.998 152.786 84.803 151.974 85.391C151.162 85.965 150.112 86.252 148.824 86.252Z" fill="black"/>
<path d="M56.25 187L120.75 187L153 242.5L120.75 298H56.25L24 242.5L56.25 187Z" fill="#848175" fill-opacity="0.1"/>
<path d="M120.462 187.5L152.421 242.5L120.462 297.5H56.5381L24.5781 242.5L56.5381 187.5H120.462Z" stroke="#848175" stroke-opacity="0.4"/>
<path d="M44.088 237.48H45.496V249H44.088V237.48ZM47.5701 240.68H48.8501V241.88C49.1488 241.453 49.5221 241.117 49.9701 240.872C50.4181 240.616 50.9355 240.488 51.5221 240.488C52.1941 240.488 52.7488 240.632 53.1861 240.92C53.6341 241.208 53.9595 241.587 54.1621 242.056C54.3755 242.515 54.4821 243.005 54.4821 243.528V249H53.1541V243.656C53.1541 243.059 52.9941 242.584 52.6741 242.232C52.3541 241.88 51.8848 241.704 51.2661 241.704C50.9781 241.704 50.6528 241.768 50.2901 241.896C49.9381 242.024 49.6181 242.285 49.3301 242.68C49.0528 243.075 48.9141 243.629 48.9141 244.344V249H47.5701V240.68ZM57.2928 241.864H55.7568V240.68H57.2928V239.368C57.2928 238.931 57.3568 238.573 57.4848 238.296C57.6128 238.019 57.8154 237.816 58.0928 237.688C58.3808 237.549 58.7648 237.48 59.2448 237.48H60.8768V238.664H59.5008C59.2021 238.664 58.9834 238.733 58.8448 238.872C58.7061 239 58.6368 239.219 58.6368 239.528V240.68H60.8768V241.864H58.6368V249H57.2928V241.864ZM65.9681 249.192C65.1575 249.192 64.4428 249.005 63.8241 248.632C63.2161 248.259 62.7468 247.741 62.4161 247.08C62.0961 246.419 61.9361 245.672 61.9361 244.84C61.9361 244.008 62.0961 243.261 62.4161 242.6C62.7468 241.939 63.2161 241.421 63.8241 241.048C64.4428 240.675 65.1575 240.488 65.9681 240.488C66.7788 240.488 67.4881 240.675 68.0961 241.048C68.7148 241.421 69.1841 241.939 69.5041 242.6C69.8348 243.261 70.0001 244.008 70.0001 244.84C70.0001 245.672 69.8348 246.419 69.5041 247.08C69.1841 247.741 68.7148 248.259 68.0961 248.632C67.4881 249.005 66.7788 249.192 65.9681 249.192ZM65.9681 247.976C66.5441 247.976 67.0241 247.843 67.4081 247.576C67.8028 247.309 68.0961 246.941 68.2881 246.472C68.4908 246.003 68.5921 245.459 68.5921 244.84C68.5921 244.221 68.4908 243.677 68.2881 243.208C68.0961 242.739 67.8028 242.371 67.4081 242.104C67.0241 241.837 66.5441 241.704 65.9681 241.704C65.3921 241.704 64.9068 241.837 64.5121 242.104C64.1281 242.371 63.8348 242.739 63.6321 243.208C63.4401 243.677 63.3441 244.221 63.3441 244.84C63.3441 245.459 63.4401 246.003 63.6321 246.472C63.8348 246.941 64.1281 247.309 64.5121 247.576C64.9068 247.843 65.3921 247.976 65.9681 247.976ZM71.6014 240.68H72.8814V242.072C73.1907 241.517 73.5694 241.133 74.0174 240.92C74.4654 240.696 74.972 240.584 75.5374 240.584H76.1614V241.88H75.5054C75.004 241.88 74.5614 241.965 74.1774 242.136C73.804 242.296 73.5054 242.573 73.2814 242.968C73.0574 243.363 72.9454 243.891 72.9454 244.552V249H71.6014V240.68ZM77.6014 240.68H78.8814V241.864C79.1267 241.437 79.452 241.101 79.8574 240.856C80.2734 240.611 80.7747 240.488 81.3614 240.488C81.98 240.488 82.4974 240.637 82.9134 240.936C83.3294 241.224 83.644 241.613 83.8574 242.104C84.124 241.613 84.4814 241.224 84.9294 240.936C85.388 240.637 85.932 240.488 86.5614 240.488C87.1694 240.488 87.6814 240.637 88.0974 240.936C88.524 241.224 88.8387 241.603 89.0414 242.072C89.244 242.531 89.3454 243.016 89.3454 243.528V249H88.0014V243.656C88.0014 243.069 87.852 242.6 87.5534 242.248C87.2547 241.885 86.8387 241.704 86.3054 241.704C85.8147 241.704 85.3294 241.891 84.8494 242.264C84.38 242.627 84.1454 243.32 84.1454 244.344V249H82.8014V243.656C82.8014 243.069 82.652 242.6 82.3534 242.248C82.0547 241.885 81.6387 241.704 81.1054 241.704C80.6147 241.704 80.1294 241.891 79.6494 242.264C79.18 242.627 78.9454 243.32 78.9454 244.344V249H77.6014V240.68ZM93.8638 249.192C92.9251 249.192 92.1891 248.979 91.6558 248.552C91.1224 248.125 90.8558 247.523 90.8558 246.744C90.8558 246.264 90.9731 245.853 91.2078 245.512C91.4424 245.171 91.7784 244.888 92.2158 244.664C92.6638 244.44 93.2078 244.269 93.8478 244.152L96.4558 243.656V243.016C96.4558 242.536 96.3011 242.195 95.9918 241.992C95.6824 241.779 95.2291 241.672 94.6318 241.672C94.0451 241.672 93.5491 241.789 93.1438 242.024C92.7384 242.259 92.5198 242.664 92.4878 243.24H91.1438C91.1758 242.301 91.5171 241.608 92.1678 241.16C92.8291 240.712 93.6504 240.488 94.6318 240.488C95.6771 240.488 96.4611 240.701 96.9838 241.128C97.5064 241.544 97.7678 242.131 97.7678 242.888V249H96.5198V247.96C96.1784 248.397 95.7838 248.712 95.3358 248.904C94.8878 249.096 94.3971 249.192 93.8638 249.192ZM93.9278 248.008C94.3544 248.008 94.7598 247.928 95.1438 247.768C95.5278 247.597 95.8424 247.341 96.0878 247C96.3331 246.648 96.4558 246.216 96.4558 245.704V244.792L94.0398 245.288C93.4211 245.416 92.9678 245.576 92.6798 245.768C92.3918 245.96 92.2478 246.275 92.2478 246.712C92.2478 247.117 92.3864 247.437 92.6638 247.672C92.9411 247.896 93.3624 248.008 93.9278 248.008ZM102.307 249C101.827 249 101.443 248.936 101.155 248.808C100.878 248.669 100.675 248.461 100.547 248.184C100.419 247.907 100.355 247.549 100.355 247.112V241.864H98.8193V240.68H100.355V238.12H101.699V240.68H103.939V241.864H101.699V246.952C101.699 247.251 101.769 247.469 101.907 247.608C102.046 247.747 102.265 247.816 102.563 247.816H103.939V249H102.307ZM105.351 240.68H106.695V249H105.351V240.68ZM105.351 237.48H106.695V239.112H105.351V237.48ZM112.136 240.488C112.766 240.488 113.315 240.616 113.784 240.872C114.254 241.128 114.643 241.491 114.952 241.96V240.68H116.232V252.2H114.888V247.816C114.59 248.253 114.206 248.595 113.736 248.84C113.278 249.075 112.744 249.192 112.136 249.192C111.326 249.192 110.627 249.005 110.04 248.632C109.464 248.259 109.022 247.747 108.712 247.096C108.414 246.435 108.264 245.683 108.264 244.84C108.264 243.997 108.414 243.251 108.712 242.6C109.022 241.939 109.464 241.421 110.04 241.048C110.627 240.675 111.326 240.488 112.136 240.488ZM112.296 241.704C111.72 241.704 111.235 241.837 110.84 242.104C110.456 242.371 110.163 242.739 109.96 243.208C109.768 243.677 109.672 244.221 109.672 244.84C109.672 245.459 109.768 246.003 109.96 246.472C110.163 246.941 110.456 247.309 110.84 247.576C111.235 247.843 111.72 247.976 112.296 247.976C112.872 247.976 113.352 247.843 113.736 247.576C114.131 247.309 114.424 246.941 114.616 246.472C114.819 246.003 114.92 245.459 114.92 244.84C114.92 244.221 114.819 243.677 114.616 243.208C114.424 242.739 114.131 242.371 113.736 242.104C113.352 241.837 112.872 241.704 112.296 241.704ZM125.123 249H123.843V247.8C123.544 248.227 123.171 248.568 122.723 248.824C122.275 249.069 121.757 249.192 121.171 249.192C120.499 249.192 119.939 249.048 119.491 248.76C119.053 248.472 118.728 248.099 118.515 247.64C118.312 247.171 118.211 246.675 118.211 246.152V240.68H119.539V246.024C119.539 246.621 119.699 247.096 120.019 247.448C120.339 247.8 120.808 247.976 121.427 247.976C121.715 247.976 122.035 247.912 122.387 247.784C122.749 247.656 123.069 247.395 123.347 247C123.635 246.605 123.779 246.051 123.779 245.336V240.68H125.123V249ZM130.605 249.192C129.837 249.192 129.155 249.005 128.557 248.632C127.971 248.259 127.517 247.741 127.197 247.08C126.877 246.419 126.717 245.672 126.717 244.84C126.717 244.008 126.877 243.261 127.197 242.6C127.517 241.939 127.971 241.421 128.557 241.048C129.155 240.675 129.837 240.488 130.605 240.488C131.373 240.488 132.051 240.675 132.637 241.048C133.235 241.421 133.693 241.939 134.013 242.6C134.333 243.261 134.493 244.008 134.493 244.84V245.32H128.141C128.195 245.853 128.323 246.317 128.525 246.712C128.728 247.107 129.005 247.416 129.357 247.64C129.709 247.864 130.125 247.976 130.605 247.976C131.149 247.976 131.624 247.843 132.029 247.576C132.435 247.309 132.733 246.941 132.925 246.472H134.317C134.051 247.304 133.587 247.965 132.925 248.456C132.275 248.947 131.501 249.192 130.605 249.192ZM133.037 244.104C132.931 243.368 132.669 242.787 132.253 242.36C131.837 241.923 131.288 241.704 130.605 241.704C129.923 241.704 129.373 241.923 128.957 242.36C128.541 242.787 128.28 243.368 128.173 244.104H133.037Z" fill="black"/>
<path d="M56.25 331L120.75 331L153 386.5L120.75 442H56.25L24 386.5L56.25 331Z" fill="#848175" fill-opacity="0.1"/>
<path d="M120.462 331.5L152.421 386.5L120.462 441.5H56.5381L24.5781 386.5L56.5381 331.5H120.462Z" stroke="#848175" stroke-opacity="0.4"/>
<path d="M55.088 381.48H56.496V393H55.088V381.48ZM58.5701 384.68H59.8501V385.88C60.1488 385.453 60.5221 385.117 60.9701 384.872C61.4181 384.616 61.9355 384.488 62.5221 384.488C63.1941 384.488 63.7488 384.632 64.1861 384.92C64.6341 385.208 64.9595 385.587 65.1621 386.056C65.3755 386.515 65.4821 387.005 65.4821 387.528V393H64.1541V387.656C64.1541 387.059 63.9941 386.584 63.6741 386.232C63.3541 385.88 62.8848 385.704 62.2661 385.704C61.9781 385.704 61.6528 385.768 61.2901 385.896C60.9381 386.024 60.6181 386.285 60.3301 386.68C60.0528 387.075 59.9141 387.629 59.9141 388.344V393H58.5701V384.68ZM71.1088 396.392C70.0208 396.392 69.1728 396.152 68.5648 395.672C67.9568 395.192 67.6048 394.52 67.5088 393.656H68.8368C68.9328 394.211 69.1728 394.611 69.5568 394.856C69.9408 395.112 70.4581 395.24 71.1088 395.24C71.8661 395.24 72.4848 395.059 72.9648 394.696C73.4554 394.344 73.7008 393.704 73.7008 392.776V391.816C73.4021 392.253 73.0181 392.595 72.5488 392.84C72.0901 393.075 71.5568 393.192 70.9488 393.192C70.1381 393.192 69.4394 393.005 68.8528 392.632C68.2768 392.259 67.8341 391.747 67.5247 391.096C67.2261 390.435 67.0768 389.683 67.0768 388.84C67.0768 387.997 67.2261 387.251 67.5247 386.6C67.8341 385.939 68.2768 385.421 68.8528 385.048C69.4394 384.675 70.1381 384.488 70.9488 384.488C71.5781 384.488 72.1274 384.616 72.5968 384.872C73.0661 385.128 73.4554 385.491 73.7648 385.96V384.68H75.0448V392.776C75.0448 393.597 74.8741 394.275 74.5328 394.808C74.1914 395.352 73.7274 395.752 73.1408 396.008C72.5541 396.264 71.8768 396.392 71.1088 396.392ZM71.1088 391.976C71.6848 391.976 72.1648 391.843 72.5488 391.576C72.9434 391.309 73.2368 390.941 73.4288 390.472C73.6314 390.003 73.7328 389.459 73.7328 388.84C73.7328 388.221 73.6314 387.677 73.4288 387.208C73.2368 386.739 72.9434 386.371 72.5488 386.104C72.1648 385.837 71.6848 385.704 71.1088 385.704C70.5328 385.704 70.0474 385.837 69.6528 386.104C69.2688 386.371 68.9754 386.739 68.7728 387.208C68.5808 387.677 68.4848 388.221 68.4848 388.84C68.4848 389.459 68.5808 390.003 68.7728 390.472C68.9754 390.941 69.2688 391.309 69.6528 391.576C70.0474 391.843 70.5328 391.976 71.1088 391.976ZM80.5273 393.192C79.7593 393.192 79.0766 393.005 78.4793 392.632C77.8926 392.259 77.4393 391.741 77.1193 391.08C76.7993 390.419 76.6393 389.672 76.6393 388.84C76.6393 388.008 76.7993 387.261 77.1193 386.6C77.4393 385.939 77.8926 385.421 78.4793 385.048C79.0766 384.675 79.7593 384.488 80.5273 384.488C81.2953 384.488 81.9726 384.675 82.5593 385.048C83.1566 385.421 83.6153 385.939 83.9353 386.6C84.2553 387.261 84.4153 388.008 84.4153 388.84V389.32H78.0633C78.1166 389.853 78.2446 390.317 78.4473 390.712C78.6499 391.107 78.9273 391.416 79.2793 391.64C79.6313 391.864 80.0473 391.976 80.5273 391.976C81.0713 391.976 81.5459 391.843 81.9513 391.576C82.3566 391.309 82.6553 390.941 82.8473 390.472H84.2393C83.9726 391.304 83.5086 391.965 82.8473 392.456C82.1966 392.947 81.4233 393.192 80.5273 393.192ZM82.9593 388.104C82.8526 387.368 82.5913 386.787 82.1753 386.36C81.7593 385.923 81.2099 385.704 80.5273 385.704C79.8446 385.704 79.2953 385.923 78.8793 386.36C78.4633 386.787 78.2019 387.368 78.0953 388.104H82.9593ZM81.4713 381.288H83.2633L81.1193 383.624H79.9353L81.4713 381.288ZM86.0076 384.68H87.2876V385.88C87.5863 385.453 87.9596 385.117 88.4076 384.872C88.8556 384.616 89.373 384.488 89.9596 384.488C90.6316 384.488 91.1863 384.632 91.6236 384.92C92.0716 385.208 92.397 385.587 92.5996 386.056C92.813 386.515 92.9196 387.005 92.9196 387.528V393H91.5916V387.656C91.5916 387.059 91.4316 386.584 91.1116 386.232C90.7916 385.88 90.3223 385.704 89.7036 385.704C89.4156 385.704 89.0903 385.768 88.7276 385.896C88.3756 386.024 88.0556 386.285 87.7676 386.68C87.4903 387.075 87.3516 387.629 87.3516 388.344V393H86.0076V384.68ZM94.8663 384.68H96.2103V393H94.8663V384.68ZM94.8663 381.48H96.2103V383.112H94.8663V381.48ZM101.668 393.192C100.9 393.192 100.217 393.005 99.6199 392.632C99.0332 392.259 98.5799 391.741 98.2599 391.08C97.9399 390.419 97.7799 389.672 97.7799 388.84C97.7799 388.008 97.9399 387.261 98.2599 386.6C98.5799 385.939 99.0332 385.421 99.6199 385.048C100.217 384.675 100.9 384.488 101.668 384.488C102.436 384.488 103.113 384.675 103.7 385.048C104.297 385.421 104.756 385.939 105.076 386.6C105.396 387.261 105.556 388.008 105.556 388.84V389.32H99.2039C99.2572 389.853 99.3852 390.317 99.5879 390.712C99.7905 391.107 100.068 391.416 100.42 391.64C100.772 391.864 101.188 391.976 101.668 391.976C102.212 391.976 102.687 391.843 103.092 391.576C103.497 391.309 103.796 390.941 103.988 390.472H105.38C105.113 391.304 104.649 391.965 103.988 392.456C103.337 392.947 102.564 393.192 101.668 393.192ZM104.1 388.104C103.993 387.368 103.732 386.787 103.316 386.36C102.9 385.923 102.351 385.704 101.668 385.704C100.985 385.704 100.436 385.923 100.02 386.36C99.6039 386.787 99.3425 387.368 99.2359 388.104H104.1ZM107.148 384.68H108.428V386.072C108.738 385.517 109.116 385.133 109.564 384.92C110.012 384.696 110.519 384.584 111.084 384.584H111.708V385.88H111.052C110.551 385.88 110.108 385.965 109.724 386.136C109.351 386.296 109.052 386.573 108.828 386.968C108.604 387.363 108.492 387.891 108.492 388.552V393H107.148V384.68ZM113.116 384.68H114.46V393H113.116V384.68ZM113.116 381.48H114.46V383.112H113.116V381.48ZM119.918 393.192C119.15 393.192 118.467 393.005 117.87 392.632C117.283 392.259 116.83 391.741 116.51 391.08C116.19 390.419 116.03 389.672 116.03 388.84C116.03 388.008 116.19 387.261 116.51 386.6C116.83 385.939 117.283 385.421 117.87 385.048C118.467 384.675 119.15 384.488 119.918 384.488C120.686 384.488 121.363 384.675 121.95 385.048C122.547 385.421 123.006 385.939 123.326 386.6C123.646 387.261 123.806 388.008 123.806 388.84V389.32H117.454C117.507 389.853 117.635 390.317 117.838 390.712C118.041 391.107 118.318 391.416 118.67 391.64C119.022 391.864 119.438 391.976 119.918 391.976C120.462 391.976 120.937 391.843 121.342 391.576C121.747 391.309 122.046 390.941 122.238 390.472H123.63C123.363 391.304 122.899 391.965 122.238 392.456C121.587 392.947 120.814 393.192 119.918 393.192ZM122.35 388.104C122.243 387.368 121.982 386.787 121.566 386.36C121.15 385.923 120.601 385.704 119.918 385.704C119.235 385.704 118.686 385.923 118.27 386.36C117.854 386.787 117.593 387.368 117.486 388.104H122.35Z" fill="black"/>
<path d="M120.462 475.5L152.421 530.5L120.462 585.5H56.5381L24.5781 530.5L56.5381 475.5H120.462Z" fill="#FFBA0A" fill-opacity="0.4" stroke="#FFBA0A"/>
<path d="M50.088 514.48H53.88C55.1067 514.48 56.1413 514.736 56.984 515.248C57.8373 515.749 58.472 516.432 58.888 517.296C59.3147 518.16 59.528 519.141 59.528 520.24C59.528 521.339 59.3147 522.32 58.888 523.184C58.472 524.048 57.8373 524.736 56.984 525.248C56.1413 525.749 55.1067 526 53.88 526H50.088V514.48ZM53.88 524.72C54.8187 524.72 55.5973 524.528 56.216 524.144C56.8453 523.76 57.3093 523.232 57.608 522.56C57.9067 521.888 58.056 521.115 58.056 520.24C58.056 519.365 57.9067 518.592 57.608 517.92C57.3093 517.248 56.8453 516.72 56.216 516.336C55.5973 515.952 54.8187 515.76 53.88 515.76H51.496V524.72H53.88ZM64.6366 526.192C63.8686 526.192 63.186 526.005 62.5886 525.632C62.002 525.259 61.5486 524.741 61.2286 524.08C60.9086 523.419 60.7486 522.672 60.7486 521.84C60.7486 521.008 60.9086 520.261 61.2286 519.6C61.5486 518.939 62.002 518.421 62.5886 518.048C63.186 517.675 63.8686 517.488 64.6366 517.488C65.4046 517.488 66.082 517.675 66.6686 518.048C67.266 518.421 67.7246 518.939 68.0446 519.6C68.3646 520.261 68.5246 521.008 68.5246 521.84V522.32H62.1726C62.226 522.853 62.354 523.317 62.5566 523.712C62.7593 524.107 63.0366 524.416 63.3886 524.64C63.7406 524.864 64.1566 524.976 64.6366 524.976C65.1806 524.976 65.6553 524.843 66.0606 524.576C66.466 524.309 66.7646 523.941 66.9566 523.472H68.3486C68.082 524.304 67.618 524.965 66.9566 525.456C66.306 525.947 65.5326 526.192 64.6366 526.192ZM67.0686 521.104C66.962 520.368 66.7006 519.787 66.2846 519.36C65.8686 518.923 65.3193 518.704 64.6366 518.704C63.954 518.704 63.4046 518.923 62.9886 519.36C62.5726 519.787 62.3113 520.368 62.2046 521.104H67.0686ZM73.061 526.192C72.0157 526.192 71.173 525.952 70.533 525.472C69.9037 524.981 69.5623 524.251 69.509 523.28H70.869C70.933 523.899 71.141 524.347 71.493 524.624C71.8557 524.891 72.3783 525.024 73.061 525.024C73.6797 525.024 74.1597 524.917 74.501 524.704C74.853 524.48 75.029 524.171 75.029 523.776C75.029 523.509 74.981 523.301 74.885 523.152C74.789 522.992 74.5917 522.853 74.293 522.736C73.9943 522.619 73.541 522.512 72.933 522.416C72.1117 522.277 71.4663 522.096 70.997 521.872C70.5383 521.637 70.2183 521.36 70.037 521.04C69.8557 520.72 69.765 520.325 69.765 519.856C69.765 519.141 70.0477 518.571 70.613 518.144C71.189 517.707 71.925 517.488 72.821 517.488C73.877 517.488 74.7037 517.728 75.301 518.208C75.909 518.688 76.2183 519.365 76.229 520.24H74.885C74.8637 519.653 74.6717 519.243 74.309 519.008C73.9463 518.773 73.4503 518.656 72.821 518.656C72.3303 518.656 71.9197 518.763 71.589 518.976C71.269 519.179 71.109 519.467 71.109 519.84C71.109 520.107 71.1677 520.32 71.285 520.48C71.4023 520.629 71.6103 520.757 71.909 520.864C72.2183 520.971 72.6717 521.077 73.269 521.184C74.0797 521.323 74.709 521.499 75.157 521.712C75.605 521.925 75.9197 522.192 76.101 522.512C76.293 522.821 76.389 523.216 76.389 523.696C76.389 524.475 76.0797 525.088 75.461 525.536C74.8423 525.973 74.0423 526.192 73.061 526.192ZM77.7256 517.68H79.0696V526H77.7256V517.68ZM77.7256 514.48H79.0696V516.112H77.7256V514.48ZM84.6713 529.392C83.5833 529.392 82.7353 529.152 82.1273 528.672C81.5193 528.192 81.1673 527.52 81.0713 526.656H82.3993C82.4953 527.211 82.7353 527.611 83.1193 527.856C83.5033 528.112 84.0206 528.24 84.6713 528.24C85.4286 528.24 86.0473 528.059 86.5273 527.696C87.0179 527.344 87.2633 526.704 87.2633 525.776V524.816C86.9646 525.253 86.5806 525.595 86.1113 525.84C85.6526 526.075 85.1193 526.192 84.5113 526.192C83.7006 526.192 83.0019 526.005 82.4153 525.632C81.8393 525.259 81.3966 524.747 81.0872 524.096C80.7886 523.435 80.6393 522.683 80.6393 521.84C80.6393 520.997 80.7886 520.251 81.0872 519.6C81.3966 518.939 81.8393 518.421 82.4153 518.048C83.0019 517.675 83.7006 517.488 84.5113 517.488C85.1406 517.488 85.6899 517.616 86.1593 517.872C86.6286 518.128 87.0179 518.491 87.3273 518.96V517.68H88.6073V525.776C88.6073 526.597 88.4366 527.275 88.0953 527.808C87.7539 528.352 87.2899 528.752 86.7033 529.008C86.1166 529.264 85.4393 529.392 84.6713 529.392ZM84.6713 524.976C85.2473 524.976 85.7273 524.843 86.1113 524.576C86.5059 524.309 86.7993 523.941 86.9913 523.472C87.1939 523.003 87.2953 522.459 87.2953 521.84C87.2953 521.221 87.1939 520.677 86.9913 520.208C86.7993 519.739 86.5059 519.371 86.1113 519.104C85.7273 518.837 85.2473 518.704 84.6713 518.704C84.0953 518.704 83.6099 518.837 83.2153 519.104C82.8313 519.371 82.5379 519.739 82.3353 520.208C82.1433 520.677 82.0473 521.221 82.0473 521.84C82.0473 522.459 82.1433 523.003 82.3353 523.472C82.5379 523.941 82.8313 524.309 83.2153 524.576C83.6099 524.843 84.0953 524.976 84.6713 524.976ZM90.5858 517.68H91.8658V518.88C92.1644 518.453 92.5378 518.117 92.9858 517.872C93.4338 517.616 93.9511 517.488 94.5378 517.488C95.2098 517.488 95.7644 517.632 96.2018 517.92C96.6498 518.208 96.9751 518.587 97.1778 519.056C97.3911 519.515 97.4978 520.005 97.4978 520.528V526H96.1698V520.656C96.1698 520.059 96.0098 519.584 95.6898 519.232C95.3698 518.88 94.9004 518.704 94.2818 518.704C93.9938 518.704 93.6684 518.768 93.3058 518.896C92.9538 519.024 92.6338 519.285 92.3458 519.68C92.0684 520.075 91.9298 520.629 91.9298 521.344V526H90.5858V517.68ZM106.09 526.192C105.322 526.192 104.639 526.005 104.042 525.632C103.455 525.259 103.002 524.741 102.682 524.08C102.362 523.419 102.202 522.672 102.202 521.84C102.202 521.008 102.362 520.261 102.682 519.6C103.002 518.939 103.455 518.421 104.042 518.048C104.639 517.675 105.322 517.488 106.09 517.488C106.858 517.488 107.535 517.675 108.122 518.048C108.719 518.421 109.178 518.939 109.498 519.6C109.818 520.261 109.978 521.008 109.978 521.84V522.32H103.626C103.679 522.853 103.807 523.317 104.01 523.712C104.212 524.107 104.49 524.416 104.842 524.64C105.194 524.864 105.61 524.976 106.09 524.976C106.634 524.976 107.108 524.843 107.514 524.576C107.919 524.309 108.218 523.941 108.41 523.472H109.802C109.535 524.304 109.071 524.965 108.41 525.456C107.759 525.947 106.986 526.192 106.09 526.192ZM108.522 521.104C108.415 520.368 108.154 519.787 107.738 519.36C107.322 518.923 106.772 518.704 106.09 518.704C105.407 518.704 104.858 518.923 104.442 519.36C104.026 519.787 103.764 520.368 103.658 521.104H108.522ZM114.354 526C113.874 526 113.49 525.936 113.202 525.808C112.925 525.669 112.722 525.461 112.594 525.184C112.466 524.907 112.402 524.549 112.402 524.112V518.864H110.866V517.68H112.402V515.12H113.746V517.68H115.986V518.864H113.746V523.952C113.746 524.251 113.815 524.469 113.954 524.608C114.093 524.747 114.311 524.816 114.61 524.816H115.986V526H114.354ZM49.992 540.68H51.272V541.864C51.5173 541.437 51.8427 541.101 52.248 540.856C52.664 540.611 53.1653 540.488 53.752 540.488C54.3707 540.488 54.888 540.637 55.304 540.936C55.72 541.224 56.0347 541.613 56.248 542.104C56.5147 541.613 56.872 541.224 57.32 540.936C57.7787 540.637 58.3227 540.488 58.952 540.488C59.56 540.488 60.072 540.637 60.488 540.936C60.9147 541.224 61.2293 541.603 61.432 542.072C61.6347 542.531 61.736 543.016 61.736 543.528V549H60.392V543.656C60.392 543.069 60.2427 542.6 59.944 542.248C59.6453 541.885 59.2293 541.704 58.696 541.704C58.2053 541.704 57.72 541.891 57.24 542.264C56.7707 542.627 56.536 543.32 56.536 544.344V549H55.192V543.656C55.192 543.069 55.0427 542.6 54.744 542.248C54.4453 541.885 54.0293 541.704 53.496 541.704C53.0053 541.704 52.52 541.891 52.04 542.264C51.5707 542.627 51.336 543.32 51.336 544.344V549H49.992V540.68ZM70.6384 549H69.3584V547.8C69.0597 548.227 68.6864 548.568 68.2384 548.824C67.7904 549.069 67.273 549.192 66.6864 549.192C66.0144 549.192 65.4544 549.048 65.0064 548.76C64.569 548.472 64.2437 548.099 64.0304 547.64C63.8277 547.171 63.7264 546.675 63.7264 546.152V540.68H65.0544V546.024C65.0544 546.621 65.2144 547.096 65.5344 547.448C65.8544 547.8 66.3237 547.976 66.9424 547.976C67.2304 547.976 67.5504 547.912 67.9024 547.784C68.265 547.656 68.585 547.395 68.8624 547C69.1504 546.605 69.2944 546.051 69.2944 545.336V540.68H70.6384V549ZM72.617 537.48H73.961V546.952C73.961 547.251 74.0303 547.469 74.169 547.608C74.3077 547.747 74.5263 547.816 74.825 547.816H75.945V549H74.569C74.089 549 73.705 548.936 73.417 548.808C73.1397 548.669 72.937 548.461 72.809 548.184C72.681 547.907 72.617 547.549 72.617 547.112V537.48ZM80.1666 549C79.6866 549 79.3026 548.936 79.0146 548.808C78.7373 548.669 78.5346 548.461 78.4066 548.184C78.2786 547.907 78.2146 547.549 78.2146 547.112V541.864H76.6786V540.68H78.2146V538.12H79.5586V540.68H81.7986V541.864H79.5586V546.952C79.5586 547.251 79.628 547.469 79.7666 547.608C79.9053 547.747 80.124 547.816 80.4226 547.816H81.7986V549H80.1666ZM83.21 540.68H84.554V549H83.21V540.68ZM83.21 537.48H84.554V539.112H83.21V537.48ZM86.5076 540.68H87.7876V541.864C88.033 541.437 88.3583 541.101 88.7636 540.856C89.1796 540.611 89.681 540.488 90.2676 540.488C90.8863 540.488 91.4036 540.637 91.8196 540.936C92.2356 541.224 92.5503 541.613 92.7636 542.104C93.0303 541.613 93.3876 541.224 93.8356 540.936C94.2943 540.637 94.8383 540.488 95.4676 540.488C96.0756 540.488 96.5876 540.637 97.0036 540.936C97.4303 541.224 97.745 541.603 97.9476 542.072C98.1503 542.531 98.2516 543.016 98.2516 543.528V549H96.9076V543.656C96.9076 543.069 96.7583 542.6 96.4596 542.248C96.161 541.885 95.745 541.704 95.2116 541.704C94.721 541.704 94.2356 541.891 93.7556 542.264C93.2863 542.627 93.0516 543.32 93.0516 544.344V549H91.7076V543.656C91.7076 543.069 91.5583 542.6 91.2596 542.248C90.961 541.885 90.545 541.704 90.0116 541.704C89.521 541.704 89.0356 541.891 88.5556 542.264C88.0863 542.627 87.8516 543.32 87.8516 544.344V549H86.5076V540.68ZM103.746 549.192C102.978 549.192 102.295 549.005 101.698 548.632C101.111 548.259 100.658 547.741 100.338 547.08C100.018 546.419 99.858 545.672 99.858 544.84C99.858 544.008 100.018 543.261 100.338 542.6C100.658 541.939 101.111 541.421 101.698 541.048C102.295 540.675 102.978 540.488 103.746 540.488C104.514 540.488 105.191 540.675 105.778 541.048C106.375 541.421 106.834 541.939 107.154 542.6C107.474 543.261 107.634 544.008 107.634 544.84V545.32H101.282C101.335 545.853 101.463 546.317 101.666 546.712C101.869 547.107 102.146 547.416 102.498 547.64C102.85 547.864 103.266 547.976 103.746 547.976C104.29 547.976 104.765 547.843 105.17 547.576C105.575 547.309 105.874 546.941 106.066 546.472H107.458C107.191 547.304 106.727 547.965 106.066 548.456C105.415 548.947 104.642 549.192 103.746 549.192ZM106.178 544.104C106.071 543.368 105.81 542.787 105.394 542.36C104.978 541.923 104.429 541.704 103.746 541.704C103.063 541.704 102.514 541.923 102.098 542.36C101.682 542.787 101.421 543.368 101.314 544.104H106.178ZM104.69 537.288H106.482L104.338 539.624H103.154L104.69 537.288ZM114.362 548.808C113.893 549.064 113.344 549.192 112.714 549.192C111.904 549.192 111.205 549.005 110.618 548.632C110.042 548.259 109.6 547.747 109.29 547.096C108.992 546.435 108.842 545.683 108.842 544.84C108.842 543.997 108.992 543.251 109.29 542.6C109.6 541.939 110.042 541.421 110.618 541.048C111.205 540.675 111.904 540.488 112.714 540.488C113.322 540.488 113.856 540.611 114.314 540.856C114.784 541.091 115.168 541.427 115.466 541.864V537.48H116.81V549H115.53V547.72C115.221 548.189 114.832 548.552 114.362 548.808ZM111.418 547.576C111.813 547.843 112.298 547.976 112.874 547.976C113.45 547.976 113.93 547.843 114.314 547.576C114.709 547.309 115.002 546.941 115.194 546.472C115.397 546.003 115.498 545.459 115.498 544.84C115.498 544.221 115.397 543.677 115.194 543.208C115.002 542.739 114.709 542.371 114.314 542.104C113.93 541.837 113.45 541.704 112.874 541.704C112.298 541.704 111.813 541.837 111.418 542.104C111.034 542.371 110.741 542.739 110.538 543.208C110.346 543.677 110.25 544.221 110.25 544.84C110.25 545.459 110.346 546.003 110.538 546.472C110.741 546.941 111.034 547.309 111.418 547.576ZM118.757 540.68H120.101V549H118.757V540.68ZM118.757 537.48H120.101V539.112H118.757V537.48ZM124.583 549.192C123.644 549.192 122.908 548.979 122.375 548.552C121.841 548.125 121.575 547.523 121.575 546.744C121.575 546.264 121.692 545.853 121.927 545.512C122.161 545.171 122.497 544.888 122.935 544.664C123.383 544.44 123.927 544.269 124.567 544.152L127.175 543.656V543.016C127.175 542.536 127.02 542.195 126.711 541.992C126.401 541.779 125.948 541.672 125.351 541.672C124.764 541.672 124.268 541.789 123.863 542.024C123.457 542.259 123.239 542.664 123.207 543.24H121.863C121.895 542.301 122.236 541.608 122.887 541.16C123.548 540.712 124.369 540.488 125.351 540.488C126.396 540.488 127.18 540.701 127.703 541.128C128.225 541.544 128.487 542.131 128.487 542.888V549H127.239V547.96C126.897 548.397 126.503 548.712 126.055 548.904C125.607 549.096 125.116 549.192 124.583 549.192ZM124.647 548.008C125.073 548.008 125.479 547.928 125.863 547.768C126.247 547.597 126.561 547.341 126.807 547C127.052 546.648 127.175 546.216 127.175 545.704V544.792L124.759 545.288C124.14 545.416 123.687 545.576 123.399 545.768C123.111 545.96 122.967 546.275 122.967 546.712C122.967 547.117 123.105 547.437 123.383 547.672C123.66 547.896 124.081 548.008 124.647 548.008Z" fill="black"/>
</svg>
